<svg width="120" height="64" viewBox="0 0 120 64" fill="none" xmlns="http://www.w3.org/2000/svg">
<path d="M76.7724 60.2117V59.7762C76.7724 59.4707 76.938 59.318 77.2694 59.318H79.2821C79.6135 59.318 79.7791 59.4707 79.7791 59.7762V59.9504C79.7511 60.1241 79.7691 60.3022 79.8314 60.4668C79.8936 60.6314 79.998 60.7768 80.1341 60.8886C80.5216 61.1331 80.98 61.2408 81.436 61.1943H82.5487C83.0041 61.2395 83.4608 61.1235 83.8393 60.8668C84.1234 60.4886 84.2545 60.0175 84.2065 59.5471V59.8772C84.2144 59.6379 84.1686 59.3998 84.0723 59.1804C83.976 58.9611 83.8317 58.7661 83.6501 58.6098C83.2266 58.3686 82.7522 58.2304 82.2653 58.2065C81.6652 58.156 81.0684 58.0719 80.4776 57.9547C79.8705 57.84 79.2729 57.6796 78.69 57.4748C78.1104 57.2563 77.6221 56.8479 77.3052 56.3162C76.9091 55.6468 76.7158 54.877 76.7488 54.1001V53.6324C76.7198 53.1428 76.798 52.6528 76.978 52.1965C77.158 51.7402 77.4354 51.3286 77.7909 50.9903C78.6008 50.3251 79.6324 49.99 80.6791 50.0522H83.0467C84.1009 49.9875 85.1407 50.3226 85.9584 50.9903C86.3157 51.3682 86.5924 51.8147 86.7715 52.3028C86.9507 52.7908 87.0286 53.3102 87.0005 53.8292V54.2439C87.0005 54.5487 86.8348 54.7012 86.5034 54.7012H84.4908C84.1594 54.7012 83.9937 54.5487 83.9937 54.2439V54.0139C83.9937 53.4459 83.8751 53.3571 83.6388 53.1533C83.2509 52.9088 82.7921 52.8014 82.336 52.8484H81.4133C80.9483 52.7955 80.4802 52.9166 80.0992 53.1881C79.9616 53.3572 79.8602 53.5526 79.8011 53.7624C79.742 53.9721 79.7265 54.1917 79.7556 54.4076V54.4277C79.7556 55.1123 80.4026 55.7029 81.6976 55.804C82.9187 55.8806 84.1226 56.1308 85.273 56.547C85.8454 56.7833 86.3293 57.1927 86.6569 57.7178C87.05 58.3629 87.2435 59.1096 87.2133 59.8642V60.4086C87.2421 60.898 87.1638 61.3879 86.9839 61.844C86.8039 62.3001 86.5266 62.7116 86.1712 63.0498C85.3619 63.7157 84.3305 64.0515 83.2839 63.9897H80.7026C79.6558 64.052 78.624 63.7165 77.8144 63.0506C77.4568 62.673 77.18 62.2265 77.0008 61.7384C76.8216 61.2503 76.7439 60.7308 76.7724 60.2117Z" fill="black"/>
<path d="M0.0371703 59.3241V58.7544C0.0243326 58.6742 0.0303673 58.5922 0.0547958 58.5147C0.0792243 58.4373 0.121375 58.3666 0.177906 58.3083C0.234437 58.2499 0.303794 58.2056 0.380478 58.1787C0.457162 58.1518 0.539064 58.1431 0.619692 58.1533H2.9646C3.04469 58.1437 3.12592 58.1527 3.20196 58.1796C3.278 58.2065 3.34678 58.2506 3.40293 58.3084C3.45907 58.3663 3.50107 58.4363 3.52563 58.5131C3.55019 58.5898 3.55665 58.6712 3.54451 58.7509V58.9791C3.48423 59.5078 3.63284 60.0391 3.95872 60.46C4.39919 60.7747 4.94027 60.9165 5.47869 60.8581H6.77628C7.31427 60.9144 7.85332 60.7616 8.28142 60.4312C8.62036 59.9732 8.77332 59.404 8.70959 58.838V58.5018C8.72045 58.2527 8.66636 58.0051 8.55263 57.7833C8.43889 57.5614 8.26941 57.3728 8.06079 57.2361C7.57615 56.9259 7.01958 56.7458 6.4449 56.7134C5.74375 56.6476 5.04739 56.5382 4.35986 56.3859C3.64915 56.2328 2.95234 56.0213 2.27656 55.7535C1.57954 55.4517 1.00794 54.9192 0.658061 54.2456C0.192268 53.3567 -0.0314722 52.3612 0.00926509 51.3588V50.3622C-0.030257 49.7358 0.056934 49.1078 0.265637 48.5158C0.47434 47.9237 0.80028 47.3797 1.22401 46.9162C1.67335 46.4948 2.20397 46.1693 2.78347 45.9596C3.36296 45.7499 3.97917 45.6605 4.59444 45.6967H7.35618C7.97625 45.6587 8.59758 45.7472 9.18228 45.9569C9.76698 46.1665 10.3028 46.4929 10.7571 46.9162C11.1803 47.3794 11.5059 47.9228 11.7146 48.5142C11.9233 49.1056 12.0108 49.7329 11.9719 50.3588V50.8988C11.984 50.9785 11.9776 51.0599 11.953 51.1366C11.9284 51.2134 11.8864 51.2834 11.8303 51.3413C11.7742 51.3992 11.7054 51.4433 11.6293 51.4702C11.5533 51.4971 11.4721 51.5061 11.392 51.4964H9.04096C8.96081 51.5062 8.87947 51.4973 8.80332 51.4705C8.72717 51.4436 8.65827 51.3996 8.60202 51.3417C8.54577 51.2838 8.5037 51.2137 8.47909 51.1369C8.45448 51.0601 8.44801 50.9786 8.46018 50.8988V50.7246C8.52072 50.1901 8.37268 49.6529 8.04684 49.2246C7.60633 48.9099 7.06528 48.7682 6.52688 48.8265H5.44991C5.17793 48.794 4.90219 48.8163 4.63901 48.8922C4.37583 48.9681 4.13057 49.0959 3.91774 49.2681C3.59168 49.7795 3.45045 50.3869 3.51747 50.9894V51.5295C3.51747 52.4215 4.27324 52.9337 5.78477 53.0661C7.21545 53.1681 8.62118 53.4941 9.9505 54.0322C10.6369 54.3557 11.2027 54.8886 11.5664 55.554C12.0311 56.4132 12.2561 57.3813 12.2178 58.3572V59.3249C12.257 59.9513 12.1696 60.5791 11.9608 61.171C11.7519 61.7629 11.4259 62.3068 11.0022 62.7701C10.5529 63.1914 10.0225 63.5168 9.44313 63.7265C8.86379 63.9362 8.24775 64.0257 7.63262 63.9897H4.62235C4.00707 64.0259 3.39087 63.9364 2.81137 63.7267C2.23188 63.517 1.70126 63.1915 1.25192 62.7701C0.828227 62.3066 0.502314 61.7626 0.293613 61.1705C0.0849127 60.5785 -0.0023017 59.9505 0.0371703 59.3241Z" fill="black"/>
<path d="M24.4261 61.5576V63.4435C24.4341 63.5191 24.4267 63.5956 24.4046 63.6683C24.3824 63.741 24.3459 63.8085 24.2971 63.8669C24.1599 63.9642 23.9917 64.0079 23.8244 63.9897H19.5584C18.2893 64.0718 17.0375 63.6604 16.065 62.8416C15.6373 62.4088 15.3064 61.8903 15.0942 61.3202C14.8819 60.7502 14.7931 60.1417 14.8337 59.5349V54.507C14.7927 53.8996 14.8813 53.2904 15.0936 52.7198C15.3058 52.1492 15.637 51.6301 16.065 51.1968C17.038 50.3792 18.2897 49.9691 19.5584 50.0522H23.8244C24.2256 50.0522 24.4261 50.2435 24.4261 50.6262V52.5121C24.4341 52.5878 24.4267 52.6642 24.4046 52.7369C24.3824 52.8096 24.3459 52.8772 24.2971 52.9355C24.16 53.0331 23.9918 53.0771 23.8244 53.0592H20.1305C19.6744 53.0164 19.2191 53.1481 18.8564 53.4277C18.7122 53.5982 18.6037 53.796 18.5373 54.0092C18.471 54.2224 18.4481 54.4468 18.4701 54.669V59.3729C18.4478 59.5956 18.4706 59.8205 18.5371 60.0342C18.6036 60.2479 18.7125 60.446 18.8573 60.6168C19.2199 60.8964 19.6753 61.0281 20.1313 60.9853H23.8244C24.225 60.9853 24.4256 61.1764 24.4261 61.5585" fill="black"/>
<path d="M29.9201 63.9897H27.6118C27.2322 63.9897 27.0424 63.7908 27.0424 63.393V46.2934C27.0424 45.8956 27.2322 45.6967 27.6118 45.6967H29.9201C30.298 45.6967 30.4869 45.8956 30.4869 46.2934V51.0434H30.595C30.8086 50.5323 31.1845 50.1054 31.6648 49.8285C32.145 49.5517 32.7031 49.4402 33.253 49.5112H34.1251C36.9609 49.5112 38.3789 51.0536 38.3789 54.1384V63.393C38.3905 63.4739 38.3831 63.5565 38.3573 63.6342C38.3314 63.7118 38.2878 63.7824 38.23 63.8403C38.1721 63.8982 38.1015 63.9418 38.0238 63.9677C37.9461 63.9937 37.8635 64.0012 37.7824 63.9897H35.5011C35.1215 63.9897 34.9317 63.7908 34.9317 63.393V54.3083C34.9781 53.8466 34.8486 53.3844 34.5689 53.0139C34.3995 52.8705 34.203 52.7626 33.991 52.6966C33.779 52.6306 33.5559 52.6079 33.335 52.6297H32.3618C31.1142 52.6297 30.4904 53.3489 30.4904 54.7874V63.3895C30.4881 63.7896 30.298 63.9897 29.9201 63.9897Z" fill="black"/>
<path d="M48.3954 63.9897H45.8028C44.5149 64.0704 43.2443 63.6601 42.2475 62.8416C41.815 62.4114 41.4795 61.8938 41.2635 61.3235C41.0475 60.7532 40.9561 60.1434 40.9953 59.5349V54.507C40.9559 53.8979 41.0472 53.2875 41.2632 52.7167C41.4791 52.1458 41.8147 51.6276 42.2475 51.1968C43.2449 50.3795 44.5154 49.9705 45.8028 50.0522H48.3954C49.6807 49.976 50.9469 50.3915 51.9367 51.2142C52.3706 51.6412 52.7082 52.1558 52.9267 52.7237C53.1452 53.2916 53.2397 53.8996 53.2038 54.507V59.5358C53.2401 60.1434 53.1457 60.7517 52.927 61.3198C52.7083 61.8879 52.3703 62.4027 51.9358 62.8294C50.9459 63.6511 49.6802 64.0659 48.3954 63.9897ZM46.3565 53.0313C45.8917 52.9861 45.4264 53.1125 45.0485 53.3867C44.9053 53.5556 44.7976 53.7515 44.7319 53.9628C44.6661 54.1742 44.6436 54.3965 44.6657 54.6167V59.4269C44.6431 59.6469 44.6651 59.8692 44.7304 60.0806C44.7958 60.2919 44.903 60.4879 45.0459 60.6569C45.4237 60.9311 45.8891 61.0575 46.3539 61.0123H47.8364C48.3068 61.0558 48.7773 60.9297 49.1628 60.6569C49.3097 60.49 49.4204 60.2946 49.4881 60.083C49.5558 59.8713 49.5789 59.6479 49.556 59.4269V54.6167C49.5788 54.3957 49.5556 54.1724 49.4879 53.9607C49.4202 53.7491 49.3095 53.5537 49.1628 53.3867C48.7789 53.1153 48.3109 52.9893 47.8425 53.0313H46.3565Z" fill="black"/>
<path d="M62.3489 63.9896H59.7555C58.4676 64.0706 57.1969 63.6603 56.2002 62.8415C55.7675 62.4114 55.432 61.8938 55.216 61.3235C55 60.7532 54.9086 60.1434 54.948 59.5349V54.5069C54.9084 53.8979 54.9997 53.2874 55.2156 52.7165C55.4316 52.1456 55.7673 51.6274 56.2002 51.1967C57.1974 50.3792 58.4681 49.9702 59.7555 50.0521H62.3489C63.6341 49.9757 64.9001 50.3913 65.8894 51.2142C66.3237 51.6409 66.6614 52.1555 66.88 52.7234C67.0985 53.2914 67.1928 53.8995 67.1565 54.5069V59.5357C67.1929 60.1433 67.0986 60.7517 66.8799 61.3198C66.6612 61.888 66.3232 62.4027 65.8885 62.8293C64.899 63.6511 63.6335 64.0659 62.3489 63.9896ZM60.3092 53.0313C59.8445 52.9868 59.3794 53.1131 59.0012 53.3867C58.8581 53.5556 58.7504 53.7515 58.6847 53.9628C58.6189 54.1741 58.5963 54.3965 58.6184 54.6167V59.4268C58.5957 59.6468 58.6176 59.8691 58.6828 60.0804C58.748 60.2917 58.8551 60.4877 58.9977 60.6568C59.3759 60.9304 59.841 61.0567 60.3058 61.0122H61.7882C62.2587 61.056 62.7292 60.9299 63.1146 60.6568C63.2616 60.49 63.3724 60.2946 63.4401 60.083C63.5078 59.8713 63.5309 59.6479 63.5079 59.4268V54.6167C63.5308 54.3956 63.5076 54.1723 63.4399 53.9606C63.3723 53.7489 63.2615 53.5535 63.1146 53.3867C62.7311 53.1152 62.2633 52.9892 61.7952 53.0313H60.3092Z" fill="black"/>
<path d="M72.6844 63.9897H70.3499C70.2701 63.9989 70.1893 63.9896 70.1136 63.9625C70.038 63.9355 69.9697 63.8914 69.9138 63.8337C69.858 63.776 69.8162 63.7062 69.7917 63.6298C69.7673 63.5534 69.7607 63.4724 69.7726 63.393V46.2934C69.7607 46.214 69.7673 46.133 69.7917 46.0566C69.8162 45.9802 69.858 45.9104 69.9138 45.8527C69.9697 45.795 70.038 45.7509 70.1136 45.7239C70.1893 45.6968 70.2701 45.6875 70.3499 45.6967H72.6844C73.0686 45.6967 73.2608 45.8956 73.2608 46.2934V63.393C73.2726 63.4723 73.2661 63.5532 73.2417 63.6296C73.2172 63.7059 73.1755 63.7756 73.1198 63.8333C73.0641 63.891 72.9959 63.9351 72.9203 63.9622C72.8448 63.9893 72.7641 63.9987 72.6844 63.9897Z" fill="black"/>
<path d="M92.4453 60.142V63.4295C92.4453 63.8029 92.2727 63.9896 91.9273 63.9896H89.5022C89.4269 63.9994 89.3504 63.9914 89.2788 63.9665C89.2071 63.9415 89.1422 63.9002 89.0893 63.8459C89.0364 63.7915 88.9969 63.7256 88.974 63.6533C88.9511 63.581 88.9453 63.5044 88.9572 63.4295V60.1681C88.9474 60.0948 88.9548 60.0202 88.9789 59.9502C89.003 59.8802 89.0431 59.8168 89.096 59.765C89.1489 59.7132 89.2131 59.6744 89.2836 59.6516C89.3542 59.6289 89.429 59.623 89.5022 59.6342H91.9273C91.997 59.6235 92.0681 59.6292 92.1352 59.6508C92.2022 59.6724 92.2633 59.7094 92.3135 59.7586C92.3638 59.8079 92.4019 59.8682 92.4248 59.9348C92.4476 60.0013 92.4547 60.0723 92.4453 60.142Z" fill="black"/>
<path d="M94.6481 50.0522H97.1203C97.2857 50.0401 97.4491 50.0936 97.5753 50.201C97.7014 50.3084 97.7802 50.4612 97.7944 50.6262L100.21 60.9051H100.406L102.766 50.6262C102.784 50.4574 102.867 50.3024 102.999 50.1949C103.13 50.0874 103.299 50.0361 103.468 50.0522H105.939C106.333 50.0522 106.473 50.2435 106.361 50.6262L102.823 63.3886C102.812 63.4778 102.785 63.5641 102.741 63.6426C102.697 63.7211 102.639 63.7903 102.568 63.8461C102.498 63.9019 102.417 63.9433 102.331 63.968C102.244 63.9926 102.154 64 102.065 63.9897H98.4964C98.3182 63.9994 98.1427 63.9437 98.0029 63.8329C97.8631 63.7222 97.7688 63.5641 97.7377 63.3886L94.2269 50.6262C94.1141 50.2435 94.2545 50.0522 94.6481 50.0522Z" fill="black"/>
<path d="M111.171 63.5367H108.704C108.34 63.5367 108.158 63.3849 108.158 63.0811V50.0478C108.158 49.7441 108.34 49.5922 108.704 49.5922H110.962C111.1 49.5734 111.24 49.5917 111.368 49.6452C111.496 49.6986 111.608 49.7853 111.691 49.8962L116.337 58.115H116.442V50.0478C116.442 49.7441 116.624 49.5922 116.987 49.5922H119.453C119.818 49.5922 120.001 49.7441 120 50.0478V63.0811C120 63.3849 119.818 63.5367 119.453 63.5367H117.247C117.081 63.5483 116.916 63.5138 116.769 63.4369C116.622 63.36 116.499 63.2437 116.414 63.1012L111.82 55.0357H111.717V63.0811C111.717 63.3849 111.535 63.5367 111.171 63.5367Z" fill="black"/>
<path d="M77.6173 17.3836C77.3838 16.986 77.0063 16.6934 76.5628 16.5662C76.1193 16.4391 75.6438 16.4872 75.2349 16.7006L62.8659 23.1868C62.7471 23.2488 62.6145 23.2795 62.4805 23.2758C62.3466 23.2721 62.2158 23.2342 62.1007 23.1657C61.9856 23.0973 61.8899 23.0005 61.8228 22.8846C61.7557 22.7688 61.7194 22.6377 61.7174 22.5039V20.9437C61.7175 20.6313 61.8029 20.3249 61.9644 20.0573C62.1259 19.7898 62.3574 19.5713 62.6339 19.4254L76.9196 11.8329C77.2059 11.6883 77.4441 11.4638 77.6051 11.1866C77.7239 10.9821 77.8002 10.7559 77.8294 10.5213C77.8586 10.2867 77.84 10.0486 77.7749 9.82133C77.7097 9.59406 77.5993 9.38227 77.4503 9.19865C77.3012 9.01503 77.1166 8.86337 76.9074 8.75274L60.7817 0.20817C60.5218 0.0707328 60.232 -0.000753526 59.9379 5.98947e-06C59.6438 0.000765505 59.3544 0.0737476 59.0952 0.212525L43.1814 8.75884C42.9018 8.90777 42.668 9.12967 42.5048 9.40088C42.3415 9.6721 42.255 9.98247 42.2544 10.2989V18.2494C42.255 18.5665 42.3419 18.8775 42.5058 19.1491C42.6697 19.4207 42.9044 19.6427 43.1849 19.7913L58.6295 28.0405C58.7463 28.1024 58.8693 28.1515 58.9966 28.1869L59.0289 28.206C59.2916 28.3616 59.5897 28.4475 59.8949 28.4556C60.2002 28.4637 60.5024 28.3937 60.773 28.2522L73.4245 21.6179C73.5139 21.5705 73.614 21.5469 73.7151 21.5493C73.8163 21.5518 73.9151 21.5802 74.0021 21.6318C74.0891 21.6834 74.1613 21.7565 74.2118 21.8441C74.2623 21.9317 74.2894 22.0308 74.2904 22.1319V24.4551C74.2889 24.6895 74.2231 24.919 74.1001 25.1187C73.9771 25.3184 73.8016 25.4805 73.5928 25.5875L60.7041 32.2636C60.4699 32.3853 60.2098 32.4488 59.9459 32.4488C59.6819 32.4488 59.4218 32.3853 59.1876 32.2636L44.8618 24.7391C44.4467 24.5209 43.9623 24.4748 43.5134 24.6105C43.0644 24.7463 42.687 25.0532 42.4628 25.4647C42.3536 25.6682 42.286 25.8913 42.2639 26.1212C42.2417 26.351 42.2656 26.5829 42.334 26.8035C42.4024 27.024 42.514 27.2288 42.6623 27.4058C42.8106 27.5829 42.9927 27.7288 43.1979 27.835L59.1109 36.1905C59.3663 36.3245 59.6503 36.3949 59.9388 36.3957C60.2273 36.3964 60.5117 36.3275 60.7678 36.1949L76.8909 27.8437C77.1763 27.6967 77.4159 27.4741 77.5834 27.2004C77.7508 26.9266 77.8398 26.6122 77.8405 26.2914V18.2416C77.846 17.9406 77.7688 17.6438 77.6173 17.3836Z" fill="black"/>
</svg>
