<svg width="26" height="15" viewBox="0 0 26 15" fill="none" xmlns="http://www.w3.org/2000/svg">
<path d="M0.5 7.625C0.5 3.825 3.575 0.75 7.375 0.75H20.5C23.2625 0.75 25.5 2.9875 25.5 5.75C25.5 8.5125 23.2625 10.75 20.5 10.75H9.875C8.15 10.75 6.75 9.35 6.75 7.625C6.75 5.9 8.15 4.5 9.875 4.5H19.25V7H9.7625C9.075 7 9.075 8.25 9.7625 8.25H20.5C21.875 8.25 23 7.125 23 5.75C23 4.375 21.875 3.25 20.5 3.25H7.375C4.9625 3.25 3 5.2125 3 7.625C3 10.0375 4.9625 12 7.375 12H19.25V14.5H7.375C3.575 14.5 0.5 11.425 0.5 7.625Z" fill="#828282"/>
</svg>
