<svg width="103" height="100" viewBox="0 0 103 100" fill="none" xmlns="http://www.w3.org/2000/svg">
<path fill-rule="evenodd" clip-rule="evenodd" d="M36.5024 7.91499C24.2172 14.9516 22.6447 15.9526 22.2963 16.9583C21.7455 18.5485 21.8038 31.8768 22.3674 33.2027C22.7073 34.0022 24.5281 35.2007 31.0179 38.8965C48.369 48.778 50.1674 49.7434 51.1702 49.7146C51.7545 49.698 56.5803 47.2165 62.8171 43.7254C68.6739 40.4472 73.668 37.765 73.915 37.765C74.1619 37.765 74.4614 38.0211 74.5808 38.334C74.9242 39.2343 74.8331 43.1413 74.4521 43.8578C74.0676 44.5807 52.0272 56.8285 51.1105 56.8285C50.7924 56.8285 45.4174 53.9708 39.1667 50.4779C25.3444 42.7546 25.3505 42.7575 23.962 43.2448C22.4478 43.7761 21.7166 45.6109 22.3831 47.2068C22.8152 48.2413 24.4245 49.2427 36.3691 55.9081C43.793 60.0506 50.3207 63.5073 50.8754 63.5893C51.6663 63.7062 54.7934 62.1369 65.3956 56.3027C72.8271 52.213 79.2693 48.4643 79.7118 47.9719C80.4966 47.0982 80.5155 46.882 80.5045 38.9138C80.4963 33.0649 80.3697 30.5891 80.0577 30.1802C79.3744 29.2842 78.0221 28.6929 77.1572 28.9112C76.7226 29.0209 71.7174 31.7121 66.0346 34.8914C60.0863 38.2196 55.3934 40.6277 54.9749 40.5673C54.3449 40.4767 54.2337 40.1587 54.1408 38.179C54.0672 36.6143 54.1998 35.6399 54.5618 35.0838C54.8534 34.6357 60.3425 31.3121 66.8202 27.6613C73.2717 24.0252 78.9927 20.6153 79.5331 20.0833C80.7596 18.8765 80.8304 17.2871 79.7118 16.0638C78.6418 14.8933 52.1119 -0.00323668 51.1041 5.27537e-07C50.6709 0.00143929 44.1004 3.56309 36.5024 7.91499ZM3.55028 77.6805C1.20296 78.4348 0.0997108 80.4249 0.111862 83.8837C0.116865 85.3394 0.367036 86.6918 0.815198 87.6857C1.62682 89.4852 2.72042 90.0614 6.82965 90.8524C8.30601 91.1369 9.72877 91.5487 9.99109 91.7678C10.2548 91.9883 10.4682 92.8645 10.4682 93.7281C10.4682 95.6406 9.89567 96.0348 7.1177 96.0348C5.02163 96.0348 4.76789 95.8524 4.41158 94.0878C4.19536 93.0159 4.11495 92.9735 2.09393 92.8681L0 92.7587L0.21193 94.8251C0.608629 98.6936 2.42058 99.9903 7.43042 99.9903C12.7533 99.9903 14.4809 98.594 14.6836 94.1281C14.7811 91.9789 14.6607 91.2635 13.9749 89.9201C12.9949 88.0004 11.6268 87.2425 8.12446 86.6796C4.65925 86.1224 4.39263 85.9171 4.39263 83.8053C4.39263 81.7245 4.90405 81.2875 7.33857 81.2875C9.23844 81.2875 10.0304 81.8392 10.178 83.2658C10.2859 84.3121 10.3521 84.3481 12.3445 84.4528L14.3995 84.5607L14.3987 83.014C14.3984 81.1548 13.5063 79.2646 12.1615 78.2722C11.3685 77.687 10.525 77.5248 7.87286 77.4482C6.05698 77.3956 4.11173 77.5003 3.55028 77.6805ZM32.0733 77.7845C31.9782 78.0337 31.9432 83.092 31.9954 89.0248L32.0901 99.8115H34.0557H36.0213L36.2 93.3972C36.3619 87.5803 36.4434 86.9353 37.0724 86.4731C37.9473 85.8304 40.6305 85.8081 41.1512 86.4397C41.3953 86.7357 41.5808 89.3521 41.6416 93.3637L41.7395 99.8115H43.7051H45.6707L45.7637 92.7976C45.8444 86.6979 45.7744 85.6196 45.2276 84.5247C43.8259 81.7191 38.4798 81.0263 36.6582 83.4143C36.3062 83.8758 36.2207 83.3474 36.2114 80.658L36.2 77.3309H34.2233C32.9621 77.3309 32.1837 77.4953 32.0733 77.7845ZM83.375 88.6611V99.9914H85.3024C86.7301 99.9914 87.2859 99.8439 87.4467 99.4224C87.5661 99.1094 87.6636 94.2669 87.6636 88.6611C87.6636 83.0554 87.5661 78.2128 87.4467 77.8999C87.2859 77.4784 86.7301 77.3309 85.3024 77.3309H83.375V88.6611ZM21.3067 82.2511C20.3642 82.4432 18.7206 84.0366 18.2885 85.1775C18.1152 85.6354 17.9733 88.2817 17.9733 91.0581C17.9733 97.157 18.345 98.2814 20.7102 99.3342C21.9353 99.8795 22.9199 99.9975 25.5606 99.9151L28.8736 99.8115V98.0131V96.2146L26.0313 96.1082C24.4681 96.0499 22.9807 95.8276 22.7255 95.6147C22.3938 95.3373 22.2619 94.0252 22.2619 90.9991C22.2619 87.973 22.3938 86.6609 22.7255 86.3836C22.9807 86.1706 24.4681 85.9484 26.0313 85.8901L28.8736 85.7836V83.9852V82.1867L25.4784 82.1396C23.6111 82.1141 21.7337 82.164 21.3067 82.2511ZM51.9504 82.637C49.537 83.8755 49.2568 84.6675 49.1424 90.5743C49.0291 96.4222 49.3307 97.5944 51.3267 99.0666C52.1927 99.7051 52.8585 99.8115 55.9892 99.8115C59.9723 99.8115 60.9733 99.4508 62.1949 97.5743C62.7295 96.7527 62.8253 95.7481 62.8253 90.9513C62.8253 85.7987 62.7595 85.2067 62.0851 84.2812C60.87 82.6144 59.2568 82.0079 56.035 82.0079C54.0186 82.0079 52.8145 82.1932 51.9504 82.637ZM68.8737 82.6673C66.5932 83.7431 66.2205 84.9139 66.2205 90.9991C66.2205 97.2034 66.5793 98.2757 69.0195 99.3619C71.2592 100.359 76.2862 100.151 77.9002 98.994C79.6414 97.7462 79.9798 96.4445 79.9798 90.9991C79.9798 85.5498 79.6414 84.2521 77.8945 83C76.3152 81.8684 70.9848 81.6716 68.8737 82.6673ZM92.8057 82.3425C91.2421 83.0133 90.5227 84.4581 90.5227 86.9292C90.5227 90.8139 91.646 92.0476 95.7048 92.6224C98.1079 92.9627 99.1 93.6342 99.1 94.9201C99.1 96.3787 98.3849 96.811 96.1826 96.684C94.3778 96.5801 94.2699 96.5182 94.0966 95.4953C93.9272 94.4939 93.7921 94.4083 92.2185 94.3065L90.5227 94.1968V95.6679C90.5227 98.6674 92.3904 99.9914 96.6222 99.9914C101.282 99.9914 102.903 98.3933 102.595 94.1047C102.464 92.2735 102.285 91.8307 101.338 90.9783C100.619 90.3315 99.5071 89.8413 98.1479 89.5715C94.207 88.7888 94.2753 88.8338 94.2753 87.0339V85.4239H96.3967C98.4906 85.4239 98.5224 85.4394 98.8194 86.5929C99.1025 87.6925 99.2154 87.7619 100.719 87.7619H102.316V86.1491C102.316 84.8754 102.097 84.2891 101.274 83.3615C100.251 82.209 100.168 82.1853 96.896 82.1029C95.0615 82.0565 93.221 82.1644 92.8057 82.3425ZM58.2865 86.3951C58.9409 87.0537 58.874 95.0949 58.2093 95.6499C57.9109 95.8992 56.848 96.028 55.6182 95.9636L53.5332 95.8549L53.4325 91.4095C53.3653 88.4388 53.4689 86.7979 53.7445 86.4638C54.2587 85.8397 57.6832 85.7879 58.2865 86.3951ZM75.441 86.3951C75.7251 86.681 75.8699 88.2335 75.8699 90.9991C75.8699 93.7648 75.7251 95.3172 75.441 95.6032C75.2051 95.8406 74.0754 96.0348 72.9304 96.0348C70.9891 96.0348 70.8236 95.9682 70.4726 95.0456C69.894 93.5245 70.2003 86.7382 70.8665 86.3149C71.6356 85.8264 74.9335 85.8843 75.441 86.3951Z" fill="#393B6F"/>
</svg>
