<svg width="30" height="26" viewBox="0 0 30 26" fill="none" xmlns="http://www.w3.org/2000/svg">
<path d="M28.2134 10.3244L4.00866 0.280814C2.98895 -0.14235 1.83694 0.0438029 1.00227 0.766381C0.167605 1.48908 -0.181496 2.60259 0.0913163 3.67234L2.24575 12.1211H12.7941C13.2795 12.1211 13.6731 12.5146 13.6731 13.0001C13.6731 13.4854 13.2796 13.879 12.7941 13.879H2.24575L0.0913163 22.3277C-0.181496 23.3975 0.167547 24.511 1.00227 25.2337C1.83864 25.9577 2.99077 26.1416 4.00872 25.7192L28.2134 15.6757C29.3155 15.2185 30 14.1932 30 13.0001C30 11.8069 29.3155 10.7816 28.2134 10.3244Z" fill="#E0402A"/>
</svg>
