<svg width="30" height="30" viewBox="0 0 30 30" fill="none" xmlns="http://www.w3.org/2000/svg">
<path d="M2.5 15.625C2.5 11.825 5.575 8.75 9.375 8.75H22.5C25.2625 8.75 27.5 10.9875 27.5 13.75C27.5 16.5125 25.2625 18.75 22.5 18.75H11.875C10.15 18.75 8.75 17.35 8.75 15.625C8.75 13.9 10.15 12.5 11.875 12.5H21.25V15H11.7625C11.075 15 11.075 16.25 11.7625 16.25H22.5C23.875 16.25 25 15.125 25 13.75C25 12.375 23.875 11.25 22.5 11.25H9.375C6.9625 11.25 5 13.2125 5 15.625C5 18.0375 6.9625 20 9.375 20H21.25V22.5H9.375C5.575 22.5 2.5 19.425 2.5 15.625Z" fill="#828282"/>
</svg>
