<svg width="203" height="203" viewBox="0 0 203 203" fill="none" xmlns="http://www.w3.org/2000/svg">
<path d="M101.691 196.853C148.727 196.853 186.857 174.839 186.857 147.682C186.857 120.526 148.727 98.5118 101.691 98.5118C54.6546 98.5118 16.5242 120.526 16.5242 147.682C16.5242 174.839 54.6546 196.853 101.691 196.853Z" fill="#D8D8D8"/>
<path d="M88.1426 164.905C99.1836 164.905 108.134 159.737 108.134 153.362C108.134 146.988 99.1836 141.82 88.1426 141.82C77.1017 141.82 68.1512 146.988 68.1512 153.362C68.1512 159.737 77.1017 164.905 88.1426 164.905Z" fill="#C1C1C1"/>
<path d="M122.035 175.623C135.404 175.623 146.241 169.367 146.241 161.649C146.241 153.931 135.404 147.674 122.035 147.674C108.667 147.674 97.8298 153.931 97.8298 161.649C97.8298 169.367 108.667 175.623 122.035 175.623Z" fill="#C1C1C1"/>
<path d="M95.004 148.945C95.004 147.93 94.3382 146.915 92.9984 146.148C90.3228 144.601 85.9827 144.601 83.3072 146.148C81.9674 146.919 81.2975 147.934 81.2975 148.945V152.076C81.2975 153.091 81.9674 154.106 83.3072 154.877C85.9827 156.42 90.3228 156.42 92.9984 154.877C94.3382 154.101 95.004 153.091 95.004 152.076V148.945Z" fill="#263238"/>
<path d="M93.0146 149.278C95.6902 150.825 95.6902 153.338 93.0146 154.877C90.3391 156.416 85.9989 156.42 83.3234 154.877C80.6479 153.334 80.6438 150.817 83.3234 149.278C86.003 147.739 90.3391 147.735 93.0146 149.278Z" fill="#37474F"/>
<path d="M95.0202 148.945H81.3137V152.075H95.0202V148.945Z" fill="#37474F"/>
<path d="M93.0146 146.16C95.6902 147.703 95.6902 150.22 93.0146 151.755C90.3391 153.289 85.9989 153.302 83.3234 151.755C80.6479 150.208 80.6438 147.695 83.3234 146.16C86.003 144.625 90.3391 144.601 93.0146 146.16Z" fill="#455A64"/>
<path d="M90.4487 146.858C91.7113 147.585 91.7113 148.767 90.4487 149.493C89.7415 149.852 88.9598 150.039 88.167 150.039C87.3741 150.039 86.5924 149.852 85.8852 149.493C84.6266 148.767 84.6266 147.585 85.8852 146.858C86.5924 146.5 87.3741 146.313 88.167 146.313C88.9598 146.313 89.7415 146.5 90.4487 146.858Z" fill="#263238"/>
<path d="M91.3947 89.0806H84.9393V148.178H91.3947V89.0806Z" fill="#263238"/>
<path d="M114.529 61.7892V61.7446C114.468 61.4076 114.395 61.0665 114.309 60.7255C114.321 60.7615 114.33 60.7981 114.338 60.8351C114.285 60.6037 114.224 60.3723 114.159 60.1409C114.183 60.2261 114.204 60.3114 114.224 60.3966C114.159 60.1409 114.086 59.8891 114.009 59.6334C114.045 59.743 114.082 59.8567 114.11 59.9663C114.07 59.8201 114.025 59.674 113.98 59.5278L113.907 59.2964V59.2639V59.2883C113.362 57.6325 112.643 56.039 111.764 54.534C111.735 54.4812 111.707 54.4284 111.674 54.3756C109.462 50.612 106.254 47.1732 102.673 45.0377L102.499 44.9321C101.472 44.3357 100.383 43.8537 99.2508 43.4949C98.31 43.1973 97.3305 43.04 96.3438 43.028H96.0028H95.7957C95.6252 43.028 95.4587 43.0604 95.2963 43.0848H95.1461L94.87 43.1376C94.7523 43.1619 94.6345 43.1904 94.5209 43.2228L94.2042 43.3162C94.2042 43.3162 94.2042 43.3162 94.1839 43.3162L93.8672 43.4299C93.7616 43.4746 93.6561 43.5192 93.5586 43.5679L92.8603 43.9739L57.6967 64.2739H57.6682C55.7641 65.3417 54.6111 67.5219 54.6111 70.6197V89.7464L41.3795 97.0544C40.0687 97.777 38.9733 98.8349 38.2055 100.12C37.4378 101.405 37.0251 102.87 37.0098 104.367C36.9946 105.864 37.3772 107.338 38.1186 108.638C38.86 109.939 39.9335 111.019 41.2293 111.768C44.9139 113.893 49.0927 115.012 53.3464 115.012C57.6 115.012 61.7788 113.893 65.4634 111.768L79.17 104.054L114.788 83.4737V64.343C114.778 63.4857 114.691 62.631 114.529 61.7892Z" fill="#B6B6B6"/>
<path d="M57.0877 88.4188V67.051L79.71 54.1158L81.7481 73.8718L57.0877 88.4188Z" fill="#B6B6B6"/>
<path opacity="0.5" d="M57.0877 88.4188V67.051L79.71 54.1158L81.7481 73.8718L57.0877 88.4188Z" fill="black"/>
<path d="M57.0877 88.4188L81.7481 73.8718V97.1234L76.6488 99.7137L57.0877 88.4188Z" fill="#B6B6B6"/>
<path opacity="0.3" d="M57.0877 88.4188L81.7481 73.8718V97.1234L76.6488 99.7137L57.0877 88.4188Z" fill="black"/>
<path d="M114.533 61.7892L112.194 63.0762L97.9597 70.8674L95.3856 72.2681L77.5947 82.0121C76.466 80.1039 73.5347 71.2003 71.9716 69.5885C70.4658 68.0047 68.7468 66.6383 66.8641 65.5285C64.6311 64.2374 62.5402 63.6243 60.7335 63.6243C59.6705 63.6025 58.6196 63.8527 57.6804 64.3511L92.8481 44.0511L93.5465 43.6451C93.6439 43.5964 93.7495 43.5517 93.855 43.507L94.1717 43.3934C94.1717 43.3934 94.1717 43.3934 94.192 43.3934L94.5087 43.3C94.6223 43.2675 94.7401 43.2391 94.8578 43.2147L95.1339 43.1619H95.2841C95.4465 43.1376 95.613 43.1173 95.7835 43.1051H95.9906H96.3316C97.3183 43.1171 98.2978 43.2744 99.2386 43.572C100.371 43.9309 101.46 44.4129 102.487 45.0092L102.661 45.1148C108.544 48.5455 113.424 55.5734 114.533 61.7892Z" fill="#B6B6B6"/>
<g opacity="0.3">
<path opacity="0.3" d="M114.533 61.7892L112.194 63.0762L97.9597 70.8674L95.3857 72.2681L77.5947 82.0121C76.4661 80.1039 73.5347 71.2003 71.9716 69.5885C70.4658 68.0047 68.7468 66.6383 66.8642 65.5285C64.6312 64.2374 62.5403 63.6243 60.7336 63.6243C59.6706 63.6025 58.6196 63.8527 57.6805 64.3511L92.8482 44.0511L93.5465 43.6451C93.6439 43.5964 93.7495 43.5517 93.855 43.507L94.1717 43.3934C94.1717 43.3934 94.1717 43.3934 94.192 43.3934L94.5087 43.3C94.6224 43.2675 94.7401 43.2391 94.8579 43.2147L95.1339 43.1619H95.2842C95.4466 43.1376 95.613 43.1173 95.7835 43.1051H95.9906H96.3316C97.3183 43.1171 98.2978 43.2744 99.2386 43.572C100.371 43.9309 101.46 44.4129 102.487 45.0092L102.661 45.1148C108.544 48.5455 113.424 55.5734 114.533 61.7892Z" fill="black"/>
</g>
<path d="M111.65 54.4041C111.683 54.4528 111.715 54.5056 111.743 54.5583C111.727 54.4934 111.699 54.4406 111.65 54.4041Z" fill="#B6B6B6"/>
<path d="M113.538 58.2611C113.978 59.4038 114.311 60.585 114.533 61.7892L112.194 63.0763L97.9597 70.8674L95.3856 72.2681L77.5947 82.0121L79.17 104.054L114.788 83.4737V64.343C114.741 62.257 114.317 60.1967 113.538 58.2611Z" fill="#B6B6B6"/>
<path d="M113.01 56.9862C112.86 56.6533 112.702 56.3163 112.535 55.9834C112.702 56.3163 112.868 56.6533 113.01 56.9862Z" fill="#B6B6B6"/>
<path d="M111.918 54.8101C112.088 55.1186 112.259 55.4272 112.417 55.7398C112.259 55.4434 112.093 55.1349 111.918 54.8101Z" fill="#B6B6B6"/>
<path d="M113.526 58.2246C113.384 57.8592 113.233 57.4978 113.075 57.1365C113.233 57.4978 113.384 57.8592 113.526 58.2246Z" fill="#B6B6B6"/>
<g opacity="0.5">
<path opacity="0.5" d="M111.65 54.4041C111.683 54.4528 111.715 54.5056 111.743 54.5583C111.727 54.4934 111.699 54.4406 111.65 54.4041Z" fill="black"/>
<path opacity="0.5" d="M113.538 58.2611C113.978 59.4038 114.311 60.585 114.533 61.7892L112.194 63.0763L97.9597 70.8674L95.3856 72.2681L77.5947 82.0121L79.17 104.054L114.788 83.4737V64.343C114.741 62.257 114.317 60.1967 113.538 58.2611Z" fill="black"/>
<path opacity="0.5" d="M113.01 56.9862C112.86 56.6533 112.702 56.3163 112.535 55.9834C112.702 56.3163 112.868 56.6533 113.01 56.9862Z" fill="black"/>
<path opacity="0.5" d="M111.918 54.8101C112.088 55.1186 112.259 55.4272 112.417 55.7398C112.259 55.4434 112.093 55.1349 111.918 54.8101Z" fill="black"/>
<path opacity="0.5" d="M113.526 58.2246C113.384 57.8592 113.233 57.4978 113.075 57.1365C113.233 57.4978 113.384 57.8592 113.526 58.2246Z" fill="black"/>
</g>
<path d="M60.7335 66.1496C62.1505 66.1496 63.8394 66.6896 65.6055 67.7167C71.5859 71.1677 76.6406 79.0482 76.6406 84.9271V99.7136L57.0795 88.4187V70.7374C57.0795 66.9453 59.0608 66.1496 60.7335 66.1496ZM60.7335 63.6405C57.0552 63.6405 54.5826 66.1861 54.5826 70.7374V89.864L79.1538 104.074V84.9271C79.1538 78.1388 73.6525 69.4625 66.8682 65.5446C64.6352 64.2576 62.5362 63.6405 60.7335 63.6405Z" fill="#B6B6B6"/>
<path d="M54.5826 89.8641L41.3511 97.1721C40.0403 97.8947 38.9449 98.9526 38.1771 100.238C37.4093 101.522 36.9967 102.988 36.9814 104.485C36.9661 105.982 37.3488 107.456 38.0902 108.756C38.8315 110.056 39.9051 111.136 41.2009 111.886C44.8855 114.011 49.0643 115.13 53.3179 115.13C57.5716 115.13 61.7504 114.011 65.435 111.886L79.17 104.054L54.5826 89.8641Z" fill="#B6B6B6"/>
<path opacity="0.2" d="M54.5826 89.8641L41.3511 97.1721C40.0403 97.8947 38.9449 98.9526 38.1771 100.238C37.4093 101.522 36.9967 102.988 36.9814 104.485C36.9661 105.982 37.3488 107.456 38.0902 108.756C38.8315 110.056 39.9051 111.136 41.2009 111.886C44.8855 114.011 49.0643 115.13 53.3179 115.13C57.5716 115.13 61.7504 114.011 65.435 111.886L79.17 104.054L54.5826 89.8641Z" fill="white"/>
<path d="M87.3509 98.2277L84.5901 99.8192V73.1653L87.3509 71.5697V98.2277Z" fill="#C1C1C1"/>
<path d="M92.5639 73.888L84.5901 78.488V73.1653L92.5639 68.5613V73.888Z" fill="#C1C1C1"/>
<path d="M88.5405 97.2898C88.4918 98.1886 88.2319 99.0632 87.7818 99.8427C87.3318 100.622 86.7043 101.285 85.9502 101.776C84.517 102.588 83.3559 101.934 83.3559 100.282C83.4078 99.3863 83.6697 98.5154 84.1203 97.7396C84.571 96.9638 85.1978 96.3049 85.9502 95.816C87.3793 94.9675 88.5405 95.6374 88.5405 97.2898Z" fill="#B6B6B6"/>
<path opacity="0.2" d="M88.5405 97.2898C88.4918 98.1886 88.2319 99.0632 87.7818 99.8427C87.3318 100.622 86.7043 101.285 85.9502 101.776C84.517 102.588 83.3559 101.934 83.3559 100.282C83.4078 99.3863 83.6697 98.5154 84.1203 97.7396C84.571 96.9638 85.1978 96.3049 85.9502 95.816C87.3793 94.9675 88.5405 95.6374 88.5405 97.2898Z" fill="black"/>
<path d="M89.4012 97.7892C89.3497 98.6845 89.0885 99.5552 88.6385 100.331C88.1886 101.107 87.5625 101.766 86.8109 102.255C85.3818 103.067 84.2206 102.409 84.2206 100.757C84.2703 99.8585 84.5306 98.9842 84.9806 98.2049C85.4305 97.4255 86.0575 96.7629 86.8109 96.2707C88.2441 95.4668 89.4012 96.1367 89.4012 97.7892Z" fill="#B6B6B6"/>
<path d="M147.264 141.694L151.844 144.349C151.844 144.349 149.53 136.964 150.813 129.538C151.296 126.737 152.319 125.344 152.676 124.593C153.034 123.842 155.803 119.214 153.367 117.078C150.931 114.943 145.226 119.189 145.482 130.63C145.608 134.379 146.207 138.096 147.264 141.694Z" fill="#B6B6B6"/>
<path opacity="0.3" d="M147.264 141.694L151.844 144.349C151.844 144.349 149.53 136.964 150.813 129.538C151.296 126.737 152.319 125.344 152.676 124.593C153.034 123.842 155.803 119.214 153.367 117.078C150.931 114.943 145.226 119.189 145.482 130.63C145.608 134.379 146.207 138.096 147.264 141.694Z" fill="black"/>
<path d="M149.408 143.131C149.367 143.13 149.326 143.117 149.292 143.093C149.258 143.069 149.232 143.036 149.217 142.997C149.217 142.949 147.467 138.125 147.557 130.411C147.646 122.697 151.73 118.507 151.771 118.467C151.809 118.428 151.861 118.407 151.915 118.407C151.969 118.407 152.021 118.428 152.059 118.467C152.097 118.505 152.119 118.557 152.119 118.611C152.119 118.665 152.097 118.717 152.059 118.755C152.019 118.796 148.056 122.815 147.967 130.415C147.877 138.016 149.591 142.802 149.591 142.851C149.609 142.902 149.606 142.957 149.584 143.006C149.561 143.055 149.52 143.093 149.469 143.111C149.45 143.122 149.429 143.129 149.408 143.131Z" fill="white"/>
<path d="M150.817 143.769L158.389 148.235C158.389 148.235 161.856 147.723 161.596 144.459C161.336 141.195 159.923 140.423 161.677 138.99C163.431 137.557 163.886 137.463 163.801 136.055C163.715 134.646 162.774 134.025 162.327 133.481C161.88 132.936 160.642 131.755 161.515 130.058C162.388 128.361 163.569 126.725 161.815 125.949C160.764 125.486 159.002 126.067 157.837 127.305C156.671 128.544 155.701 129.441 154.589 129.741C153.476 130.042 151.174 130.05 151.251 131.958C151.328 133.866 151.824 134.524 151.361 135.368C150.496 136.94 146.773 137.8 150.817 143.769Z" fill="#B6B6B6"/>
<path d="M153.902 145.786C153.851 145.787 153.801 145.767 153.763 145.731C153.725 145.696 153.703 145.647 153.699 145.596C153.699 145.482 152.863 134.195 160.707 126.782C160.725 126.759 160.749 126.74 160.775 126.726C160.801 126.713 160.83 126.706 160.859 126.704C160.889 126.703 160.918 126.708 160.946 126.719C160.973 126.73 160.998 126.747 161.018 126.768C161.038 126.789 161.054 126.814 161.064 126.842C161.074 126.87 161.077 126.9 161.075 126.929C161.072 126.958 161.063 126.987 161.049 127.012C161.035 127.038 161.015 127.06 160.991 127.078C153.277 134.353 154.089 145.453 154.089 145.563C154.094 145.617 154.077 145.671 154.042 145.713C154.007 145.755 153.957 145.781 153.902 145.786Z" fill="white"/>
<path d="M155.258 136.107C155.207 136.108 155.158 136.088 155.12 136.054C155.083 136.019 155.06 135.972 155.055 135.921C154.996 135.053 154.761 134.207 154.365 133.432C153.969 132.658 153.421 131.971 152.753 131.414C152.732 131.398 152.714 131.379 152.7 131.356C152.686 131.333 152.676 131.308 152.672 131.281C152.668 131.255 152.669 131.228 152.675 131.202C152.682 131.176 152.693 131.152 152.709 131.13C152.725 131.108 152.744 131.09 152.767 131.076C152.79 131.062 152.815 131.053 152.842 131.049C152.868 131.045 152.895 131.046 152.921 131.052C152.947 131.058 152.971 131.07 152.993 131.085C153.714 131.672 154.307 132.401 154.732 133.228C155.158 134.054 155.407 134.96 155.466 135.888C155.468 135.915 155.465 135.942 155.456 135.968C155.448 135.994 155.434 136.018 155.416 136.038C155.399 136.058 155.377 136.075 155.353 136.087C155.328 136.099 155.302 136.106 155.275 136.107H155.258Z" fill="white"/>
<path d="M154.686 138.04C154.635 138.041 154.585 138.022 154.548 137.987C154.529 137.968 154.514 137.946 154.504 137.921C154.493 137.896 154.488 137.87 154.488 137.843C154.488 137.816 154.493 137.79 154.504 137.765C154.514 137.74 154.529 137.718 154.548 137.699C154.629 137.606 156.602 135.474 161.166 136.099C161.22 136.107 161.268 136.136 161.302 136.179C161.335 136.222 161.35 136.277 161.344 136.331C161.336 136.384 161.308 136.433 161.264 136.465C161.221 136.498 161.167 136.512 161.113 136.505C156.761 135.908 154.873 137.951 154.852 137.971C154.832 137.994 154.806 138.013 154.777 138.025C154.748 138.036 154.717 138.042 154.686 138.04Z" fill="white"/>
<path d="M146.184 18.5257L149.124 20.1984V19.1591C149.124 19.086 149.124 19.0089 149.124 18.9398C149.124 18.8708 149.124 18.7977 149.124 18.7287V18.7044C149.229 17.324 150.273 16.7962 151.56 17.531C152.137 17.8867 152.631 18.3615 153.009 18.9236C153.297 17.0519 154.824 16.3739 156.663 17.4417C158.709 18.6231 160.37 21.5179 160.37 23.8727V26.1017C160.371 26.2782 160.419 26.4514 160.507 26.6044C160.595 26.7574 160.721 26.8849 160.873 26.9746L162.599 27.9855C162.971 28.2076 163.279 28.5228 163.493 28.9001C163.707 29.2774 163.818 29.7038 163.817 30.1373C163.816 30.3174 163.768 30.4941 163.677 30.6497C163.586 30.8054 163.457 30.9346 163.301 31.0245C163.145 31.1145 162.968 31.162 162.788 31.1623C162.608 31.1626 162.43 31.1158 162.274 31.0264L146.229 21.7453C145.802 21.4983 145.448 21.143 145.202 20.7153C144.956 20.2876 144.827 19.8026 144.828 19.3093C144.83 19.1512 144.873 18.9962 144.952 18.8596C145.032 18.723 145.146 18.6096 145.283 18.5305C145.42 18.4514 145.575 18.4093 145.733 18.4085C145.891 18.4077 146.047 18.4481 146.184 18.5257Z" fill="#A2A2A2"/>
<path d="M158.925 37.222L161.097 38.44V37.6889C161.097 37.6321 161.097 37.5793 161.097 37.5265C161.097 37.4737 161.097 37.421 161.097 37.3682C161.174 36.3491 161.945 35.9594 162.887 36.5034C163.314 36.7645 163.68 37.1149 163.959 37.5306C164.17 36.1461 165.299 35.6467 166.667 36.4344C167.465 36.9571 168.13 37.66 168.606 38.4865C169.083 39.313 169.359 40.24 169.412 41.1927V42.8411C169.412 42.9715 169.446 43.0996 169.511 43.2128C169.576 43.326 169.669 43.4203 169.781 43.4866L171.06 44.2336C171.337 44.3968 171.567 44.6295 171.726 44.9086C171.886 45.1878 171.969 45.5037 171.969 45.8252C171.969 45.9581 171.934 46.0888 171.868 46.2039C171.801 46.3191 171.706 46.4148 171.59 46.4814C171.475 46.548 171.345 46.5832 171.212 46.5834C171.079 46.5837 170.948 46.549 170.833 46.4829L158.957 39.6012C158.644 39.4178 158.385 39.1555 158.206 38.8406C158.026 38.5257 157.933 38.1692 157.934 37.8067C157.935 37.6907 157.965 37.577 158.023 37.4765C158.081 37.3759 158.164 37.2921 158.263 37.2332C158.363 37.1743 158.477 37.1423 158.593 37.1403C158.708 37.1384 158.823 37.1665 158.925 37.222Z" fill="#A2A2A2"/>
</svg>
