<svg width="30" height="30" viewBox="0 0 30 30" fill="none" xmlns="http://www.w3.org/2000/svg">
<g clip-path="url(#clip0)">
<path d="M28.2134 12.3244L4.00866 2.28081C2.98895 1.85765 1.83694 2.0438 1.00227 2.76638C0.167605 3.48908 -0.181496 4.60259 0.0913163 5.67234L2.24575 14.1211H12.7941C13.2795 14.1211 13.6731 14.5146 13.6731 15.0001C13.6731 15.4854 13.2796 15.879 12.7941 15.879H2.24575L0.0913163 24.3277C-0.181496 25.3975 0.167547 26.511 1.00227 27.2337C1.83864 27.9577 2.99077 28.1416 4.00872 27.7192L28.2134 17.6757C29.3155 17.2185 30 16.1932 30 15.0001C30 13.8069 29.3155 12.7816 28.2134 12.3244Z" fill="#E0402A"/>
</g>
<defs>
<clipPath id="clip0">
<rect width="30" height="30" fill="white"/>
</clipPath>
</defs>
</svg>
