<svg width="50" height="50" viewBox="0 0 50 50" fill="none" xmlns="http://www.w3.org/2000/svg">
<rect opacity="0.1" width="50" height="50" rx="10" fill="#4FAAA6"/>
<g filter="url(#filter0_bii)">
<rect width="50" height="50" rx="10" fill="white" fill-opacity="0.1"/>
</g>
<path d="M36.3808 20.5528C35.5584 19.7304 34.2202 19.7304 33.3975 20.553C33.1444 20.8063 31.5289 22.4231 31.2821 22.6702V17.0981C31.2821 16.5347 31.0627 16.005 30.6642 15.6066L28.6756 13.6178C28.2772 13.2194 27.7474 13 27.184 13H15.1102C13.9471 13 13.0009 13.9463 13.0009 15.1094V34.8906C13.0009 36.0537 13.9471 37 15.1102 37H29.1727C30.3358 37 31.2821 36.0537 31.2821 34.8906V28.639L36.3808 23.536C37.2052 22.7116 37.2054 21.3773 36.3808 20.5528ZM27.0634 14.4062C27.1962 14.4062 27.4522 14.3832 27.6812 14.6122L29.6699 16.6009C29.8931 16.8241 29.8759 17.0687 29.8759 17.2188H27.0634V14.4062ZM29.8759 34.8906C29.8759 35.2783 29.5605 35.5938 29.1727 35.5938H15.1102C14.7225 35.5938 14.4071 35.2783 14.4071 34.8906V15.1094C14.4071 14.7217 14.7225 14.4062 15.1102 14.4062H25.6571V17.9219C25.6571 18.3102 25.9719 18.625 26.3602 18.625H29.8759V24.0776C29.8759 24.0776 27.8014 26.1538 27.8014 26.1539L26.8075 27.1478C26.7303 27.225 26.6721 27.3191 26.6376 27.4226L25.6432 30.4058C25.5589 30.6584 25.6247 30.937 25.8131 31.1253C26.0016 31.3139 26.2803 31.3793 26.5326 31.2952L29.5157 30.3008C29.6193 30.2663 29.7134 30.2081 29.7905 30.1309L29.8759 30.0456V34.8906ZM28.299 27.645L29.2933 28.6394L28.9135 29.0192L27.422 29.5164L27.9191 28.0248L28.299 27.645ZM30.2875 27.6448L29.2931 26.6504C29.8227 26.1205 32.1743 23.7668 32.6731 23.2676L33.6674 24.262L30.2875 27.6448ZM35.3862 22.5418L34.6614 23.2672L33.6671 22.2729L34.3921 21.5472C34.6664 21.273 35.1124 21.2731 35.3865 21.5472C35.6606 21.8214 35.6621 22.2659 35.3862 22.5418Z" fill="#4FAAA6"/>
<path d="M26.3602 20.0312H16.5165C16.1282 20.0312 15.8134 20.3461 15.8134 20.7344C15.8134 21.1227 16.1282 21.4375 16.5165 21.4375H26.3602C26.7485 21.4375 27.0634 21.1227 27.0634 20.7344C27.0634 20.3461 26.7485 20.0312 26.3602 20.0312Z" fill="#4FAAA6"/>
<path d="M23.5477 22.8438H16.5165C16.1282 22.8438 15.8134 23.1586 15.8134 23.5469C15.8134 23.9352 16.1282 24.25 16.5165 24.25H23.5477C23.936 24.25 24.2509 23.9352 24.2509 23.5469C24.2509 23.1586 23.936 22.8438 23.5477 22.8438Z" fill="#4FAAA6"/>
<path d="M23.5477 25.6562H16.5165C16.1282 25.6562 15.8134 25.9711 15.8134 26.3594C15.8134 26.7477 16.1282 27.0625 16.5165 27.0625H23.5477C23.936 27.0625 24.2509 26.7477 24.2509 26.3594C24.2509 25.9711 23.936 25.6562 23.5477 25.6562Z" fill="#4FAAA6"/>
<path d="M23.5477 28.4688H16.5165C16.1282 28.4688 15.8134 28.7836 15.8134 29.1719C15.8134 29.5602 16.1282 29.875 16.5165 29.875H23.5477C23.936 29.875 24.2509 29.5602 24.2509 29.1719C24.2509 28.7836 23.936 28.4688 23.5477 28.4688Z" fill="#4FAAA6"/>
<path d="M26.3602 32.7812H22.1415C21.7532 32.7812 21.4384 33.0961 21.4384 33.4844C21.4384 33.8727 21.7532 34.1875 22.1415 34.1875H26.3602C26.7485 34.1875 27.0634 33.8727 27.0634 33.4844C27.0634 33.0961 26.7485 32.7812 26.3602 32.7812Z" fill="#4FAAA6"/>
<defs>
<filter id="filter0_bii" x="-6.66667" y="-6.66667" width="63.3333" height="63.3333" filterUnits="userSpaceOnUse" color-interpolation-filters="sRGB">
<feFlood flood-opacity="0" result="BackgroundImageFix"/>
<feGaussianBlur in="BackgroundImage" stdDeviation="3.33333"/>
<feComposite in2="SourceAlpha" operator="in" result="effect1_backgroundBlur"/>
<feBlend mode="normal" in="SourceGraphic" in2="effect1_backgroundBlur" result="shape"/>
<feColorMatrix in="SourceAlpha" type="matrix" values="0 0 0 0 0 0 0 0 0 0 0 0 0 0 0 0 0 0 127 0" result="hardAlpha"/>
<feOffset dx="-0.666667" dy="0.666667"/>
<feGaussianBlur stdDeviation="0.333333"/>
<feComposite in2="hardAlpha" operator="arithmetic" k2="-1" k3="1"/>
<feColorMatrix type="matrix" values="0 0 0 0 1 0 0 0 0 1 0 0 0 0 1 0 0 0 0.4 0"/>
<feBlend mode="normal" in2="shape" result="effect2_innerShadow"/>
<feColorMatrix in="SourceAlpha" type="matrix" values="0 0 0 0 0 0 0 0 0 0 0 0 0 0 0 0 0 0 127 0" result="hardAlpha"/>
<feOffset dx="0.666667" dy="-0.666667"/>
<feGaussianBlur stdDeviation="0.333333"/>
<feComposite in2="hardAlpha" operator="arithmetic" k2="-1" k3="1"/>
<feColorMatrix type="matrix" values="0 0 0 0 0.84 0 0 0 0 0.84 0 0 0 0 0.84 0 0 0 0.4 0"/>
<feBlend mode="normal" in2="effect2_innerShadow" result="effect3_innerShadow"/>
</filter>
</defs>
</svg>
