<svg width="160" height="160" viewBox="0 0 160 160" fill="none" xmlns="http://www.w3.org/2000/svg">
<path d="M80.1503 155.155C117.223 155.155 147.277 137.804 147.277 116.4C147.277 94.9961 117.223 77.6448 80.1503 77.6448C43.0774 77.6448 13.0239 94.9961 13.0239 116.4C13.0239 137.804 43.0774 155.155 80.1503 155.155Z" fill="#D8D8D8"/>
<path d="M69.4721 129.974C78.1744 129.974 85.2289 125.901 85.2289 120.877C85.2289 115.852 78.1744 111.779 69.4721 111.779C60.7699 111.779 53.7153 115.852 53.7153 120.877C53.7153 125.901 60.7699 129.974 69.4721 129.974Z" fill="#C1C1C1"/>
<path d="M96.1858 138.422C106.723 138.422 115.264 133.491 115.264 127.408C115.264 121.325 106.723 116.394 96.1858 116.394C85.6491 116.394 77.1074 121.325 77.1074 127.408C77.1074 133.491 85.6491 138.422 96.1858 138.422Z" fill="#C1C1C1"/>
<path d="M74.8799 117.395C74.8799 116.595 74.3551 115.795 73.2991 115.19C71.1903 113.971 67.7695 113.971 65.6607 115.19C64.6047 115.798 64.0767 116.598 64.0767 117.395V119.862C64.0767 120.662 64.6047 121.462 65.6607 122.07C67.7695 123.286 71.1903 123.286 73.2991 122.07C74.3551 121.459 74.8799 120.662 74.8799 119.862V117.395Z" fill="#263238"/>
<path d="M73.312 117.658C75.4208 118.877 75.4208 120.858 73.312 122.07C71.2032 123.283 67.7824 123.286 65.6736 122.07C63.5648 120.854 63.5616 118.87 65.6736 117.658C67.7856 116.445 71.2032 116.442 73.312 117.658Z" fill="#37474F"/>
<path d="M74.8926 117.395H64.0894V119.862H74.8926V117.395Z" fill="#37474F"/>
<path d="M73.312 115.2C75.4208 116.416 75.4208 118.4 73.312 119.61C71.2032 120.819 67.7824 120.829 65.6736 119.61C63.5648 118.39 63.5616 116.41 65.6736 115.2C67.7856 113.99 71.2032 113.971 73.312 115.2Z" fill="#455A64"/>
<path d="M71.2895 115.75C72.2847 116.323 72.2847 117.254 71.2895 117.827C70.7322 118.11 70.116 118.257 69.4911 118.257C68.8662 118.257 68.2501 118.11 67.6927 117.827C66.7007 117.254 66.7007 116.323 67.6927 115.75C68.2501 115.468 68.8662 115.321 69.4911 115.321C70.116 115.321 70.7322 115.468 71.2895 115.75Z" fill="#263238"/>
<path d="M72.0353 70.2112H66.9473V116.79H72.0353V70.2112Z" fill="#263238"/>
<path d="M90.2697 48.7008V48.6656C90.2217 48.4 90.1641 48.1312 90.0969 47.8624C90.1059 47.8908 90.1134 47.9196 90.1193 47.9488C90.0777 47.7664 90.0297 47.584 89.9785 47.4016C89.9977 47.4688 90.0137 47.536 90.0297 47.6032C89.9785 47.4016 89.9209 47.2032 89.8601 47.0016C89.8889 47.088 89.9177 47.1776 89.9401 47.264C89.9081 47.1488 89.8729 47.0336 89.8377 46.9184L89.7801 46.736V46.7104V46.7296C89.3502 45.4246 88.7839 44.1686 88.0905 42.9824C88.0681 42.9408 88.0457 42.8992 88.0201 42.8576C86.2761 39.8912 83.7481 37.1808 80.9257 35.4976L80.7881 35.4144C79.9788 34.9443 79.1203 34.5644 78.2281 34.2816C77.4866 34.047 76.7146 33.923 75.9369 33.9136H75.6681H75.5049C75.3705 33.9136 75.2393 33.9392 75.1113 33.9584H74.9929L74.7753 34C74.6825 34.0192 74.5897 34.0416 74.5001 34.0672L74.2505 34.1408C74.2505 34.1408 74.2505 34.1408 74.2345 34.1408L73.9849 34.2304C73.9017 34.2656 73.8185 34.3008 73.7417 34.3392L73.1913 34.6592L45.4761 50.6592H45.4537C43.9529 51.5008 43.0441 53.2192 43.0441 55.6608V70.736L32.6153 76.496C31.5821 77.0655 30.7188 77.8993 30.1137 78.9121C29.5085 79.9248 29.1833 81.0801 29.1712 82.2598C29.1592 83.4395 29.4608 84.6012 30.0451 85.6261C30.6295 86.651 31.4756 87.5023 32.4969 88.0928C35.401 89.768 38.6947 90.6498 42.0473 90.6498C45.4 90.6498 48.6936 89.768 51.5977 88.0928L62.4009 82.0128L90.4745 65.792V50.7136C90.4665 50.0379 90.3979 49.3642 90.2697 48.7008Z" fill="#B6B6B6"/>
<path d="M44.9951 69.6896V52.848L62.8255 42.6528L64.4319 58.224L44.9951 69.6896Z" fill="#B6B6B6"/>
<path opacity="0.5" d="M44.9951 69.6896V52.848L62.8255 42.6528L64.4319 58.224L44.9951 69.6896Z" fill="black"/>
<path d="M44.9951 69.6896L64.4319 58.224V76.5504L60.4127 78.592L44.9951 69.6896Z" fill="#B6B6B6"/>
<path opacity="0.3" d="M44.9951 69.6896L64.4319 58.224V76.5504L60.4127 78.592L44.9951 69.6896Z" fill="black"/>
<path d="M90.272 48.7008L88.4288 49.7152L77.2096 55.856L75.1808 56.96L61.1584 64.64C60.2688 63.136 57.9584 56.1184 56.7264 54.848C55.5395 53.5997 54.1847 52.5227 52.7008 51.648C50.9408 50.6304 49.2928 50.1472 47.8688 50.1472C47.031 50.13 46.2026 50.3272 45.4624 50.72L73.1808 34.72L73.7312 34.4C73.808 34.3616 73.8912 34.3264 73.9744 34.2912L74.224 34.2016C74.224 34.2016 74.224 34.2016 74.24 34.2016L74.4896 34.128C74.5792 34.1024 74.672 34.08 74.7648 34.0608L74.9824 34.0192H75.1008C75.2288 34 75.36 33.984 75.4944 33.9744H75.6576H75.9264C76.7041 33.9838 77.4761 34.1078 78.2176 34.3424C79.1098 34.6252 79.9682 35.0051 80.7776 35.4752L80.9152 35.5584C85.552 38.2624 89.3984 43.8016 90.272 48.7008Z" fill="#B6B6B6"/>
<g opacity="0.3">
<path opacity="0.3" d="M90.272 48.7008L88.4288 49.7152L77.2096 55.856L75.1808 56.96L61.1584 64.64C60.2688 63.136 57.9584 56.1184 56.7264 54.848C55.5395 53.5997 54.1847 52.5227 52.7008 51.648C50.9408 50.6304 49.2928 50.1472 47.8688 50.1472C47.031 50.13 46.2026 50.3272 45.4624 50.72L73.1808 34.72L73.7312 34.4C73.808 34.3616 73.8912 34.3264 73.9744 34.2912L74.224 34.2016C74.224 34.2016 74.224 34.2016 74.24 34.2016L74.4896 34.128C74.5792 34.1024 74.672 34.08 74.7648 34.0608L74.9824 34.0192H75.1008C75.2288 34 75.36 33.984 75.4944 33.9744H75.6576H75.9264C76.7041 33.9838 77.4761 34.1078 78.2176 34.3424C79.1098 34.6252 79.9682 35.0051 80.7776 35.4752L80.9152 35.5584C85.552 38.2624 89.3984 43.8016 90.272 48.7008Z" fill="black"/>
</g>
<path d="M88 42.88C88.0258 42.9186 88.0515 42.9605 88.0741 43.0024C88.0612 42.9508 88.0386 42.909 88 42.88Z" fill="#B6B6B6"/>
<path d="M89.4878 45.9199C89.8346 46.8206 90.0971 47.7515 90.2718 48.7007L88.4286 49.7151L77.2094 55.8559L75.1806 56.9599L61.1582 64.6399L62.3998 82.0127L90.4734 65.7919V50.7135C90.4359 49.0694 90.102 47.4455 89.4878 45.9199Z" fill="#B6B6B6"/>
<path d="M89.0717 44.9152C88.9533 44.6528 88.8285 44.3872 88.6973 44.1248C88.8285 44.3872 88.9597 44.6528 89.0717 44.9152Z" fill="#B6B6B6"/>
<path d="M88.2109 43.2C88.3453 43.4432 88.4797 43.6864 88.6045 43.9328C88.4797 43.6992 88.3485 43.456 88.2109 43.2Z" fill="#B6B6B6"/>
<path d="M89.4782 45.8912C89.3662 45.6032 89.2478 45.3184 89.123 45.0336C89.2478 45.3184 89.3662 45.6032 89.4782 45.8912Z" fill="#B6B6B6"/>
<g opacity="0.5">
<path opacity="0.5" d="M88 42.88C88.0258 42.9186 88.0515 42.9605 88.0741 43.0024C88.0612 42.9508 88.0386 42.909 88 42.88Z" fill="black"/>
<path opacity="0.5" d="M89.4878 45.92C89.8346 46.8207 90.0971 47.7517 90.2718 48.7008L88.4286 49.7152L77.2094 55.856L75.1806 56.96L61.1582 64.64L62.3998 82.0129L90.4734 65.792V50.7136C90.4359 49.0695 90.102 47.4456 89.4878 45.92Z" fill="black"/>
<path opacity="0.5" d="M89.0717 44.9152C88.9533 44.6528 88.8285 44.3872 88.6973 44.1248C88.8285 44.3872 88.9597 44.6528 89.0717 44.9152Z" fill="black"/>
<path opacity="0.5" d="M88.2109 43.2C88.3453 43.4431 88.4797 43.6863 88.6045 43.9327C88.4797 43.6991 88.3485 43.4559 88.2109 43.2Z" fill="black"/>
<path opacity="0.5" d="M89.4782 45.8912C89.3662 45.6032 89.2478 45.3184 89.123 45.0336C89.2478 45.3184 89.3662 45.6032 89.4782 45.8912Z" fill="black"/>
</g>
<path d="M47.8685 52.1375C48.9853 52.1375 50.3165 52.5631 51.7085 53.3727C56.4221 56.0927 60.4061 62.3039 60.4061 66.9375V78.5919L44.9885 69.6895V55.7535C44.9885 52.7647 46.5501 52.1375 47.8685 52.1375ZM47.8685 50.1599C44.9693 50.1599 43.0205 52.1663 43.0205 55.7535V70.8287L62.3869 82.0287V66.9375C62.3869 61.5871 58.0509 54.7487 52.7037 51.6607C50.9437 50.6463 49.2893 50.1599 47.8685 50.1599Z" fill="#B6B6B6"/>
<path d="M43.0207 70.8287L32.5919 76.5887C31.5587 77.1583 30.6954 77.9921 30.0902 79.0048C29.4851 80.0176 29.1599 81.1729 29.1478 82.3526C29.1358 83.5323 29.4373 84.694 30.0217 85.7189C30.606 86.7438 31.4522 87.595 32.4735 88.1855C35.3776 89.8607 38.6713 90.7426 42.0239 90.7426C45.3765 90.7426 48.6702 89.8607 51.5743 88.1855L62.3999 82.0127L43.0207 70.8287Z" fill="#B6B6B6"/>
<path opacity="0.2" d="M43.0207 70.8287L32.5919 76.5887C31.5587 77.1583 30.6954 77.9921 30.0902 79.0048C29.4851 80.0176 29.1599 81.1729 29.1478 82.3526C29.1358 83.5323 29.4373 84.694 30.0217 85.7189C30.606 86.7438 31.4522 87.595 32.4735 88.1855C35.3776 89.8607 38.6713 90.7426 42.0239 90.7426C45.3765 90.7426 48.6702 89.8607 51.5743 88.1855L62.3999 82.0127L43.0207 70.8287Z" fill="white"/>
<path d="M68.8479 77.4207L66.6719 78.6751V57.6671L68.8479 56.4095V77.4207Z" fill="#C1C1C1"/>
<path d="M72.9567 58.2367L66.6719 61.8623V57.6671L72.9567 54.0383V58.2367Z" fill="#C1C1C1"/>
<path d="M69.7856 76.6816C69.7473 77.39 69.5424 78.0794 69.1877 78.6938C68.8329 79.3081 68.3383 79.8302 67.744 80.2176C66.6144 80.8576 65.6992 80.3424 65.6992 79.04C65.7401 78.334 65.9465 77.6476 66.3018 77.0361C66.657 76.4246 67.151 75.9053 67.744 75.52C68.8704 74.8512 69.7856 75.3792 69.7856 76.6816Z" fill="#B6B6B6"/>
<path opacity="0.2" d="M69.7856 76.6816C69.7473 77.39 69.5424 78.0794 69.1877 78.6938C68.8329 79.3081 68.3383 79.8302 67.744 80.2176C66.6144 80.8576 65.6992 80.3424 65.6992 79.04C65.7401 78.334 65.9465 77.6476 66.3018 77.0361C66.657 76.4246 67.151 75.9053 67.744 75.52C68.8704 74.8512 69.7856 75.3792 69.7856 76.6816Z" fill="black"/>
<path d="M70.4641 77.0752C70.4235 77.7809 70.2176 78.4671 69.8629 79.0786C69.5083 79.69 69.0149 80.2095 68.4225 80.5952C67.2961 81.2352 66.3809 80.7168 66.3809 79.4144C66.42 78.7061 66.6251 78.0171 66.9798 77.4028C67.3345 76.7885 67.8287 76.2663 68.4225 75.8784C69.5521 75.2448 70.4641 75.7728 70.4641 77.0752Z" fill="#B6B6B6"/>
<path d="M116.071 111.68L119.68 113.773C119.68 113.773 117.856 107.952 118.867 102.099C119.248 99.8913 120.055 98.7937 120.336 98.2017C120.618 97.6097 122.8 93.9617 120.88 92.2785C118.96 90.5953 114.464 93.9425 114.666 102.96C114.765 105.914 115.237 108.844 116.071 111.68Z" fill="#B6B6B6"/>
<path opacity="0.3" d="M116.071 111.68L119.68 113.773C119.68 113.773 117.856 107.952 118.867 102.099C119.248 99.8913 120.055 98.7937 120.336 98.2017C120.618 97.6097 122.8 93.9617 120.88 92.2785C118.96 90.5953 114.464 93.9425 114.666 102.96C114.765 105.914 115.237 108.844 116.071 111.68Z" fill="black"/>
<path d="M117.76 112.813C117.727 112.812 117.696 112.802 117.669 112.783C117.642 112.764 117.622 112.738 117.61 112.707C117.61 112.669 116.231 108.867 116.301 102.787C116.371 96.7073 119.591 93.4049 119.623 93.3729C119.653 93.3427 119.694 93.3258 119.736 93.3258C119.779 93.3258 119.82 93.3427 119.85 93.3729C119.88 93.403 119.897 93.4439 119.897 93.4865C119.897 93.5291 119.88 93.5699 119.85 93.6001C119.818 93.6321 116.695 96.8001 116.624 102.79C116.554 108.781 117.904 112.554 117.904 112.592C117.919 112.632 117.917 112.676 117.899 112.714C117.881 112.753 117.848 112.782 117.808 112.797C117.793 112.805 117.777 112.811 117.76 112.813Z" fill="white"/>
<path d="M118.871 113.315L124.839 116.835C124.839 116.835 127.572 116.432 127.367 113.859C127.162 111.286 126.048 110.678 127.431 109.549C128.813 108.419 129.172 108.346 129.104 107.235C129.037 106.125 128.295 105.635 127.943 105.206C127.591 104.778 126.615 103.846 127.303 102.509C127.991 101.171 128.922 99.8816 127.54 99.2704C126.711 98.9056 125.322 99.3632 124.404 100.339C123.485 101.315 122.72 102.022 121.844 102.259C120.967 102.496 119.152 102.502 119.213 104.006C119.274 105.51 119.664 106.029 119.3 106.694C118.618 107.933 115.684 108.611 118.871 113.315Z" fill="#B6B6B6"/>
<path d="M121.302 114.906C121.262 114.906 121.222 114.89 121.193 114.862C121.163 114.834 121.145 114.796 121.142 114.755C121.142 114.666 120.483 105.77 126.666 99.9264C126.68 99.9083 126.698 99.8935 126.719 99.883C126.74 99.8725 126.763 99.8665 126.786 99.8655C126.809 99.8645 126.832 99.8684 126.854 99.8771C126.875 99.8857 126.895 99.8988 126.911 99.9156C126.927 99.9324 126.939 99.9524 126.947 99.9743C126.955 99.9962 126.957 100.019 126.956 100.043C126.954 100.066 126.947 100.088 126.935 100.108C126.924 100.129 126.908 100.146 126.89 100.16C120.81 105.894 121.45 114.643 121.45 114.73C121.453 114.772 121.44 114.815 121.412 114.848C121.385 114.881 121.345 114.902 121.302 114.906Z" fill="white"/>
<path d="M122.371 107.277C122.331 107.277 122.292 107.262 122.263 107.235C122.233 107.207 122.215 107.17 122.211 107.13C122.164 106.446 121.979 105.779 121.667 105.168C121.355 104.558 120.923 104.017 120.397 103.578C120.38 103.565 120.366 103.55 120.355 103.532C120.344 103.514 120.336 103.494 120.333 103.473C120.33 103.452 120.331 103.431 120.336 103.41C120.34 103.39 120.349 103.371 120.362 103.354C120.374 103.337 120.39 103.322 120.408 103.311C120.426 103.3 120.446 103.293 120.466 103.29C120.487 103.286 120.509 103.287 120.529 103.292C120.549 103.297 120.569 103.306 120.586 103.318C121.154 103.781 121.621 104.356 121.957 105.007C122.292 105.659 122.489 106.373 122.535 107.104C122.536 107.125 122.534 107.147 122.527 107.167C122.52 107.187 122.51 107.206 122.496 107.222C122.482 107.238 122.465 107.251 122.446 107.261C122.426 107.27 122.405 107.276 122.384 107.277H122.371Z" fill="white"/>
<path d="M121.92 108.8C121.88 108.801 121.841 108.786 121.811 108.758C121.796 108.744 121.785 108.726 121.776 108.706C121.768 108.687 121.764 108.666 121.764 108.645C121.764 108.624 121.768 108.603 121.776 108.583C121.785 108.564 121.796 108.546 121.811 108.531C121.875 108.458 123.431 106.778 127.027 107.27C127.07 107.277 127.108 107.299 127.135 107.333C127.161 107.367 127.173 107.41 127.168 107.453C127.162 107.495 127.139 107.533 127.105 107.559C127.071 107.585 127.028 107.596 126.986 107.59C123.555 107.12 122.067 108.73 122.051 108.746C122.035 108.764 122.015 108.778 121.992 108.788C121.969 108.797 121.945 108.801 121.92 108.8Z" fill="white"/>
<path d="M115.219 14.6016L117.536 15.92V15.1008C117.536 15.0432 117.536 14.9824 117.536 14.928C117.536 14.8736 117.536 14.816 117.536 14.7616V14.7424C117.619 13.6544 118.442 13.2384 119.456 13.8176C119.911 14.0979 120.3 14.4721 120.598 14.9152C120.826 13.44 122.029 12.9056 123.478 13.7472C125.091 14.6784 126.4 16.96 126.4 18.816V20.5728C126.401 20.7119 126.438 20.8484 126.508 20.969C126.577 21.0896 126.677 21.1901 126.797 21.2608L128.157 22.0576C128.45 22.2326 128.693 22.481 128.861 22.7784C129.03 23.0758 129.118 23.4119 129.117 23.7536C129.116 23.8955 129.078 24.0348 129.007 24.1574C128.935 24.2801 128.833 24.382 128.71 24.4529C128.587 24.5237 128.447 24.5612 128.306 24.5614C128.164 24.5617 128.024 24.5248 127.901 24.4544L115.254 17.1392C114.918 16.9445 114.639 16.6644 114.445 16.3273C114.251 15.9903 114.149 15.608 114.15 15.2192C114.152 15.0945 114.185 14.9724 114.248 14.8647C114.311 14.7571 114.401 14.6677 114.509 14.6053C114.616 14.543 114.739 14.5098 114.863 14.5092C114.988 14.5085 115.111 14.5404 115.219 14.6016Z" fill="#A2A2A2"/>
<path d="M125.261 29.3375L126.973 30.2975V29.7055C126.973 29.6607 126.973 29.6191 126.973 29.5775C126.973 29.5359 126.973 29.4943 126.973 29.4527C127.034 28.6495 127.642 28.3423 128.384 28.7711C128.721 28.9769 129.009 29.2531 129.229 29.5807C129.395 28.4895 130.285 28.0959 131.363 28.7167C131.992 29.1287 132.516 29.6827 132.892 30.3342C133.267 30.9856 133.485 31.7162 133.526 32.4671V33.7663C133.527 33.8691 133.554 33.9701 133.605 34.0593C133.656 34.1485 133.729 34.2229 133.818 34.2751L134.826 34.8639C135.044 34.9926 135.225 35.176 135.351 35.396C135.476 35.616 135.542 35.865 135.542 36.1183C135.542 36.2232 135.515 36.3261 135.462 36.4169C135.41 36.5076 135.334 36.583 135.244 36.6355C135.153 36.688 135.05 36.7158 134.945 36.716C134.84 36.7162 134.737 36.6889 134.646 36.6367L125.286 31.2127C125.04 31.0682 124.836 30.8615 124.694 30.6133C124.553 30.3651 124.479 30.0841 124.48 29.7983C124.48 29.707 124.505 29.6173 124.55 29.5381C124.596 29.4589 124.661 29.3928 124.74 29.3464C124.818 29.2999 124.908 29.2747 124.999 29.2732C125.09 29.2716 125.181 29.2938 125.261 29.3375Z" fill="#A2A2A2"/>
</svg>
