<svg width="20" height="20" viewBox="0 0 20 20" fill="none" xmlns="http://www.w3.org/2000/svg">
<g clip-path="url(#clip0)">
<path d="M10.2505 20H9.71146C8.4787 20 7.33978 19.5699 6.50497 18.7891C5.63522 17.9755 5.15625 16.8298 5.15625 15.5629L5.16739 4.32388C5.1738 1.81656 6.64154 0 8.6586 0H8.66699L8.88611 0.000762937C9.91287 0.00335693 10.8301 0.479584 11.468 1.34186C12.0485 2.12631 12.3665 3.19153 12.3636 4.34128L12.337 14.9295C12.3352 15.6165 12.1248 16.2617 11.7442 16.7465C11.3257 17.2798 10.7439 17.5732 10.1053 17.5732C10.1036 17.5732 10.1018 17.5732 10.1001 17.5732C9.47372 17.5716 8.85574 17.278 8.40424 16.7674C7.95868 16.2637 7.71439 15.6068 7.71606 14.9179L7.73727 6.45493C7.73819 6.12564 8.00537 5.85938 8.3345 5.85938H8.33603C8.66577 5.86014 8.9325 6.12823 8.93158 6.45798L8.91037 14.921C8.90945 15.3171 9.04739 15.6918 9.29886 15.9763C9.52454 16.2314 9.81766 16.3782 10.103 16.3788H10.1051C10.4434 16.3788 10.6723 16.178 10.8047 16.0092C11.0216 15.7329 11.1415 15.3484 11.1426 14.9265L11.1693 4.33838C11.1714 3.4436 10.9366 2.63168 10.508 2.05231C10.2194 1.66245 9.70322 1.1972 8.88245 1.19522L8.66348 1.19431C8.66165 1.19431 8.65982 1.19431 8.65799 1.19431C7.84088 1.19431 7.32422 1.65573 7.03445 2.0433C6.60294 2.62054 6.36398 3.43124 6.36185 4.32602L6.35056 15.5635C6.35056 17.4419 7.76413 18.8057 9.71146 18.8057H10.2505C12.198 18.8057 13.6113 17.4419 13.6113 15.5629V6.18851C13.6113 5.85876 13.8788 5.59128 14.2085 5.59128C14.5383 5.59128 14.8058 5.85876 14.8058 6.18851V15.5629C14.8058 16.8298 14.3268 17.9755 13.4573 18.7891C12.6224 19.5699 11.4836 20 10.2505 20Z" fill="#8E8E93"/>
</g>
<defs>
<clipPath id="clip0">
<rect width="20" height="20" fill="white"/>
</clipPath>
</defs>
</svg>
