<svg width="24" height="25" viewBox="0 0 24 25" fill="none" xmlns="http://www.w3.org/2000/svg">
<path d="M8.25 5.89062C7.84 5.89062 7.5 5.55062 7.5 5.14062V2.14062C7.5 1.73063 7.84 1.39062 8.25 1.39062C8.66 1.39062 9 1.73063 9 2.14062V5.14062C9 5.55062 8.66 5.89062 8.25 5.89062Z" fill="#EE493D"/>
<path d="M15.75 5.89062C15.34 5.89062 15 5.55062 15 5.14062V2.14062C15 1.73063 15.34 1.39062 15.75 1.39062C16.16 1.39062 16.5 1.73063 16.5 2.14062V5.14062C16.5 5.55062 16.16 5.89062 15.75 5.89062Z" fill="#EE493D"/>
<path d="M12 14.2306C12.52 14.2306 12.9 13.9206 12.9 13.4306C12.9 12.9306 12.52 12.6406 12 12.6406C11.48 12.6406 11.1 12.9306 11.1 13.4306C11.1 13.9206 11.48 14.2306 12 14.2306Z" fill="#EE493D"/>
<path d="M12 17.1406C12.6296 17.1406 13.14 16.7242 13.14 16.2106C13.14 15.697 12.6296 15.2806 12 15.2806C11.3704 15.2806 10.86 15.697 10.86 16.2106C10.86 16.7242 11.3704 17.1406 12 17.1406Z" fill="#EE493D"/>
<path d="M19.57 4.64062C18.91 4.15062 17.96 4.62062 17.96 5.45062V5.55062C17.96 6.72062 17.12 7.80063 15.95 7.92063C14.6 8.06063 13.46 7.00063 13.46 5.68062V4.64062C13.46 4.09062 13.01 3.64062 12.46 3.64062H11.54C10.99 3.64062 10.54 4.09062 10.54 4.64062V5.68062C10.54 6.47062 10.13 7.17063 9.51 7.56063C9.42 7.62063 9.32 7.67062 9.22 7.72062C9.13 7.77063 9.03 7.81062 8.92 7.84062C8.8 7.88062 8.67 7.91062 8.53 7.92063C8.37 7.94063 8.21 7.94063 8.05 7.92063C7.91 7.91062 7.78 7.88062 7.66 7.84062C7.56 7.81062 7.46 7.77063 7.36 7.72062C7.26 7.67062 7.16 7.62063 7.07 7.56063C6.44 7.12063 6.04 6.36062 6.04 5.55062V5.45062C6.04 4.68062 5.22 4.22062 4.57 4.55062C4.56 4.56062 4.55 4.56062 4.54 4.57062C4.5 4.59062 4.47 4.61063 4.43 4.64062C4.4 4.67062 4.36 4.69062 4.33 4.72062C4.05 4.94062 3.8 5.19063 3.59 5.46063C3.48 5.58063 3.39 5.71062 3.31 5.84062C3.3 5.85062 3.29 5.86062 3.28 5.88062C3.19 6.01062 3.11 6.16062 3.04 6.30062C3.02 6.32062 3.01 6.33063 3.01 6.35063C2.95 6.47062 2.89 6.59062 2.85 6.72062C2.82 6.77062 2.81 6.81062 2.79 6.86062C2.73 7.01062 2.69 7.16062 2.65 7.31063C2.61 7.45063 2.58 7.60063 2.56 7.75063C2.54 7.86063 2.53 7.97062 2.52 8.09062C2.51 8.23062 2.5 8.37063 2.5 8.51062V17.2706C2.5 19.9606 4.68 22.1406 7.37 22.1406H16.63C19.32 22.1406 21.5 19.9606 21.5 17.2706V8.51062C21.5 6.92062 20.74 5.53062 19.57 4.64062ZM12 18.3906C10.45 18.3906 9.5 17.6206 9.5 16.3806C9.5 15.7006 9.85 15.1106 10.46 14.7606C10.02 14.4506 9.73 13.9906 9.73 13.3606C9.73 12.0606 10.77 11.3906 12 11.3906C13.23 11.3906 14.26 12.0606 14.26 13.3606C14.26 13.9906 13.98 14.4506 13.53 14.7606C14.15 15.1106 14.5 15.7006 14.5 16.3806C14.5 17.6206 13.54 18.3906 12 18.3906Z" fill="#EE493D"/>
</svg>
