<svg width="50" height="50" viewBox="0 0 50 50" fill="none" xmlns="http://www.w3.org/2000/svg">
<circle cx="25" cy="25" r="25" fill="#E0402A"/>
<circle cx="25" cy="25" r="25" fill="#39A45A"/>
<mask id="mask0" mask-type="alpha" maskUnits="userSpaceOnUse" x="0" y="0" width="50" height="50">
<circle cx="25" cy="25" r="25" fill="#F95E5F"/>
</mask>
<g mask="url(#mask0)">
<mask id="mask1" mask-type="alpha" maskUnits="userSpaceOnUse" x="-2" y="3" width="54" height="54">
<circle cx="25" cy="30" r="26.6667" fill="#3D4FA4"/>
</mask>
<g mask="url(#mask1)">
<path d="M24.9445 4.1662C29.523 3.83221 33.5432 7.2834 33.8223 11.9035C34.0457 15.7444 34.269 19.8635 34.2132 21.9231C34.1573 26.3763 29.6905 27.0999 29.6905 27.0999C29.6905 27.0999 30.3047 34.8373 30.2489 36.1175L18.4118 36.6742L17.3509 12.7385C17.1834 8.34103 20.5335 4.55585 24.9445 4.1662Z" fill="#FFB573"/>
<path d="M29.6905 26.9886C29.6905 26.9886 26.8429 27.2113 23.8837 25.3187C23.8837 25.3187 25.2795 28.5472 29.7464 28.1019L29.6905 26.9886Z" fill="#AA6550"/>
<path d="M17.7976 14.2971C17.7418 14.2414 14.7267 13.4064 14.8383 16.4123C14.95 19.4739 17.9651 18.7502 17.9651 18.6389C17.9651 18.5832 17.7976 14.2971 17.7976 14.2971Z" fill="#FFB573"/>
<path d="M16.9601 17.5256C16.9601 17.5256 16.9042 17.5812 16.7926 17.5812C16.6809 17.6369 16.5692 17.6369 16.4017 17.5812C16.0667 17.4699 15.7875 16.9689 15.7317 16.4123C15.7317 16.1339 15.7875 15.8556 15.8434 15.633C15.955 15.4103 16.0667 15.2433 16.2342 15.1877C16.4017 15.132 16.5134 15.2433 16.5692 15.299C16.6251 15.4103 16.5692 15.466 16.6251 15.466C16.6251 15.466 16.6809 15.4103 16.6809 15.299C16.6809 15.2433 16.6251 15.1877 16.5692 15.132C16.5134 15.0763 16.4017 15.0207 16.29 15.0763C16.0667 15.0763 15.8434 15.299 15.7317 15.5773C15.62 15.8 15.5642 16.1339 15.5642 16.4123C15.62 17.0246 15.955 17.5812 16.4017 17.6926C16.6251 17.7482 16.7926 17.6926 16.9042 17.5812C16.9601 17.5812 17.0159 17.5256 16.9601 17.5256Z" fill="#AA6550"/>
<path d="M32.7057 14.6871C32.7057 15.0211 32.4265 15.2994 32.0915 15.3551C31.7565 15.3551 31.4214 15.1324 31.4214 14.7984C31.4214 14.4644 31.7006 14.1861 32.0356 14.1305C32.3706 14.1305 32.6498 14.3531 32.7057 14.6871Z" fill="#263238"/>
<path d="M32.6498 13.4624C32.594 13.518 32.0915 13.184 31.4215 13.184C30.7514 13.184 30.2489 13.518 30.1372 13.4624C30.0814 13.4067 30.1931 13.2954 30.4164 13.1284C30.6398 12.9614 30.9748 12.7944 31.4215 12.7944C31.8681 12.7944 32.2032 12.9614 32.4265 13.1284C32.6498 13.2954 32.7057 13.4067 32.6498 13.4624Z" fill="#263238"/>
<path d="M25.9496 14.687C25.9496 15.021 25.6704 15.2993 25.3354 15.355C25.0004 15.355 24.6654 15.1323 24.6654 14.7983C24.6654 14.4643 24.9445 14.186 25.2796 14.1304C25.6146 14.1304 25.8937 14.353 25.9496 14.687Z" fill="#263238"/>
<path d="M25.8938 13.5737C25.838 13.6294 25.3355 13.2954 24.6654 13.2954C23.9954 13.2954 23.4929 13.6294 23.3812 13.5737C23.3254 13.5181 23.437 13.4067 23.6604 13.2398C23.8837 13.0728 24.2187 12.9058 24.6654 12.9058C25.1121 12.9058 25.4471 13.0728 25.6705 13.2398C25.8938 13.4067 25.9496 13.5737 25.8938 13.5737Z" fill="#263238"/>
<path d="M28.4064 18.6949C28.4064 18.6392 28.8531 18.5835 29.5231 18.4722C29.6906 18.4722 29.8581 18.4165 29.914 18.3052C29.9698 18.1939 29.8581 17.9712 29.8023 17.8042C29.6348 17.3589 29.4673 16.9136 29.2998 16.4683C28.5739 14.5757 28.0714 13.0171 28.1272 12.9614C28.1831 12.9058 28.8531 14.4644 29.5789 16.357C29.7465 16.8023 29.914 17.2476 30.0815 17.6929C30.1373 17.9156 30.249 18.1382 30.1931 18.3609C30.1373 18.4722 30.0256 18.5835 29.914 18.6392C29.8023 18.6949 29.6906 18.6949 29.6348 18.6949C28.8531 18.6949 28.4064 18.6949 28.4064 18.6949Z" fill="#263238"/>
<path d="M26.3963 19.1401C26.508 19.1401 26.508 19.8637 27.1222 20.4204C27.7364 20.977 28.5739 20.8657 28.5739 20.977C28.5739 21.0327 28.4064 21.144 28.0714 21.144C27.7364 21.144 27.2339 21.0327 26.843 20.7544C26.4522 20.4204 26.2847 19.9751 26.2847 19.6967C26.2288 19.3071 26.3405 19.1401 26.3963 19.1401Z" fill="#263238"/>
<path d="M26.0612 10.9016C26.0054 11.0686 25.2795 11.0129 24.4978 11.1242C23.7161 11.1799 23.0461 11.4582 22.9344 11.2912C22.8786 11.2355 22.9903 11.0129 23.2695 10.8459C23.5486 10.6789 23.9395 10.5119 24.442 10.4562C24.9445 10.4006 25.3912 10.4562 25.6704 10.6232C25.9496 10.6789 26.1171 10.8459 26.0612 10.9016Z" fill="#263238"/>
<path d="M32.4265 11.4584C32.3148 11.6254 31.8123 11.4584 31.2539 11.4584C30.6956 11.4584 30.1931 11.5697 30.0814 11.4027C30.0256 11.3471 30.0814 11.1801 30.3047 11.0131C30.5281 10.8461 30.8631 10.7348 31.2539 10.7348C31.6448 10.7348 31.9798 10.9018 32.2031 11.0688C32.3706 11.2358 32.4823 11.4027 32.4265 11.4584Z" fill="#263238"/>
<path d="M17.4625 14.1857C17.4066 14.631 17.4066 15.132 17.4625 15.5773C17.5741 16.0226 17.7975 16.4679 18.2442 16.6906C19.0259 17.0802 19.9751 16.4679 20.3101 15.6886C20.6451 14.9093 20.5334 14.0187 20.4776 13.1281C20.3659 11.9591 20.3101 10.7902 20.5334 9.62122C20.7568 8.45226 21.3151 7.33898 22.2085 6.61534C23.1018 5.8917 24.4419 5.61338 25.5028 6.11436C26.1728 6.44835 26.6195 7.00499 27.2337 7.39464C27.792 7.72863 28.462 7.95129 29.0762 7.83996C29.7462 7.72863 30.3046 7.28331 30.4721 6.67101C30.6396 6.00303 30.3046 5.22373 29.7462 4.77842C29.1879 4.3331 28.462 4.11045 27.792 3.99912C25.8378 3.60947 23.8277 3.72079 21.9851 4.44443C20.1426 5.16807 18.5233 6.55968 17.7975 8.34094C16.9041 10.4005 17.5183 12.0704 17.4066 14.4083" fill="#263238"/>
<path d="M62.9127 34.0021L55.5983 32.2209L50.7964 45.302L37.4517 33.3898C36.0559 32.3322 33.5991 32.2209 31.7007 31.9982C31.6449 31.9982 31.589 31.9982 31.5332 31.9982C30.8073 31.8869 30.4723 31.8312 30.0256 31.7756C26.7872 34.1691 21.3153 34.3361 18.1327 31.8312C18.1327 31.8312 15.7318 32.3879 14.2801 32.6662C9.75739 33.5012 6.51894 36.7854 5.62557 39.8469L11.2649 52.8167L12.3258 65.1185L9.19904 76.14C8.86402 77.2533 9.64572 78.4223 10.8183 78.5336L38.736 78.9789L39.1826 78.7563C39.7968 77.6986 40.1877 76.4184 39.9085 75.2494C38.6801 69.9613 39.5177 54.2083 39.2943 49.4212C44.7662 54.7093 50.7964 59.1624 55.2632 56.3792C59.06 54.0413 62.9127 34.0021 62.9127 34.0021Z" fill="#FBFBFB"/>
<path d="M17.2951 32.6105L17.9093 28.1574L23.9954 30.384L25.7263 33.4455L26.7872 30.1056L30.1373 28.9367L31.589 31.9426L29.1322 35.3938L24.4979 36.2844L17.2951 32.6105Z" fill="#FBFBFB"/>
<path d="M25.838 34.1135C25.838 34.1135 25.7263 34.0579 25.6146 33.9465C25.5029 33.8352 25.2796 33.6125 25.0563 33.3342C24.6096 32.7776 23.9954 31.9426 23.6045 30.8293H23.8279C23.437 31.8869 22.9345 33.0559 22.432 34.3918C22.2087 35.0041 21.9295 35.5608 21.7061 36.1174L21.6503 36.2844L21.4828 36.1731C20.2544 35.0041 19.1935 33.9465 18.4677 33.2229C18.1327 32.8889 17.8535 32.5549 17.5743 32.3323C17.351 32.1096 17.2951 31.9983 17.2951 31.9983C17.2951 31.9983 17.4068 32.1096 17.6302 32.2766C17.9093 32.4992 18.1885 32.7776 18.5794 33.1116C19.3611 33.8352 20.4219 34.8372 21.7061 36.0061L21.4828 36.0618C21.7061 35.5051 21.9295 34.8928 22.2087 34.3362C22.7112 33.0559 23.2137 31.8313 23.6604 30.8293L23.772 30.551L23.8837 30.8293C24.2746 31.9426 24.8329 32.7776 25.2238 33.3342C25.5588 33.7795 25.838 34.1135 25.838 34.1135Z" fill="#263238"/>
<path d="M31.589 31.9426C31.589 31.9426 31.3656 32.3322 30.8631 32.9445C30.3606 33.5012 29.6347 34.3361 28.518 35.0041L28.4064 35.0598L28.3505 34.8928C28.1272 34.3361 27.9038 33.7795 27.6805 33.1672C27.2896 32.2766 26.9546 31.3859 26.7313 30.6066H26.9546C26.7313 31.6086 26.5079 32.4436 26.3404 33.0002C26.1729 33.5568 26.1171 33.9465 26.0613 33.8908C26.0613 33.8908 26.0613 33.5568 26.1729 32.9445C26.2846 32.3322 26.5079 31.4973 26.6755 30.4953L26.7313 30.05L26.8988 30.4953C27.178 31.2746 27.513 32.1096 27.9038 33.0002C28.1272 33.6125 28.3505 34.2248 28.5739 34.7258L28.4064 34.6701C29.4672 34.0578 30.2489 33.2785 30.7514 32.7219C31.254 32.2209 31.5331 31.8869 31.589 31.9426Z" fill="#263238"/>
<path d="M28.0714 79.48C28.0714 79.48 28.0714 79.313 28.1272 79.0346C28.1831 78.7007 28.1831 78.2553 28.2947 77.6987C28.3506 77.1421 28.4064 76.4184 28.4623 75.5835C28.5181 75.1938 28.5181 74.7485 28.5739 74.2475C28.5739 73.8022 28.6298 73.3012 28.6298 72.8002C28.7414 70.7407 28.7414 68.2914 28.6856 65.5082C28.6298 62.7807 28.4623 59.7748 28.2389 56.6019C27.7922 50.3118 27.178 44.6341 26.6755 40.5149C26.4522 38.4553 26.2288 36.8411 26.1172 35.6164C26.0613 35.0598 26.0055 34.6145 25.9497 34.2805C25.8938 34.0022 25.8938 33.8352 25.8938 33.8352C25.8938 33.8352 25.9497 34.0022 26.0055 34.2805C26.0613 34.6145 26.1172 35.0598 26.173 35.6164C26.3405 36.7854 26.5639 38.3997 26.843 40.4592C27.3455 44.5784 28.0156 50.2562 28.4623 56.5462C28.6856 59.7191 28.7973 62.725 28.8531 65.4525C28.9089 68.1801 28.8531 70.685 28.7414 72.7446C28.7414 73.2455 28.6856 73.7465 28.6856 74.2475C28.6298 74.6928 28.6298 75.1381 28.5739 75.5835C28.5181 76.4184 28.4623 77.0864 28.3506 77.6987C28.2947 78.2553 28.1831 78.7007 28.1831 79.0346C28.0714 79.3686 28.0714 79.48 28.0714 79.48Z" fill="#263238"/>
<path d="M23.1578 32.4435L24.5537 33.1671L24.2745 35.4493L22.1528 35.004L23.1578 32.4435Z" fill="#39A45A"/>
<g opacity="0.4">
<g opacity="0.4">
<path opacity="0.4" d="M23.1577 32.4436L24.5535 33.1672L24.2744 35.4494L22.1526 35.0041L23.1577 32.4436Z" fill="black"/>
</g>
</g>
<path d="M26.3403 33.0001L27.4012 32.1095L28.3504 34.5031L26.9545 35.1711L26.3403 33.0001Z" fill="#39A45A"/>
<path d="M24.7768 36.006L24.1626 63.5042L28.7969 68.0687L31.0862 62.0013L26.6194 35.8947L24.7768 36.006Z" fill="#39A45A"/>
<path d="M24.8327 32.2765C25.1678 32.2208 25.6144 32.1652 25.9494 32.0538C26.2845 31.9982 26.6195 32.1652 26.787 32.4435L27.4012 33.5011C27.5128 33.6681 27.5128 33.8351 27.457 34.0021L27.2337 35.2267C27.1778 35.505 26.9545 35.7834 26.6195 35.839L25.2794 36.1173C24.9444 36.173 24.6094 36.006 24.4419 35.7277L23.7719 34.4474C23.6602 34.2248 23.6602 34.0021 23.7719 33.7794L24.2185 32.7218C24.3302 32.4992 24.5536 32.3322 24.8327 32.2765Z" fill="#39A45A"/>
<path d="M26.787 32.6105C26.787 32.6105 26.6753 32.7775 26.452 33.0558C26.2286 33.3341 25.8936 33.6681 25.5586 34.0578C25.2236 34.4474 24.8886 34.7814 24.6094 35.0597C24.3861 35.2824 24.2186 35.4494 24.2186 35.4494C24.2186 35.4494 24.3302 35.2824 24.5536 35.0041C24.7769 34.7257 25.1119 34.3917 25.4469 34.0021C25.782 33.6124 26.117 33.2785 26.3961 33.0001C26.6195 32.7218 26.7312 32.5548 26.787 32.6105Z" fill="#263238"/>
<path d="M25.3911 33.8351C25.3911 33.8351 25.0561 33.6124 24.7769 33.2785C24.4419 32.9445 24.2186 32.6662 24.2186 32.6662C24.2186 32.6662 24.5536 32.8888 24.8328 33.2228C25.1678 33.5568 25.4469 33.8351 25.3911 33.8351Z" fill="#263238"/>
<path d="M26.9545 35.6164C26.8987 35.6164 27.0662 34.8928 27.2895 34.0578C27.3454 33.6125 27.0662 33.2785 26.9545 33.0002C26.787 32.7218 26.787 32.5549 26.787 32.5549C26.787 32.5549 26.8429 32.7218 27.0104 32.9445C27.0662 33.0558 27.1779 33.2228 27.2895 33.3898C27.4012 33.5568 27.457 33.7795 27.4012 34.0578C27.2895 34.5031 27.1779 34.8928 27.122 35.1711C27.0104 35.4494 26.9545 35.6164 26.9545 35.6164Z" fill="#263238"/>
<path d="M22.6553 65.2298C22.6553 65.2298 7.8589 71.7982 6.35135 72.1322C1.382 73.2455 -4.36905 68.514 -2.74982 63.1703C-2.13563 61.1663 5.79299 39.1233 5.79299 39.1233L13.3866 49.5882L10.204 60.2757L18.5793 59.7191L22.6553 65.2298Z" fill="#FBFBFB"/>
<path d="M17.8534 59.7748C17.8534 59.7748 17.63 59.8304 17.295 59.8304C16.8483 59.8861 16.3458 59.8861 15.6758 59.9418C14.2799 60.0531 12.3815 60.1644 10.2039 60.3314H10.0364L10.0923 60.1644C10.2598 59.6078 10.4273 59.0511 10.5948 58.4945C11.3206 55.9896 12.0465 53.763 12.549 52.1488C12.7724 51.3695 12.9957 50.7015 13.1632 50.2005C13.3307 49.7552 13.3865 49.4769 13.4424 49.5325C13.4424 49.5325 13.3865 49.8109 13.2749 50.2562C13.1074 50.7572 12.9399 51.4251 12.7165 52.2044C12.2698 53.8187 11.5998 56.1009 10.8181 58.6058C10.6506 59.1625 10.4831 59.7191 10.3156 60.2758L10.2039 60.1088C12.3815 59.9974 14.3358 59.8861 15.6758 59.8304C16.3458 59.8304 16.8483 59.7748 17.295 59.7748C17.63 59.7748 17.8534 59.7748 17.8534 59.7748Z" fill="#263238"/>
</g>
</g>
</svg>
