<svg width="50" height="50" viewBox="0 0 50 50" fill="none" xmlns="http://www.w3.org/2000/svg">
<circle cx="25" cy="25" r="25" fill="#E0402A"/>
<circle cx="25" cy="25" r="25" fill="#3D4FA4"/>
<mask id="mask0" mask-type="alpha" maskUnits="userSpaceOnUse" x="0" y="0" width="50" height="50">
<circle cx="25" cy="25" r="25" fill="#F95E5F"/>
</mask>
<g mask="url(#mask0)">
<mask id="mask1" mask-type="alpha" maskUnits="userSpaceOnUse" x="-9" y="-5" width="65" height="65">
<circle cx="23.75" cy="27.9167" r="32.0833" fill="#3D4FA4"/>
</mask>
<g mask="url(#mask1)">
<path d="M26.4735 42.7246C29.4789 56.2631 35.8103 72.5173 38.5352 75.1531C41.9814 78.5078 64.9828 84.7778 66.1049 84.8976C68.95 85.2171 74.5601 66.2872 71.5146 65.8479C66.9063 65.1689 50.3966 62.6529 49.3948 61.6146C48.3529 60.5363 41.3403 51.5905 34.1273 41.4865C29.1984 34.5376 24.5901 34.3379 26.4735 42.7246Z" fill="#FFB573"/>
<path d="M67.9073 63.252L60.6542 85.5766C60.6542 85.5766 41.4997 79.9855 38.0535 76.1915C34.5672 72.3975 28.2358 52.9084 26.4326 43.4834C24.5893 34.0584 29.3979 34.298 33.7257 40.2885C38.0936 46.279 48.9131 60.736 49.5142 61.0555C50.1152 61.375 67.9073 63.252 67.9073 63.252Z" fill="white"/>
<path opacity="0.1" d="M50.9978 82.4202C50.7173 82.3004 50.4368 82.2206 50.1563 82.1007C48.5534 81.5017 46.9505 80.9026 45.4278 80.2637C45.2274 80.1838 45.027 80.1039 44.8267 80.024C44.5061 79.9042 44.2256 79.7445 43.905 79.6247C43.7447 79.5448 43.6245 79.5049 43.4642 79.425C43.4242 79.3851 43.344 79.3851 43.3039 79.3451C43.1437 79.2652 42.9834 79.1854 42.8632 79.1454C42.2621 78.8659 41.661 78.5863 41.1401 78.3068C41.0198 78.2269 40.8996 78.187 40.7794 78.1071C39.8177 77.5879 38.9762 77.0288 38.4151 76.5496C38.335 76.4697 38.2949 76.4297 38.2148 76.3499C38.1346 76.27 38.0946 76.2301 38.0545 76.1901C34.5682 72.3961 28.2368 52.9071 26.4336 43.482C26.3935 43.3622 26.3935 43.2824 26.3534 43.1626C26.3534 43.1226 26.3534 43.1226 26.3534 43.0827C26.2332 42.3638 26.113 41.4852 26.0329 40.5267C25.7924 35.8542 28.0365 35.0954 30.7614 37.1721C37.5336 51.8687 47.8722 76.1901 50.9978 82.4202Z" fill="black"/>
<path d="M42.3822 88.412L-4.74258 88.3721C-4.62237 87.4535 8.64151 43.6031 17.6978 36.0951C21.5447 32.9001 28.6375 35.2564 29.5191 35.9752C38.2548 43.084 43.0635 87.8928 42.3822 88.412Z" fill="white"/>
<path d="M14.2918 41.7661C3.99324 54.2263 -7.94825 79.0269 -4.8627 83.6596C-1.4165 88.8114 12.8091 71.9182 12.6488 70.9997C12.5286 70.2808 16.7763 55.1448 20.0221 44.1223C23.2679 33.1398 16.8163 38.651 14.2918 41.7661Z" fill="#FFB573"/>
<path d="M12.7689 70.9997C13.0894 69.4022 18.8999 49.394 20.5028 43.1239C22.1057 36.814 19.9418 35.1366 14.2916 41.2469C8.64143 47.3972 -2.97949 66.3271 -5.14338 76.5109C-7.26721 86.3753 -2.53869 86.8545 3.55227 81.8624C8.56129 77.7889 12.7689 70.9997 12.7689 70.9997Z" fill="white"/>
<path d="M28.6376 44.6814C28.6376 44.6814 19.6213 39.0104 14.8127 40.2085L11.4867 44.7213C11.4867 44.7213 10.2445 45.4402 9.64338 44.6814C8.16071 42.8044 6.8784 37.7724 10.525 33.4991C13.891 29.6253 20.5029 28.4272 26.3134 28.7068C31.8834 28.9464 37.213 31.4624 36.3314 35.2564C35.4899 39.0104 28.6376 44.6814 28.6376 44.6814Z" fill="white"/>
<path opacity="0.1" d="M28.8381 42.9242C28.8381 42.9242 33.9673 37.3331 34.0474 34.6573C34.1276 31.9816 28.4774 30.6237 24.9511 30.3841C19.5013 29.9847 16.0951 31.063 13.811 34.4177C11.4868 37.7724 28.8381 42.9242 28.8381 42.9242Z" fill="black"/>
<path d="M29.1985 42.4049C26.7541 43.5231 21.5848 40.5279 19.2205 37.7323C19.0602 37.5326 18.94 35.1763 18.6194 32.3408C18.4191 30.6236 18.1786 28.7066 17.818 26.9893C17.7378 26.6299 29.2386 27.4286 29.2386 27.4286C29.2386 27.4286 28.918 31.2626 29.5591 34.2977C29.5992 34.5374 29.6793 34.777 29.7996 34.9767C29.7996 35.0166 29.8396 35.0565 29.8396 35.0965C30.3205 36.3744 31.5227 41.3266 29.1985 42.4049Z" fill="#FFB573"/>
<path d="M18.4992 26.9095C19.6212 29.745 22.8671 36.4144 28.7176 35.3761C29.1183 35.2962 29.479 35.2163 29.8396 35.0965C29.8396 35.0566 29.7996 35.0166 29.7996 34.9767C29.7194 34.777 29.6393 34.5374 29.5591 34.2978C28.918 31.2626 29.2386 27.4287 29.2386 27.4287C29.2386 27.4287 20.9436 26.8296 18.4992 26.9095Z" fill="#263238"/>
<path d="M14.3718 13.4508C13.6906 17.4844 17.257 28.467 20.3827 30.6236C24.9108 33.7386 31.5227 33.1795 34.0072 27.9478C36.3714 22.8759 31.4826 8.65843 28.0765 6.78141C23.0274 4.02578 15.3736 7.46033 14.3718 13.4508Z" fill="#FFB573"/>
<path d="M26.3533 18.8423C26.3533 18.8023 26.3132 18.8822 26.3132 18.9222C26.5938 19.641 26.7941 20.5196 26.2331 20.9989C26.2331 20.9989 26.2331 21.0388 26.2732 21.0388C27.0345 20.6394 26.714 19.4813 26.3533 18.8423Z" fill="#263238"/>
<path d="M25.3916 18.323C24.1895 18.6425 24.9509 21.0387 26.0729 20.7192C27.1949 20.4397 26.4335 18.0435 25.3916 18.323Z" fill="#263238"/>
<path d="M30.5209 17.564C30.5209 17.5241 30.601 17.564 30.601 17.604C30.8014 18.3628 31.2021 19.1615 31.9234 19.2014C31.9635 19.2014 31.9635 19.2414 31.9234 19.2414C31.0819 19.4011 30.601 18.2829 30.5209 17.564Z" fill="#263238"/>
<path d="M30.9214 16.5657C32.0835 16.0865 32.925 18.4428 31.8431 18.8821C30.8012 19.3214 29.9597 16.9651 30.9214 16.5657Z" fill="#263238"/>
<path d="M24.1494 17.8437C24.47 17.7239 24.7505 17.5242 25.071 17.3645C25.4317 17.1648 25.7122 17.0849 25.9125 16.7255C26.0328 16.5258 25.9125 16.2063 25.7523 16.0865C25.3515 15.8069 24.8306 15.9268 24.4299 16.1264C23.949 16.3661 23.6685 16.6456 23.4281 17.0849C23.1877 17.5642 23.7086 18.0035 24.1494 17.8437Z" fill="#263238"/>
<path d="M31.4826 14.489C31.122 14.5289 30.8014 14.5289 30.4407 14.5289C30.04 14.5289 29.7194 14.6088 29.3588 14.3692C29.1985 14.2893 29.1184 13.9698 29.1985 13.7701C29.4389 13.3308 29.8797 13.1711 30.3606 13.1311C30.8815 13.0912 31.2823 13.1711 31.723 13.4906C32.1638 13.7701 31.9234 14.4091 31.4826 14.489Z" fill="#263238"/>
<path d="M27.2749 26.1105C27.5153 26.2303 27.7558 26.43 28.0363 26.3501C28.3168 26.2703 28.5572 26.0706 28.7576 25.9108C28.7977 25.9108 28.7977 25.9108 28.7977 25.9508C28.6774 26.3102 28.3569 26.5898 27.9962 26.6696C27.6356 26.7096 27.3951 26.47 27.1948 26.1904C27.1948 26.1505 27.2749 26.1105 27.2749 26.1105Z" fill="#263238"/>
<path d="M27.3552 23.6745C27.9563 24.1937 28.7176 24.3535 29.3989 24.2736C29.7195 24.2337 30.04 24.1538 30.3205 24.034C30.3606 23.994 30.4407 23.994 30.4808 23.9541C30.5209 23.9142 30.561 23.9142 30.6411 23.8742C30.7213 23.8343 30.7613 23.7544 30.7213 23.6745C30.7213 23.6346 30.7213 23.6346 30.6812 23.5947L30.6411 23.5148C30.4808 22.9557 30.1602 22.0771 30.1602 22.0771C30.4007 22.117 31.6028 22.2368 31.5227 21.9573C30.601 19.5211 29.5592 16.8454 28.1166 14.6489C28.0765 14.569 27.9563 14.6489 27.9964 14.7287C28.7978 17.085 30 19.2815 30.8815 21.6378C30.4808 21.5978 29.8797 21.5579 29.5592 21.6378C29.479 21.6777 30.2404 23.2752 30.2805 23.5148C30.2805 23.5148 30.2805 23.5148 30.2805 23.5547C29.3588 23.994 28.5574 23.9142 27.3953 23.5547C27.3552 23.5547 27.3151 23.5947 27.3552 23.6745Z" fill="#263238"/>
<path d="M29.9196 23.8342C29.9196 23.8342 29.6391 24.6728 28.998 25.1521C28.7575 25.3118 28.5171 25.4316 28.1965 25.4716C27.5554 25.5115 27.355 24.9524 27.3149 24.4732C27.2749 24.0738 27.355 23.6744 27.355 23.6744C27.355 23.6744 28.477 24.1537 29.9196 23.8342Z" fill="#263238"/>
<path d="M28.9982 25.1121C28.7578 25.2719 28.5173 25.3917 28.1968 25.4316C27.5556 25.4715 27.3552 24.9124 27.3152 24.4332C27.9964 24.3134 28.7578 24.5131 28.9982 25.1121Z" fill="#FF98B9"/>
<path d="M18.6997 19.4414C19.1805 17.0452 17.3773 13.411 18.3791 12.2528C20.5831 9.7368 26.1531 13.3311 29.6394 12.8918C33.0054 12.4924 33.8469 10.1761 32.8852 7.54029C31.9636 4.86453 29.439 3.34694 25.5921 3.26707C21.5849 3.1872 18.2188 5.22396 16.4556 6.70162C16.4556 6.70162 17.1369 5.22396 16.7762 4.86453C16.4156 4.46517 14.9329 5.98276 14.4921 6.62174C14.0513 7.26073 13.891 8.33902 13.891 8.33902C13.891 8.33902 13.2499 8.21921 12.3282 8.37895C11.4867 8.49876 10.4849 9.2975 10.4448 9.53712C10.4047 9.7368 11.647 9.7368 12.5286 9.69686C12.5286 9.69686 11.2062 12.0132 11.4867 13.8503C11.7672 15.6474 15.6943 23.9143 16.3755 23.9143C17.217 23.8744 18.5394 20.3999 18.6997 19.4414Z" fill="#263238"/>
<path d="M12.8089 9.37732C12.849 9.33738 12.889 9.37732 12.849 9.41726C12.1277 10.216 11.5667 11.1345 11.3663 12.2128C11.1259 13.4908 11.3663 14.7688 11.8071 15.9669C12.6486 18.2832 14.0912 20.28 15.3735 22.3567C15.4136 22.4366 15.2934 22.4765 15.2533 22.4366C13.7306 20.32 12.1677 18.0436 11.4064 15.5276C10.7251 13.4109 10.9255 10.855 12.8089 9.37732Z" fill="#263238"/>
<path d="M18.1787 11.3742C19.1404 11.0947 20.2624 11.0547 21.2642 11.1745C22.266 11.2944 23.1476 11.7736 24.0292 12.133C26.0729 12.9318 28.2769 13.4509 30.4808 13.0516C30.5209 13.0516 30.5209 13.0915 30.4808 13.0915C28.4772 13.6107 26.4335 13.2512 24.5502 12.6123C23.5884 12.2928 22.6668 11.7337 21.665 11.534C20.5429 11.2944 19.3809 11.4541 18.2188 11.5739C18.0585 11.5739 18.0585 11.4142 18.1787 11.3742Z" fill="#263238"/>
<path d="M18.4191 5.46357C19.7014 4.58496 21.1039 3.94597 22.5465 3.50667C23.949 3.06737 25.3916 2.74788 26.8743 2.78781C29.4389 2.86769 31.9234 4.18559 32.8451 6.66166C33.3259 7.8997 33.366 9.33742 32.8451 10.6154C32.805 10.6953 32.6848 10.6553 32.7248 10.5755C33.4461 8.21919 32.7248 5.54344 30.601 4.14566C28.3169 2.62807 25.4317 2.86769 22.9472 3.58655C21.3444 4.02585 19.8617 4.70477 18.4191 5.46357C18.379 5.46357 18.4191 5.5035 18.4191 5.46357Z" fill="#263238"/>
<path d="M25.9528 23.994C24.4301 24.2736 22.8672 23.5148 22.186 22.0771C21.3846 20.3598 22.1459 18.323 23.8691 17.5243C25.5922 16.7256 27.6358 17.4843 28.4373 19.2016C29.2387 20.9189 28.4773 22.9557 26.7542 23.7544C26.4737 23.8742 26.2333 23.9541 25.9528 23.994ZM24.7506 17.684C24.5102 17.724 24.2698 17.8038 24.0293 17.9237C22.5467 18.6026 21.9055 20.3997 22.5867 21.8774C23.268 23.355 25.0712 23.994 26.5539 23.3151C28.0366 22.6362 28.6777 20.839 27.9965 19.3614C27.3954 18.0834 26.0329 17.4444 24.7506 17.684Z" fill="white"/>
<path d="M33.4863 21.5979C32.204 21.8375 30.7614 20.7592 30.2004 19.0419C29.9199 18.1633 29.9199 17.2847 30.1603 16.5259C30.4408 15.7272 30.9217 15.208 31.6029 15.0083C32.2841 14.8086 33.0054 14.9684 33.6866 15.4476C34.3278 15.9269 34.8487 16.6457 35.0892 17.5243C35.6502 19.3215 35.009 21.1586 33.6866 21.5579C33.6466 21.5579 33.5664 21.5579 33.4863 21.5979ZM31.9235 15.3678C31.8834 15.3678 31.8032 15.4077 31.7632 15.4077C31.2422 15.5674 30.8415 16.0067 30.6011 16.6457C30.3607 17.3247 30.4007 18.0834 30.6412 18.8822C31.122 20.4397 32.4444 21.4381 33.5664 21.0787C34.6884 20.7193 35.1693 19.1617 34.6884 17.6042C34.448 16.8454 34.0072 16.1665 33.4462 15.7671C32.9253 15.4077 32.4043 15.2879 31.9235 15.3678Z" fill="white"/>
<path d="M28.4372 19.5611L28.0364 19.3215C28.3971 18.7624 29.3989 17.8039 30.4408 18.4429L30.2003 18.8422C29.2787 18.2831 28.4772 19.5212 28.4372 19.5611Z" fill="white"/>
<path d="M14.0512 25.0324L13.5704 24.9525C13.6104 24.7528 13.9711 22.8758 14.8927 22.3966C15.7743 21.9572 21.8252 20.6793 22.1057 20.5994L22.1859 21.0387C20.4628 21.3981 15.7743 22.4365 15.0931 22.7959C14.492 23.1154 14.1314 24.5132 14.0512 25.0324Z" fill="white"/>
<path d="M18.0183 22.2769C18.0183 22.2769 14.8927 19.042 13.41 20.2002C11.8873 21.3584 14.6122 26.3105 16.6959 26.7498C18.7396 27.1891 19.1804 25.2721 19.1804 25.2721L18.0183 22.2769Z" fill="#FFB573"/>
<path d="M14.2113 21.638C14.1712 21.638 14.1712 21.6779 14.2113 21.6779C15.6539 22.0374 16.5756 23.1556 17.2568 24.3936C16.7759 23.9543 16.1748 23.7546 15.5738 24.3537C15.5337 24.3936 15.5738 24.4336 15.6138 24.4336C16.1348 24.2339 16.5756 24.2738 17.0164 24.6332C17.3369 24.9128 17.5774 25.2722 17.8178 25.5917C17.8979 25.7115 18.0983 25.5917 18.0582 25.4719C18.0582 25.4719 18.0582 25.4719 18.0582 25.432C17.8178 23.7147 16.0947 21.5182 14.2113 21.638Z" fill="#263238"/>
<path d="M28.838 42.9241C28.838 42.9241 20.7033 34.0981 13.0095 34.6972L14.8528 40.1685C14.8528 40.1685 19.3008 39.21 28.6777 44.6414L28.838 42.9241Z" fill="white"/>
<path d="M12.849 40.7275C14.1714 40.2483 15.614 40.2882 16.9765 40.408C18.3389 40.5279 19.7014 40.8873 21.0237 41.3266C22.3461 41.7659 23.6284 42.325 24.8707 42.9241L26.714 43.8825L28.5172 44.9209L28.7176 45.0407L28.8779 44.9209C30.1201 43.9225 31.2822 42.8042 32.3642 41.6461C32.9252 41.047 33.4461 40.448 33.927 39.809C34.4078 39.17 34.8486 38.4911 35.1692 37.7722C34.2876 39.0901 33.2057 40.2483 32.0436 41.3266C31.4826 41.8857 30.8815 42.4049 30.2804 42.9241C29.6793 43.4432 29.0782 43.9624 28.4371 44.4017H28.7977L26.9945 43.2835C26.3934 42.9241 25.7523 42.6046 25.1111 42.2851C24.47 42.0055 23.8288 41.686 23.1476 41.4065C22.4663 41.1668 21.8252 40.8873 21.144 40.7275C19.7815 40.2882 18.379 40.0486 16.9364 40.0087C16.5757 39.9687 16.2151 40.0087 15.8544 40.0087C15.4938 40.0486 15.1331 40.0486 14.8126 40.1285C14.1714 40.2084 13.4501 40.408 12.849 40.7275Z" fill="#263238"/>
<path d="M11.4868 44.6813C12.1279 44.0024 12.729 43.2835 13.29 42.5247C13.851 41.7659 14.372 41.0071 14.8128 40.1685C14.1315 40.8474 13.5705 41.5663 13.0095 42.3251C12.4886 43.0838 11.9676 43.8826 11.4868 44.6813Z" fill="#263238"/>
<path d="M25.1514 41.2069C25.1514 41.2069 24.8709 44.2021 25.3117 48.4354C25.472 50.1127 26.8745 56.0234 28.7179 55.5841C30.5612 55.1448 27.0348 51.6303 26.1132 48.5153C25.1915 45.3603 25.7525 43.004 25.6323 41.0871L25.1514 41.2069Z" fill="white"/>
<g opacity="0.1">
<path opacity="0.1" d="M25.1514 41.2069C25.1514 41.2069 24.8709 44.2021 25.3117 48.4354C25.472 50.1127 26.8745 56.0234 28.7179 55.5841C30.5612 55.1448 27.0348 51.6303 26.1132 48.5153C25.1915 45.3603 25.7525 43.004 25.6323 41.0871L25.1514 41.2069Z" fill="black"/>
</g>
<path d="M31.9235 40.0088C31.9235 40.0088 33.1257 42.4849 34.0874 46.199C34.4882 47.6766 35.1694 53.1479 33.4864 53.3476C31.7633 53.5473 33.6466 49.4738 33.4463 46.5185C33.2459 43.5631 32.0037 41.7261 31.4827 40.0487L31.9235 40.0088Z" fill="white"/>
<g opacity="0.1">
<path opacity="0.1" d="M31.9235 40.0088C31.9235 40.0088 33.1257 42.4849 34.0874 46.199C34.4882 47.6766 35.1694 53.1479 33.4864 53.3476C31.7633 53.5473 33.6466 49.4738 33.4463 46.5185C33.2459 43.5631 32.0037 41.7261 31.4827 40.0487L31.9235 40.0088Z" fill="black"/>
</g>
</g>
</g>
</svg>
