<svg width="50" height="50" viewBox="0 0 50 50" fill="none" xmlns="http://www.w3.org/2000/svg">
<circle cx="25" cy="25" r="25" fill="#E0402A"/>
<mask id="mask0" mask-type="alpha" maskUnits="userSpaceOnUse" x="0" y="0" width="50" height="50">
<circle cx="25" cy="25" r="25" fill="#F95E5F"/>
</mask>
<g mask="url(#mask0)">
<path d="M17.3097 9.53734C15.9167 9.59306 14.6352 10.4846 13.8552 11.6546C13.0751 12.8247 12.6851 14.2177 12.5736 15.6107C12.4622 16.6693 12.5179 17.7837 12.9637 18.8423C13.3537 19.8453 14.1338 20.7368 15.1924 21.0711C16.5854 21.5168 18.1455 20.9039 19.1484 19.7896C20.1514 18.7309 20.6528 17.3379 21.0429 15.8893C21.7672 13.2148 20.7085 9.31447 17.3097 9.53734Z" fill="#263238"/>
<path d="M41.7145 42.4112L41.8816 42.6341L42.1602 42.9127C42.3274 43.1356 42.4945 43.3027 42.7174 43.5256C43.1074 43.9156 43.4975 44.3057 43.9432 44.6957C44.779 45.4758 45.6705 46.2001 46.6177 46.8687C47.5649 47.5931 48.5679 48.206 49.5151 48.8189C50.0723 49.0975 50.518 49.4318 51.0752 49.7104L52.301 50.379C52.4682 50.4347 52.691 50.4904 52.8582 50.4347C53.2482 50.3233 55.477 48.0945 56.2013 47.2588C57.7614 45.42 60.9931 42.6898 62.2746 40.6283L62.9432 43.0242C62.0517 45.5315 60.8259 47.8717 59.3215 50.0447C58.5415 51.2148 57.5943 52.2734 56.4799 53.2206C55.8113 53.7778 55.0869 54.2236 54.3069 54.5579C53.3039 54.9479 52.1896 55.0594 51.1309 54.7808C50.8523 54.725 50.5737 54.6136 50.3508 54.5022L49.8494 54.2793L48.9579 53.8893C48.345 53.6107 47.7878 53.2764 47.1749 52.9978C46.0048 52.3849 44.8347 51.6605 43.7203 50.9362C42.606 50.1561 41.5473 49.3203 40.5444 48.4289C39.9872 47.9831 39.5414 47.4816 39.04 46.9802C38.8171 46.7573 38.5385 46.4787 38.3156 46.2001L37.9813 45.7544C37.8699 45.5872 37.7585 45.4758 37.5913 45.2529L41.7145 42.4112Z" fill="#FFB573"/>
<path d="M36.4769 37.0066C38.5385 36.6166 53.304 49.4318 53.304 49.4318L48.9579 55.8395C48.9579 55.8395 32.8552 44.6401 33.3567 41.9098C33.8582 39.0682 33.4124 37.5638 36.4769 37.0066Z" fill="#263238"/>
<path opacity="0.2" d="M38.3155 41.1298L38.1484 47.816C39.82 49.0975 45.8376 53.7222 45.8376 53.7222L38.3155 41.1298Z" fill="black"/>
<path d="M36.1426 66.1474H32.4651L17.5326 66.2031C17.8112 58.4582 17.8112 52.2177 14.4681 37.0066C14.1895 35.6136 15.0252 34.2206 16.4182 33.942C16.5854 33.8863 16.7525 33.8863 16.9754 33.8863C18.5355 33.8863 20.4299 33.942 22.4358 34.1649C25.556 34.4435 28.6206 34.8892 31.6294 35.5579C31.7408 35.5579 31.8522 35.6136 31.9637 35.6693C34.2481 36.2265 34.9168 36.5608 36.4769 37.118C37.4241 37.4523 38.5942 40.0711 39.6528 43.0242C42.4388 47.7045 38.9842 51.772 36.1426 66.1474Z" fill="white"/>
<path d="M23.2715 23.9684C23.8844 26.9772 24.4416 32.4933 22.38 34.1092C22.38 34.1092 23.2158 37.2294 28.732 38.0652C34.8053 38.9567 31.6293 35.5021 31.6293 35.5021C28.3419 34.1649 28.3976 31.769 28.9548 29.596L23.2715 23.9684Z" fill="#FFB573"/>
<path opacity="0.2" d="M25.6117 26.2531L28.9548 29.5962C28.7877 30.0976 28.732 30.6548 28.6762 31.1563C27.3947 30.7663 25.3888 29.3733 25.2217 28.036C25.2217 27.4789 25.3331 26.866 25.6117 26.2531Z" fill="black"/>
<path d="M19.5384 20.1238C21.0428 24.8599 21.5443 26.8658 24.6088 28.7045C29.1777 31.4904 34.6382 28.6488 34.5824 23.5784C34.5267 19.0095 32.1308 12.1004 26.949 11.3203C23.2716 10.7631 19.817 13.3262 19.2598 17.0036C19.1484 18.0623 19.2041 19.1209 19.5384 20.1238Z" fill="#FFB573"/>
<path d="M30.7935 19.3996C31.295 20.2354 31.9636 20.9597 32.688 21.6284C32.3537 22.0184 31.8522 22.1855 31.3507 22.1855L30.7935 19.3996Z" fill="#ED893E"/>
<path d="M30.292 24.6928C30.4592 24.6928 30.682 24.6371 30.8492 24.5814C30.9049 24.5814 30.9606 24.5257 30.9049 24.47C30.9049 24.4143 30.8492 24.3585 30.7378 24.3585C29.7348 24.6371 28.7319 24.4143 27.8961 23.8014C27.8404 23.7456 27.7847 23.7456 27.729 23.8014C27.6732 23.8571 27.6732 23.9128 27.729 23.9685C28.509 24.5257 29.4005 24.8043 30.292 24.6928Z" fill="#263238"/>
<path d="M16.9753 12.9362C15.7495 13.7162 14.9137 15.1092 14.9137 16.6136C14.9137 16.8922 14.9137 17.1708 15.0251 17.4494C15.1366 17.6723 15.3595 17.8951 15.6381 17.9509C16.0838 17.9509 16.3624 17.5608 16.5853 17.2265C16.9196 16.6693 17.3096 16.1121 17.6439 15.555C17.9782 14.9978 18.5911 14.3849 18.7583 13.772C19.204 12.6019 17.6439 12.5462 16.9753 12.9362Z" fill="#BD230F"/>
<path d="M18.4799 11.822C15.5268 15.2208 14.1895 24.693 22.8816 27.3675C24.3303 26.1974 21.9901 24.1358 20.9872 21.517C20.3186 19.7897 23.6617 16.5581 24.9432 15.2208C26.2247 13.8836 27.3948 11.9891 29.2335 12.2677C29.735 12.3235 30.2365 12.4906 30.6822 12.3235C32.1309 11.6548 31.4066 10.8191 30.6822 10.2062C29.6236 9.31466 28.1192 8.92463 26.7819 8.75747C23.7174 8.42316 20.4857 9.48181 18.4799 11.822Z" fill="#263238"/>
<path d="M20.3184 21.7397L20.0955 21.5168C20.0955 21.2382 20.0955 21.2382 24.943 19.7338L25.1102 20.291C23.4386 20.7924 20.7641 21.6839 20.5413 21.7954L20.4298 21.5725L20.3184 21.7397Z" fill="#BD230F"/>
<path d="M19.0369 24.08C19.5941 24.8601 20.4299 25.4173 21.3771 25.5844C22.6029 25.8073 23.1043 24.6372 22.6586 23.5228C22.2686 22.5199 21.0985 21.1826 19.9284 21.4612C19.0369 21.6841 18.5354 22.5756 18.7583 23.4114C18.814 23.69 18.8697 23.9128 19.0369 24.08Z" fill="#FFB573"/>
<path d="M27.5063 10.9862C28.1749 12.7135 30.1251 12.4906 31.5738 14.2736C32.4653 15.388 34.1925 11.9334 31.8524 10.5962C29.4565 9.20323 26.4477 8.25601 27.5063 10.9862Z" fill="#263238"/>
<path d="M25.4446 18.2296C25.5561 18.2296 25.6675 18.1739 25.6675 18.1181C26.1132 17.1152 27.5062 16.8366 27.5062 16.8366C27.6176 16.8366 27.7291 16.6695 27.6734 16.558C27.6176 16.4466 27.5062 16.3351 27.3948 16.3909C27.3391 16.3909 25.7789 16.7252 25.2217 17.951C25.166 18.0624 25.2217 18.2296 25.3332 18.2853L25.4446 18.2296Z" fill="#263238"/>
<path d="M32.6881 16.1679C32.7438 16.1679 32.8552 16.1122 32.9109 16.0564C32.9667 15.945 32.9667 15.7778 32.8552 15.7221C32.2423 15.2764 31.4065 15.1649 30.7379 15.4435C30.6265 15.4993 30.5708 15.6107 30.6265 15.7778C30.6822 15.8893 30.7936 15.945 30.9608 15.8893C31.518 15.6664 32.1309 15.7778 32.6324 16.1122C32.5766 16.1679 32.6324 16.1679 32.6881 16.1679Z" fill="#263238"/>
<path d="M55.5884 46.6461L52.301 48.4848L48.9579 55.8397C48.9579 55.8397 52.2453 57.9013 54.8083 56.2297C57.3714 54.5024 55.5884 46.6461 55.5884 46.6461Z" fill="#263238"/>
<path d="M32.4651 18.0621C32.7437 18.0064 33.0223 18.3407 33.078 18.7308C33.1337 19.1208 32.9665 19.5108 32.7437 19.5665C32.5208 19.6223 32.1865 19.288 32.1308 18.8979C32.0193 18.5079 32.1865 18.1179 32.4651 18.0621Z" fill="#263238"/>
<path d="M33.3008 17.6165L32.3536 18.118C32.9108 18.508 33.3008 17.6165 33.3008 17.6165Z" fill="#263238"/>
<path d="M27.7848 19.0095C28.0634 18.9538 28.342 19.2324 28.3977 19.6782C28.4534 20.0682 28.2862 20.4582 28.0634 20.5139C27.7848 20.5696 27.5062 20.2911 27.4505 19.8453C27.339 19.4553 27.5062 19.0652 27.7848 19.0095Z" fill="#263238"/>
<path d="M28.6205 18.6195L27.6733 19.0652C28.2305 19.4552 28.6205 18.6195 28.6205 18.6195Z" fill="#263238"/>
<path d="M13.9665 10.8189C14.0222 9.76027 14.5237 8.42302 13.8551 7.58725C15.0252 8.53446 14.8023 9.09165 14.858 9.37024C14.858 8.59018 14.5237 7.42009 14.2451 6.69575C14.9695 7.19722 15.5267 8.25587 15.6381 9.09165C15.4709 8.25587 15.4709 7.36437 14.9695 6.25C15.9167 7.08578 16.4739 8.36731 16.5853 9.64883C16.5853 9.03593 16.5853 8.47874 16.5296 7.86584C16.8082 8.59018 16.9196 9.03593 17.0311 9.64883C17.1425 10.2617 17.0311 10.9304 16.9753 11.5433C16.9196 12.1562 16.5853 12.7691 16.0838 13.1591C15.5824 13.5491 14.858 13.6606 14.3566 13.3263C13.0193 12.4905 13.9108 11.7661 13.9665 10.8189Z" fill="#263238"/>
<path d="M28.5648 21.5169C28.5091 21.5169 28.3977 21.5169 28.342 21.5169L25.7232 21.0154C25.2217 20.904 24.8317 20.5697 24.776 20.0682C24.6645 19.3996 25.0546 18.7867 25.7232 18.6195L29.0663 17.8952C29.6792 17.7838 30.2921 18.1181 30.4593 18.6753L30.515 18.8424C30.6264 19.2324 30.5707 19.6225 30.3478 19.9568L29.512 21.0154C29.2892 21.3497 28.8991 21.5169 28.5648 21.5169ZM29.2892 18.3967C29.2335 18.3967 29.1777 18.3967 29.1777 18.3967L25.8346 19.121C25.5003 19.1767 25.2774 19.5667 25.3332 19.9011C25.3889 20.1797 25.6117 20.3468 25.8346 20.4025L28.4534 20.904C28.6763 20.9597 28.9549 20.8483 29.122 20.6811L29.9578 19.6225C30.0692 19.4553 30.125 19.2324 30.0692 19.0096L30.0135 18.8424C29.8464 18.6195 29.5678 18.3967 29.2892 18.3967Z" fill="#BD230F"/>
<path d="M33.078 20.1799C32.9666 20.1799 32.8552 20.1799 32.688 20.1242L31.4065 19.7342C31.0164 19.6227 30.7378 19.2884 30.6264 18.8984L30.5707 18.7312C30.4035 18.1183 30.6821 17.5054 31.2393 17.2825L33.8581 16.2796C34.471 16.001 35.1953 16.2796 35.4182 16.8925C35.6411 17.3383 35.5296 17.8955 35.1953 18.2298L33.9138 19.7342C33.6909 20.0128 33.3566 20.1799 33.078 20.1799ZM34.3038 16.7811C34.1924 16.7811 34.1367 16.7811 34.0252 16.8368L31.4065 17.8397C31.1279 17.9512 30.9607 18.2855 31.0722 18.6198L31.1279 18.7869C31.1836 19.0098 31.3508 19.177 31.5736 19.2327L32.8552 19.6227C33.078 19.6784 33.3566 19.6227 33.5238 19.4556L34.8053 17.9512C35.0282 17.7283 35.0839 17.4497 34.9725 17.2268C34.8053 16.8925 34.5824 16.7811 34.3038 16.7811Z" fill="#BD230F"/>
<path d="M16.1395 73.2236C16.3067 74.3937 16.4738 75.6195 16.9753 76.6224C18.0339 78.6283 20.3184 79.6869 22.5471 79.9098C24.7759 80.1327 27.0046 79.5755 29.1776 79.0183C28.899 67.986 28.6762 56.9538 27.2275 46.0329C26.6703 41.7426 24.6644 34.9449 23.3829 32.549C23.3829 32.549 13.7993 33.3848 11.5149 35.6136C9.06325 38.0095 12.0163 42.0769 12.4621 45.0857C13.6879 54.4464 14.9137 63.8071 16.1395 73.2236Z" fill="#263238"/>
<path d="M38.8728 64.8658L39.82 73.948C40.0429 76.2324 38.4828 78.294 36.1983 78.684L33.4124 79.1298C33.1338 71.0506 32.9109 56.8424 32.9109 51.772C32.9109 44.5843 31.3508 38.9567 30.3479 34.945C32.6323 35.5022 34.8054 36.5051 36.3655 37.0066C37.3127 37.3409 38.8171 39.9039 39.8758 42.857C42.7731 47.6488 39.0957 57.7339 38.8728 64.8658Z" fill="#263238"/>
<path d="M0.594093 56.5082L8.84044 56.6753L8.56185 56.0624C8.1161 55.0595 8.28325 53.8894 9.00759 53.0536C12.0164 49.6548 19.5941 40.8513 19.5384 39.1797C19.427 36.7838 16.8639 35.1122 14.0223 35.2237C11.905 35.2794 5.99879 44.5287 2.43281 49.0976C-0.743152 53.1651 0.594093 56.5082 0.594093 56.5082Z" fill="#263238"/>
</g>
</svg>
