<svg width="50" height="50" viewBox="0 0 50 50" fill="none" xmlns="http://www.w3.org/2000/svg">
<rect opacity="0.1" width="50" height="50" rx="10" fill="#F6AB00"/>
<g filter="url(#filter0_bii)">
<rect width="50" height="50" rx="10" fill="white" fill-opacity="0.1"/>
</g>
<path d="M34.8906 13H15.1094C13.9463 13 13 13.9463 13 15.1094V34.8906C13 36.0537 13.9463 37 15.1094 37H34.8906C36.0537 37 37 36.0537 37 34.8906V15.1094C37 13.9463 36.0537 13 34.8906 13ZM35.5938 34.8906C35.5938 35.2783 35.2783 35.5938 34.8906 35.5938H15.1094C14.7217 35.5938 14.4062 35.2783 14.4062 34.8906V20.0312H35.5938V34.8906ZM35.5938 18.625H14.4062V15.1094C14.4062 14.7217 14.7217 14.4062 15.1094 14.4062H34.8906C35.2783 14.4062 35.5938 14.7217 35.5938 15.1094V18.625Z" fill="#F6AB00"/>
<path d="M17.5 15.8125H16.5625C16.1742 15.8125 15.8594 16.1273 15.8594 16.5156C15.8594 16.9039 16.1742 17.2188 16.5625 17.2188H17.5C17.8883 17.2188 18.2031 16.9039 18.2031 16.5156C18.2031 16.1273 17.8883 15.8125 17.5 15.8125Z" fill="#F6AB00"/>
<path d="M21.25 15.8125H20.3125C19.9242 15.8125 19.6094 16.1273 19.6094 16.5156C19.6094 16.9039 19.9242 17.2188 20.3125 17.2188H21.25C21.6383 17.2188 21.9531 16.9039 21.9531 16.5156C21.9531 16.1273 21.6383 15.8125 21.25 15.8125Z" fill="#F6AB00"/>
<path d="M25 15.8125H24.0625C23.6742 15.8125 23.3594 16.1273 23.3594 16.5156C23.3594 16.9039 23.6742 17.2188 24.0625 17.2188H25C25.3883 17.2188 25.7031 16.9039 25.7031 16.5156C25.7031 16.1273 25.3883 15.8125 25 15.8125Z" fill="#F6AB00"/>
<path d="M20.5346 30.6719C20.568 30.6776 21.7255 30.6748 22.2579 30.6719C22.5168 30.6704 22.7255 30.4594 22.724 30.2005C22.7226 29.9425 22.513 29.7344 22.2553 29.7344C22.2544 29.7344 22.2535 29.7344 22.2526 29.7344C21.8422 29.7367 21.4001 29.7343 21.0825 29.7344V25.5156C21.0825 25.2567 20.8726 25.0469 20.6138 25.0469C20.355 25.0469 20.1451 25.2567 20.1451 25.5156V30.1992C20.1451 30.4275 20.3096 30.6333 20.5346 30.6719Z" fill="#F6AB00"/>
<path d="M15.8777 30.6719H17.4771C18.4313 30.6719 19.2076 29.89 19.2076 28.9358C19.2076 28.3533 18.918 27.8375 18.4755 27.5237C18.6707 27.2647 18.7867 26.9428 18.7867 26.5942C18.7867 25.741 18.0925 25.0469 17.2393 25.0469H15.8777C15.6189 25.0469 15.409 25.2567 15.409 25.5156V30.2031C15.409 30.3278 15.4587 30.4473 15.547 30.5353C15.6349 30.6228 15.7538 30.6719 15.8777 30.6719ZM16.3465 25.9844H17.2394C17.5757 25.9844 17.8492 26.2579 17.8492 26.5942C17.8492 26.9305 17.5757 27.2041 17.2394 27.2041C17.1391 27.2041 16.3465 27.2053 16.3465 27.2053V25.9844ZM16.3465 28.1444C16.4734 28.1439 17.4771 28.1429 17.4771 28.1429C17.9144 28.1429 18.2701 28.4986 18.2701 28.9359C18.2701 29.3731 17.9144 29.7288 17.4771 29.7288C17.2716 29.7288 16.741 29.7308 16.3465 29.7324V28.1444Z" fill="#F6AB00"/>
<path d="M32.099 30.6719C33.5663 30.6719 34.591 29.5153 34.591 27.8594C34.591 27.6005 34.3811 27.3906 34.1222 27.3906H32.72C32.4611 27.3906 32.2512 27.6005 32.2512 27.8594C32.2512 28.1183 32.4611 28.3281 32.72 28.3281H33.613C33.4853 29.0516 33.0423 29.7344 32.099 29.7344C31.0652 29.7344 30.224 28.8932 30.224 27.8594C30.224 26.8255 31.0652 25.9844 32.099 25.9844C32.4748 25.9844 32.8372 26.095 33.147 26.3043C33.3614 26.4492 33.6529 26.3928 33.7978 26.1783C33.9428 25.9638 33.8863 25.6724 33.6718 25.5275C33.2064 25.213 32.6626 25.0469 32.099 25.0469C30.5482 25.0469 29.2865 26.3086 29.2865 27.8594C29.2865 29.4102 30.5482 30.6719 32.099 30.6719Z" fill="#F6AB00"/>
<path d="M25.5366 30.6719C27.0874 30.6719 28.3491 29.4102 28.3491 27.8594C28.3491 26.3086 27.0874 25.0469 25.5366 25.0469C23.9858 25.0469 22.7241 26.3086 22.7241 27.8594C22.7241 29.4102 23.9858 30.6719 25.5366 30.6719ZM25.5366 25.9844C26.5704 25.9844 27.4116 26.8255 27.4116 27.8594C27.4116 28.8932 26.5704 29.7344 25.5366 29.7344C24.5027 29.7344 23.6616 28.8932 23.6616 27.8594C23.6616 26.8255 24.5027 25.9844 25.5366 25.9844Z" fill="#F6AB00"/>
<defs>
<filter id="filter0_bii" x="-6.66667" y="-6.66667" width="63.3333" height="63.3333" filterUnits="userSpaceOnUse" color-interpolation-filters="sRGB">
<feFlood flood-opacity="0" result="BackgroundImageFix"/>
<feGaussianBlur in="BackgroundImage" stdDeviation="3.33333"/>
<feComposite in2="SourceAlpha" operator="in" result="effect1_backgroundBlur"/>
<feBlend mode="normal" in="SourceGraphic" in2="effect1_backgroundBlur" result="shape"/>
<feColorMatrix in="SourceAlpha" type="matrix" values="0 0 0 0 0 0 0 0 0 0 0 0 0 0 0 0 0 0 127 0" result="hardAlpha"/>
<feOffset dx="-0.666667" dy="0.666667"/>
<feGaussianBlur stdDeviation="0.333333"/>
<feComposite in2="hardAlpha" operator="arithmetic" k2="-1" k3="1"/>
<feColorMatrix type="matrix" values="0 0 0 0 1 0 0 0 0 1 0 0 0 0 1 0 0 0 0.4 0"/>
<feBlend mode="normal" in2="shape" result="effect2_innerShadow"/>
<feColorMatrix in="SourceAlpha" type="matrix" values="0 0 0 0 0 0 0 0 0 0 0 0 0 0 0 0 0 0 127 0" result="hardAlpha"/>
<feOffset dx="0.666667" dy="-0.666667"/>
<feGaussianBlur stdDeviation="0.333333"/>
<feComposite in2="hardAlpha" operator="arithmetic" k2="-1" k3="1"/>
<feColorMatrix type="matrix" values="0 0 0 0 0.84 0 0 0 0 0.84 0 0 0 0 0.84 0 0 0 0.4 0"/>
<feBlend mode="normal" in2="effect2_innerShadow" result="effect3_innerShadow"/>
</filter>
</defs>
</svg>
