<svg width="29" height="26" viewBox="0 0 29 26" fill="none" xmlns="http://www.w3.org/2000/svg">
<path d="M14.5 21.4736C19.1235 21.4736 22.9668 17.6387 22.9668 13.0068C22.9668 8.3833 19.1152 4.54004 14.4917 4.54004C9.85986 4.54004 6.0332 8.3833 6.0332 13.0068C6.0332 17.6387 9.86816 21.4736 14.5 21.4736ZM11.52 16.6924C11.1299 16.6924 10.8145 16.377 10.8145 15.9868C10.8145 15.7959 10.8975 15.6299 11.0303 15.5054L13.5039 13.0151L11.0303 10.5249C10.8975 10.4087 10.8145 10.2344 10.8145 10.0435C10.8145 9.66162 11.1299 9.35449 11.52 9.35449C11.7109 9.35449 11.877 9.4292 12.0015 9.56201L14.4917 12.0439L16.9985 9.55371C17.1396 9.4043 17.2891 9.33789 17.4717 9.33789C17.8618 9.33789 18.1772 9.65332 18.1772 10.0352C18.1772 10.2261 18.1108 10.3838 17.9697 10.5166L15.4795 13.0151L17.9614 15.4888C18.0859 15.6216 18.1689 15.7876 18.1689 15.9868C18.1689 16.377 17.8535 16.6924 17.4634 16.6924C17.2642 16.6924 17.0981 16.6094 16.9736 16.4849L14.4917 13.9946L12.0181 16.4849C11.8936 16.6177 11.7109 16.6924 11.52 16.6924Z" fill="#3C3C43" fill-opacity="0.6"/>
</svg>
