<svg width="20" height="19" viewBox="0 0 20 19" fill="none" xmlns="http://www.w3.org/2000/svg">
<path d="M17.57 1.5C16.91 1.01 15.96 1.48 15.96 2.31V2.41C15.96 3.58 15.12 4.66 13.95 4.78C12.6 4.92 11.46 3.86 11.46 2.54V1.5C11.46 0.95 11.01 0.5 10.46 0.5H9.54C8.99 0.5 8.54 0.95 8.54 1.5V2.54C8.54 3.33 8.13 4.03 7.51 4.42C7.42 4.48 7.32 4.53 7.22 4.58C7.13 4.63 7.03 4.67 6.92 4.7C6.8 4.74 6.67 4.77 6.53 4.78C6.37 4.8 6.21 4.8 6.05 4.78C5.91 4.77 5.78 4.74 5.66 4.7C5.56 4.67 5.46 4.63 5.36 4.58C5.26 4.53 5.16 4.48 5.07 4.42C4.44 3.98 4.04 3.22 4.04 2.41V2.31C4.04 1.54 3.22 1.08 2.57 1.41C2.56 1.42 2.55 1.42 2.54 1.43C2.5 1.45 2.47 1.47 2.43 1.5C2.4 1.53 2.36 1.55 2.33 1.58C2.05 1.8 1.8 2.05 1.59 2.32C1.48 2.44 1.39 2.57 1.31 2.7C1.3 2.71 1.29 2.72 1.28 2.74C1.19 2.87 1.11 3.02 1.04 3.16C1.02 3.18 1.01 3.19 1.01 3.21C0.95 3.33 0.89 3.45 0.85 3.58C0.82 3.63 0.81 3.67 0.79 3.72C0.73 3.87 0.69 4.02 0.65 4.17C0.61 4.31 0.58 4.46 0.56 4.61C0.54 4.72 0.53 4.83 0.52 4.95C0.51 5.09 0.5 5.23 0.5 5.37V14.13C0.5 16.82 2.68 19 5.37 19H14.63C17.32 19 19.5 16.82 19.5 14.13V5.37C19.5 3.78 18.74 2.39 17.57 1.5ZM10 15.25C8.45 15.25 7.5 14.48 7.5 13.24C7.5 12.56 7.85 11.97 8.46 11.62C8.02 11.31 7.73 10.85 7.73 10.22C7.73 8.92 8.77 8.25 10 8.25C11.23 8.25 12.26 8.92 12.26 10.22C12.26 10.85 11.98 11.31 11.53 11.62C12.15 11.97 12.5 12.56 12.5 13.24C12.5 14.48 11.54 15.25 10 15.25Z" fill="#EE493D"/>
</svg>
