<svg width="50" height="50" viewBox="0 0 50 50" fill="none" xmlns="http://www.w3.org/2000/svg">
<rect opacity="0.1" width="50" height="50" rx="10" fill="#4CA8FC"/>
<g filter="url(#filter0_bii)">
<rect width="50" height="50" rx="10" fill="white" fill-opacity="0.1"/>
</g>
<path d="M25.0701 21.8027C24.8303 21.4829 24.4306 21.3231 23.951 21.3231H19.3947C18.5154 21.3231 17.796 21.9626 17.6361 22.7619L17.5562 23.4015C17.4763 23.8012 17.6362 24.2808 17.8759 24.6006C18.1157 24.9203 18.5155 25.0801 18.995 25.0801H23.5513C24.3507 25.0801 25.0701 24.4407 25.3099 23.6413L25.3898 23.0017C25.4697 22.6021 25.3099 22.1225 25.0701 21.8027ZM23.6313 23.3215C23.6313 23.4014 23.5513 23.4813 23.4714 23.4813H19.075L19.1549 23.0017C19.1549 22.9218 19.2349 22.8419 19.3148 22.8419H23.7112L23.6313 23.3215Z" fill="#4CA8FC"/>
<path d="M36.4208 20.204C36.0186 19.7348 35.4473 19.4351 34.7549 19.3503C34.7527 19.3148 34.749 19.2795 34.7421 19.2449C34.4224 18.0458 33.1435 17.1666 31.7046 17.1666H25.7955L23.7912 15.0882C23.6313 14.9282 23.4714 14.8483 23.2316 14.8483H16.1175C14.279 14.8482 13 15.9673 13 17.4861V31.7145C13 32.5659 13.3855 33.4853 14.0114 34.1588C14.0209 34.17 14.0295 34.1814 14.0392 34.1925C14.5188 34.8319 15.2382 35.1517 16.0375 35.1517H16.1174H31.7047C33.3833 35.1517 34.8222 33.553 35.1419 32.0342L36.9803 22.3621C37.0603 21.5628 36.9004 20.7635 36.4208 20.204ZM14.5988 17.4863C14.5987 16.687 15.5579 16.4471 16.1175 16.4471H22.9119L24.8304 18.4455C24.9727 18.5878 25.1466 18.6663 25.324 18.682C25.4352 18.7358 25.565 18.7653 25.7096 18.7653H31.7047C32.2555 18.7653 32.7592 18.9997 33.0369 19.3247H18.6754C16.9968 19.3247 15.5579 20.4438 15.3182 21.9626L14.5987 25.8413V17.4863H14.5988ZM35.3816 22.1226L33.5431 31.7947C33.3833 32.674 32.5839 33.5532 31.7846 33.5532H31.7047H16.1175C15.8079 33.5532 15.4836 33.3605 15.2146 33.0775C15.0571 32.8079 15.0114 32.5291 15.0783 32.1942L16.9168 22.2824C16.9968 21.483 17.7961 20.9235 18.6754 20.9235L33.9428 21.0035H34.3425C34.7422 21.0035 35.0619 21.0834 35.2218 21.3232C35.3816 21.483 35.4615 21.8029 35.3816 22.1226Z" fill="#4CA8FC"/>
<defs>
<filter id="filter0_bii" x="-6.66667" y="-6.66667" width="63.3333" height="63.3333" filterUnits="userSpaceOnUse" color-interpolation-filters="sRGB">
<feFlood flood-opacity="0" result="BackgroundImageFix"/>
<feGaussianBlur in="BackgroundImage" stdDeviation="3.33333"/>
<feComposite in2="SourceAlpha" operator="in" result="effect1_backgroundBlur"/>
<feBlend mode="normal" in="SourceGraphic" in2="effect1_backgroundBlur" result="shape"/>
<feColorMatrix in="SourceAlpha" type="matrix" values="0 0 0 0 0 0 0 0 0 0 0 0 0 0 0 0 0 0 127 0" result="hardAlpha"/>
<feOffset dx="-0.666667" dy="0.666667"/>
<feGaussianBlur stdDeviation="0.333333"/>
<feComposite in2="hardAlpha" operator="arithmetic" k2="-1" k3="1"/>
<feColorMatrix type="matrix" values="0 0 0 0 1 0 0 0 0 1 0 0 0 0 1 0 0 0 0.4 0"/>
<feBlend mode="normal" in2="shape" result="effect2_innerShadow"/>
<feColorMatrix in="SourceAlpha" type="matrix" values="0 0 0 0 0 0 0 0 0 0 0 0 0 0 0 0 0 0 127 0" result="hardAlpha"/>
<feOffset dx="0.666667" dy="-0.666667"/>
<feGaussianBlur stdDeviation="0.333333"/>
<feComposite in2="hardAlpha" operator="arithmetic" k2="-1" k3="1"/>
<feColorMatrix type="matrix" values="0 0 0 0 0.84 0 0 0 0 0.84 0 0 0 0 0.84 0 0 0 0.4 0"/>
<feBlend mode="normal" in2="effect2_innerShadow" result="effect3_innerShadow"/>
</filter>
</defs>
</svg>
