<svg width="24" height="24" viewBox="0 0 24 24" fill="none" xmlns="http://www.w3.org/2000/svg">
<path d="M21.8906 0H2.10938C0.946219 0 0 0.946219 0 2.10938V16.2656C0 17.4288 0.946219 18.375 2.10938 18.375H8.4375V19.7812H15.5156V18.375H21.8906C23.0538 18.375 24 17.4288 24 16.2656V2.10938C24 0.946219 23.0538 0 21.8906 0ZM8.23153 12.4971L5.41903 15.3096C5.14439 15.5843 4.69941 15.5843 4.42477 15.3096L3.01852 13.9034C2.74383 13.6287 2.74383 13.1838 3.01852 12.9091C3.29316 12.6345 3.73814 12.6345 4.01278 12.9091L4.92188 13.8182L7.23727 11.5028C7.51191 11.2282 7.95689 11.2282 8.23153 11.5028C8.50617 11.7775 8.50617 12.2225 8.23153 12.4971ZM8.23153 8.27836L5.41903 11.0909C5.14439 11.3655 4.69941 11.3655 4.42477 11.0909L3.01852 9.68461C2.74383 9.40997 2.74383 8.96503 3.01852 8.69039C3.29316 8.41575 3.73814 8.41575 4.01278 8.69039L4.92188 9.59948L7.23727 7.28409C7.51191 7.00945 7.95689 7.00945 8.23153 7.28409C8.50617 7.55873 8.50617 8.00372 8.23153 8.27836ZM8.23153 4.05961L5.41903 6.87211C5.14439 7.14675 4.69941 7.14675 4.42477 6.87211L3.01852 5.46586C2.74383 5.19122 2.74383 4.74628 3.01852 4.47164C3.29316 4.197 3.73814 4.197 4.01278 4.47164L4.92188 5.38073L7.23727 3.06534C7.51191 2.7907 7.95689 2.7907 8.23153 3.06534C8.50617 3.33998 8.50617 3.78497 8.23153 4.05961ZM20.4844 14.1094H10.5469C10.1582 14.1094 9.84375 13.7949 9.84375 13.4062C9.84375 13.0176 10.1582 12.7031 10.5469 12.7031H20.4844C20.873 12.7031 21.1875 13.0176 21.1875 13.4062C21.1875 13.7949 20.873 14.1094 20.4844 14.1094ZM20.4844 9.89062H10.5469C10.1582 9.89062 9.84375 9.57614 9.84375 9.1875C9.84375 8.79886 10.1582 8.48438 10.5469 8.48438H20.4844C20.873 8.48438 21.1875 8.79886 21.1875 9.1875C21.1875 9.57614 20.873 9.89062 20.4844 9.89062ZM20.4844 5.67188H10.5469C10.1582 5.67188 9.84375 5.35739 9.84375 4.96875C9.84375 4.58011 10.1582 4.26562 10.5469 4.26562H20.4844C20.873 4.26562 21.1875 4.58011 21.1875 4.96875C21.1875 5.35739 20.873 5.67188 20.4844 5.67188Z" fill="#39A45A"/>
<path d="M16.9219 21.1875H7.07812C5.52698 21.1875 4.26562 22.4489 4.26562 24H19.7344C19.7344 22.4489 18.473 21.1875 16.9219 21.1875Z" fill="#39A45A"/>
</svg>
