<svg width="50" height="50" viewBox="0 0 50 50" fill="none" xmlns="http://www.w3.org/2000/svg">
<rect opacity="0.1" width="50" height="50" rx="10" fill="#46A13E"/>
<g filter="url(#filter0_bii)">
<rect width="50" height="50" rx="10" fill="white" fill-opacity="0.1"/>
</g>
<path d="M34.8906 13H15.1094C13.9463 13 13 13.9463 13 15.1094V29.2188C13 30.3819 13.9463 31.3281 15.1094 31.3281H21.4375V32.7812H20.7344C18.7959 32.7812 17.2188 34.3584 17.2188 36.2969C17.2188 36.6852 17.5336 37 17.9219 37H32.0312C32.4196 37 32.7344 36.6852 32.7344 36.2969C32.7344 34.3584 31.1573 32.7812 29.2188 32.7812H28.5156V31.3281H34.8906C36.0537 31.3281 37 30.3819 37 29.2188V15.1094C37 13.9463 36.0537 13 34.8906 13ZM29.2188 34.1875C30.1354 34.1875 30.9175 34.7753 31.2077 35.5938H18.7455C19.0357 34.7753 19.8177 34.1875 20.7344 34.1875C21.7747 34.1875 28.1361 34.1875 29.2188 34.1875ZM22.8438 32.7812V31.3281H27.1094V32.7812H22.8438ZM35.5938 29.2188C35.5938 29.6065 35.2783 29.9219 34.8906 29.9219C32.1044 29.9219 15.7098 29.9219 15.1094 29.9219C14.7217 29.9219 14.4062 29.6065 14.4062 29.2188V15.1094C14.4062 14.7217 14.7217 14.4062 15.1094 14.4062H34.8906C35.2783 14.4062 35.5938 14.7217 35.5938 15.1094V29.2188Z" fill="#46A13E"/>
<path d="M21.2315 16.0654C20.957 15.7907 20.5118 15.7907 20.2372 16.0653L17.9219 18.3807L17.0128 17.4716C16.7382 17.197 16.293 17.197 16.0184 17.4716C15.7438 17.7462 15.7438 18.1913 16.0184 18.4659L17.4247 19.8722C17.562 20.0095 17.7419 20.0781 17.9219 20.0781C18.1018 20.0781 18.2818 20.0095 18.419 19.8722L21.2315 17.0597C21.5061 16.7851 21.5061 16.34 21.2315 16.0654Z" fill="#46A13E"/>
<path d="M21.2315 20.2841C20.957 20.0095 20.5118 20.0095 20.2372 20.2841L17.9219 22.5994L17.0128 21.6903C16.7382 21.4157 16.293 21.4157 16.0184 21.6903C15.7438 21.9649 15.7438 22.4101 16.0184 22.6847L17.4247 24.0909C17.562 24.2283 17.7419 24.2969 17.9219 24.2969C18.1018 24.2969 18.2818 24.2283 18.419 24.091L21.2315 21.2785C21.5061 21.0039 21.5061 20.5587 21.2315 20.2841Z" fill="#46A13E"/>
<path d="M33.4844 17.2656H23.5469C23.1586 17.2656 22.8438 17.5804 22.8438 17.9688C22.8438 18.3571 23.1586 18.6719 23.5469 18.6719H33.4844C33.8727 18.6719 34.1875 18.3571 34.1875 17.9688C34.1875 17.5804 33.8727 17.2656 33.4844 17.2656Z" fill="#46A13E"/>
<path d="M33.4844 21.4844H23.5469C23.1586 21.4844 22.8438 21.7992 22.8438 22.1875C22.8438 22.5758 23.1586 22.8906 23.5469 22.8906H33.4844C33.8727 22.8906 34.1875 22.5758 34.1875 22.1875C34.1875 21.7992 33.8727 21.4844 33.4844 21.4844Z" fill="#46A13E"/>
<path d="M33.4844 25.7031H23.5469C23.1586 25.7031 22.8438 26.0179 22.8438 26.4062C22.8438 26.7946 23.1586 27.1094 23.5469 27.1094H33.4844C33.8727 27.1094 34.1875 26.7946 34.1875 26.4062C34.1875 26.0179 33.8727 25.7031 33.4844 25.7031Z" fill="#46A13E"/>
<path d="M21.2315 24.5029C20.957 24.2282 20.5118 24.2282 20.2372 24.5028L17.9219 26.8182L17.0128 25.9091C16.7382 25.6345 16.293 25.6345 16.0184 25.9091C15.7438 26.1837 15.7438 26.6288 16.0184 26.9034L17.4247 28.3097C17.562 28.447 17.7419 28.5156 17.9219 28.5156C18.1018 28.5156 18.2818 28.447 18.419 28.3097L21.2315 25.4972C21.5061 25.2226 21.5061 24.7775 21.2315 24.5029Z" fill="#46A13E"/>
<defs>
<filter id="filter0_bii" x="-6.66667" y="-6.66667" width="63.3333" height="63.3333" filterUnits="userSpaceOnUse" color-interpolation-filters="sRGB">
<feFlood flood-opacity="0" result="BackgroundImageFix"/>
<feGaussianBlur in="BackgroundImage" stdDeviation="3.33333"/>
<feComposite in2="SourceAlpha" operator="in" result="effect1_backgroundBlur"/>
<feBlend mode="normal" in="SourceGraphic" in2="effect1_backgroundBlur" result="shape"/>
<feColorMatrix in="SourceAlpha" type="matrix" values="0 0 0 0 0 0 0 0 0 0 0 0 0 0 0 0 0 0 127 0" result="hardAlpha"/>
<feOffset dx="-0.666667" dy="0.666667"/>
<feGaussianBlur stdDeviation="0.333333"/>
<feComposite in2="hardAlpha" operator="arithmetic" k2="-1" k3="1"/>
<feColorMatrix type="matrix" values="0 0 0 0 1 0 0 0 0 1 0 0 0 0 1 0 0 0 0.4 0"/>
<feBlend mode="normal" in2="shape" result="effect2_innerShadow"/>
<feColorMatrix in="SourceAlpha" type="matrix" values="0 0 0 0 0 0 0 0 0 0 0 0 0 0 0 0 0 0 127 0" result="hardAlpha"/>
<feOffset dx="0.666667" dy="-0.666667"/>
<feGaussianBlur stdDeviation="0.333333"/>
<feComposite in2="hardAlpha" operator="arithmetic" k2="-1" k3="1"/>
<feColorMatrix type="matrix" values="0 0 0 0 0.84 0 0 0 0 0.84 0 0 0 0 0.84 0 0 0 0.4 0"/>
<feBlend mode="normal" in2="effect2_innerShadow" result="effect3_innerShadow"/>
</filter>
</defs>
</svg>
