<svg width="24" height="24" viewBox="0 0 24 24" fill="none" xmlns="http://www.w3.org/2000/svg">
<path d="M21.8906 0H2.10938C0.946266 0 0 0.946266 0 2.10938V16.2188C0 17.3819 0.946266 18.3281 2.10938 18.3281H8.4375V19.7812H7.73438C5.79586 19.7812 4.21875 21.3584 4.21875 23.2969C4.21875 23.6852 4.53356 24 4.92188 24H19.0312C19.4196 24 19.7344 23.6852 19.7344 23.2969C19.7344 21.3584 18.1573 19.7812 16.2188 19.7812H15.5156V18.3281H21.8906C23.0537 18.3281 24 17.3819 24 16.2188V2.10938C24 0.946266 23.0537 0 21.8906 0ZM16.2188 21.1875C17.1354 21.1875 17.9175 21.7753 18.2077 22.5938H5.74547C6.03567 21.7753 6.81769 21.1875 7.73438 21.1875C8.77467 21.1875 15.1361 21.1875 16.2188 21.1875ZM9.84375 19.7812V18.3281H14.1094V19.7812H9.84375ZM22.5938 16.2188C22.5938 16.6065 22.2783 16.9219 21.8906 16.9219C19.1044 16.9219 2.7098 16.9219 2.10938 16.9219C1.72167 16.9219 1.40625 16.6065 1.40625 16.2188V2.10938C1.40625 1.72167 1.72167 1.40625 2.10938 1.40625H21.8906C22.2783 1.40625 22.5938 1.72167 22.5938 2.10938V16.2188Z" fill="#AEAEB2"/>
<path d="M8.23152 3.06536C7.95698 2.79072 7.51176 2.79072 7.23721 3.06531L4.92186 5.38065L4.01277 4.47156C3.73822 4.19697 3.293 4.19697 3.01841 4.47156C2.74381 4.74616 2.74381 5.19133 3.01841 5.46592L4.42466 6.87217C4.56196 7.00951 4.74191 7.07814 4.92186 7.07814C5.10182 7.07814 5.28177 7.00951 5.41902 6.87221L8.23152 4.05972C8.50612 3.78513 8.50612 3.33995 8.23152 3.06536Z" fill="#AEAEB2"/>
<path d="M8.23152 7.28411C7.95698 7.00947 7.51176 7.00947 7.23721 7.28407L4.92186 9.59941L4.01277 8.69032C3.73822 8.41572 3.293 8.41572 3.01841 8.69032C2.74381 8.96491 2.74381 9.41008 3.01841 9.68468L4.42466 11.0909C4.56196 11.2283 4.74191 11.2969 4.92186 11.2969C5.10182 11.2969 5.28177 11.2283 5.41902 11.091L8.23152 8.27847C8.50612 8.00388 8.50612 7.55871 8.23152 7.28411Z" fill="#AEAEB2"/>
<path d="M20.4844 4.26562H10.5469C10.1586 4.26562 9.84375 4.58044 9.84375 4.96875C9.84375 5.35706 10.1586 5.67188 10.5469 5.67188H20.4844C20.8727 5.67188 21.1875 5.35706 21.1875 4.96875C21.1875 4.58044 20.8727 4.26562 20.4844 4.26562Z" fill="#AEAEB2"/>
<path d="M20.4844 8.48438H10.5469C10.1586 8.48438 9.84375 8.79919 9.84375 9.1875C9.84375 9.57581 10.1586 9.89062 10.5469 9.89062H20.4844C20.8727 9.89062 21.1875 9.57581 21.1875 9.1875C21.1875 8.79919 20.8727 8.48438 20.4844 8.48438Z" fill="#AEAEB2"/>
<path d="M20.4844 12.7031H10.5469C10.1586 12.7031 9.84375 13.0179 9.84375 13.4062C9.84375 13.7946 10.1586 14.1094 10.5469 14.1094H20.4844C20.8727 14.1094 21.1875 13.7946 21.1875 13.4062C21.1875 13.0179 20.8727 12.7031 20.4844 12.7031Z" fill="#AEAEB2"/>
<path d="M8.23152 11.5029C7.95698 11.2282 7.51176 11.2282 7.23721 11.5028L4.92186 13.8182L4.01277 12.9091C3.73822 12.6345 3.293 12.6345 3.01841 12.9091C2.74381 13.1837 2.74381 13.6288 3.01841 13.9034L4.42466 15.3097C4.56196 15.447 4.74191 15.5156 4.92186 15.5156C5.10182 15.5156 5.28177 15.447 5.41902 15.3097L8.23152 12.4972C8.50612 12.2226 8.50612 11.7775 8.23152 11.5029Z" fill="#AEAEB2"/>
</svg>
