<svg width="90" height="87" viewBox="0 0 90 87" fill="none" xmlns="http://www.w3.org/2000/svg">
<path d="M76.1798 18.6452C75.772 18.6452 75.4407 18.3165 75.4407 17.912C75.4407 17.5075 75.772 17.1788 76.1798 17.1788C76.5876 17.1788 76.9189 17.5075 76.9189 17.912C76.9253 18.3102 76.5876 18.6452 76.1798 18.6452ZM76.1798 17.5644C75.9887 17.5644 75.8357 17.7161 75.8357 17.9057C75.8357 18.0953 75.9887 18.247 76.1798 18.247C76.371 18.247 76.5239 18.0953 76.5239 17.9057C76.5239 17.7224 76.371 17.5644 76.1798 17.5644Z" fill="#DEDEDE"/>
<path d="M62.092 39.4454C62.0666 39.4075 62.0347 39.3822 61.9901 39.3696C61.9455 39.3569 61.9009 39.3633 61.8627 39.3885L61.2956 39.7172L60.9643 39.1547C60.9388 39.1168 60.9069 39.0915 60.8623 39.0788C60.8177 39.0662 60.7731 39.0725 60.7349 39.0978C60.6966 39.1231 60.6712 39.1547 60.6584 39.1989C60.6457 39.2432 60.652 39.2874 60.6775 39.3253L61.0089 39.8878L60.4418 40.2165C60.4035 40.2418 60.3781 40.2734 60.3653 40.3176C60.3526 40.3619 60.3589 40.4061 60.3844 40.444C60.4099 40.482 60.4418 40.5072 60.4864 40.5199C60.531 40.5325 60.5756 40.5262 60.6138 40.5009L61.1809 40.1723L61.5122 40.7348C61.5504 40.798 61.6205 40.8296 61.6906 40.8169C61.7097 40.8106 61.7289 40.8043 61.7416 40.798C61.8244 40.7537 61.8499 40.6463 61.7989 40.5641L61.4676 40.0016L62.0347 39.673C62.1112 39.6287 62.143 39.5276 62.092 39.4454Z" fill="#DEDEDE"/>
<path d="M63.5193 43.1492C63.1115 43.1492 62.7802 42.8205 62.7802 42.416C62.7802 42.0115 63.1115 41.6829 63.5193 41.6829C63.9271 41.6829 64.2584 42.0115 64.2584 42.416C64.2648 42.8205 63.9335 43.1492 63.5193 43.1492ZM63.5193 42.0747C63.3281 42.0747 63.1752 42.2264 63.1752 42.416C63.1752 42.6056 63.3281 42.7573 63.5193 42.7573C63.7104 42.7573 63.8634 42.6056 63.8634 42.416C63.8634 42.2264 63.7104 42.0747 63.5193 42.0747Z" fill="#DEDEDE"/>
<path d="M86.674 66.4082C86.6358 66.4271 86.6039 66.4651 86.5848 66.503C86.572 66.5472 86.572 66.5915 86.5912 66.6294L86.8779 67.2109L86.2917 67.4953C86.2535 67.5143 86.2216 67.5522 86.2025 67.5901C86.1897 67.6343 86.1897 67.6786 86.2088 67.7165C86.228 67.7544 86.2662 67.786 86.3044 67.805C86.349 67.8176 86.3936 67.8176 86.4319 67.7987L87.0181 67.5143L87.3048 68.0957C87.3239 68.1337 87.3621 68.1653 87.4004 68.1842C87.445 68.1969 87.4896 68.1969 87.5278 68.1779C87.566 68.1589 87.5979 68.121 87.617 68.0831C87.6297 68.0388 87.6297 67.9946 87.6106 67.9567L87.3239 67.3752L87.9101 67.0908C87.9738 67.0592 88.012 66.9897 88.0057 66.9201C88.0057 66.9012 87.9993 66.8822 87.9866 66.8633C87.9483 66.7811 87.8464 66.7432 87.7572 66.7874L87.171 67.0718L86.8842 66.4904C86.8651 66.4019 86.7632 66.3639 86.674 66.4082Z" fill="#DEDEDE"/>
<path d="M71.2864 80.8186C70.8786 80.8186 70.5472 80.49 70.5472 80.0855C70.5472 79.681 70.8786 79.3523 71.2864 79.3523C71.6942 79.3523 72.0255 79.681 72.0255 80.0855C72.0318 80.49 71.6942 80.8186 71.2864 80.8186ZM71.2864 79.7442C71.0952 79.7442 70.9423 79.8958 70.9423 80.0855C70.9423 80.2751 71.0952 80.4268 71.2864 80.4268C71.4775 80.4268 71.6304 80.2751 71.6304 80.0855C71.6304 79.8958 71.4775 79.7442 71.2864 79.7442Z" fill="#DEDEDE"/>
<path d="M0.121062 75.0481C0.0892035 75.0797 0.0700885 75.1177 0.0637168 75.1619C0.0637168 75.2061 0.0764602 75.2504 0.108319 75.282L0.547965 75.7687L0.0573451 76.2048C0.0254867 76.2364 0.00637168 76.2743 0 76.3185C0 76.3628 0.0127434 76.407 0.0446018 76.4386C0.0764602 76.4702 0.11469 76.4892 0.159292 76.4955C0.203894 76.4955 0.248496 76.4829 0.280354 76.4513L0.770973 76.0152L1.21062 76.5018C1.24248 76.5334 1.28071 76.5524 1.32531 76.5587C1.36991 76.5587 1.41451 76.5461 1.44637 76.5145C1.47823 76.4829 1.49735 76.4449 1.50372 76.4007C1.50372 76.3565 1.49097 76.3122 1.45912 76.2806L1.01947 75.7939L1.51009 75.3578C1.56743 75.3073 1.58018 75.2314 1.55469 75.1682C1.54832 75.1493 1.53558 75.1366 1.52283 75.1177C1.45912 75.0481 1.3508 75.0418 1.28071 75.105L0.790088 75.5411L0.350442 75.0545C0.299469 74.9913 0.19115 74.9849 0.121062 75.0481Z" fill="#DEDEDE"/>
<path d="M14.5338 87C14.126 87 13.7947 86.6714 13.7947 86.2669C13.7947 85.8623 14.126 85.5337 14.5338 85.5337C14.9416 85.5337 15.2729 85.8623 15.2729 86.2669C15.2729 86.6714 14.9416 87 14.5338 87ZM14.5338 85.9192C14.3427 85.9192 14.1897 86.0709 14.1897 86.2605C14.1897 86.4501 14.3427 86.6018 14.5338 86.6018C14.725 86.6018 14.8779 86.4501 14.8779 86.2605C14.8779 86.0772 14.7186 85.9192 14.5338 85.9192Z" fill="#DEDEDE"/>
<path d="M1.13416 30.5274C1.10231 30.559 1.08319 30.5969 1.08319 30.6475C1.08319 30.6917 1.09593 30.7359 1.12779 30.7675L1.57381 31.2416L1.09593 31.684C1.06408 31.7156 1.04496 31.7535 1.04496 31.8041C1.04496 31.8483 1.0577 31.8926 1.08956 31.9242C1.12142 31.9558 1.15965 31.9747 1.21062 31.9747C1.25523 31.9747 1.29983 31.9621 1.33169 31.9305L1.80956 31.4881L2.25558 31.9621C2.28744 31.9937 2.32567 32.0127 2.37664 32.0127C2.42124 32.0127 2.46585 32 2.4977 31.9684C2.52956 31.9368 2.54868 31.8989 2.54868 31.8483C2.54868 31.8041 2.53593 31.7598 2.50408 31.7282L2.05806 31.2542L2.53593 30.8118C2.58691 30.7612 2.60602 30.6854 2.57416 30.6222C2.56779 30.6032 2.55505 30.5906 2.54231 30.5779C2.47859 30.5084 2.37027 30.5084 2.30018 30.5716L1.82231 31.014L1.37629 30.54C1.3062 30.4642 1.19788 30.4642 1.13416 30.5274Z" fill="#DEDEDE"/>
<path d="M6.07858 35.6532C5.67079 35.6532 5.33947 35.3246 5.33947 34.9201C5.33947 34.5155 5.67079 34.1869 6.07858 34.1869C6.48637 34.1869 6.8177 34.5155 6.8177 34.9201C6.82407 35.3246 6.48637 35.6532 6.07858 35.6532ZM6.07858 34.5787C5.88743 34.5787 5.73451 34.7304 5.73451 34.9201C5.73451 35.1097 5.88743 35.2614 6.07858 35.2614C6.26973 35.2614 6.42265 35.1097 6.42265 34.9201C6.42265 34.7304 6.26973 34.5787 6.07858 34.5787Z" fill="#DEDEDE"/>
<path d="M88.8722 36.6898C88.8276 36.6962 88.7894 36.7214 88.7575 36.753C88.732 36.791 88.7193 36.8352 88.7257 36.8795L88.8212 37.5241L88.1713 37.6189C88.1267 37.6253 88.0885 37.6505 88.0566 37.6821C88.0312 37.7201 88.0184 37.7643 88.0248 37.8085C88.0312 37.8528 88.0566 37.8907 88.0885 37.9223C88.1267 37.9476 88.1713 37.9602 88.2159 37.9539L88.8658 37.8591L88.9614 38.5038C88.9678 38.548 88.9933 38.586 89.0251 38.6176C89.0634 38.6428 89.108 38.6555 89.1526 38.6492C89.1972 38.6428 89.2354 38.6176 89.2673 38.586C89.2927 38.548 89.3055 38.5038 89.2991 38.4595L89.2035 37.8149L89.8535 37.7201C89.9235 37.7074 89.9809 37.6569 89.9936 37.5873C90 37.5684 90 37.5494 89.9936 37.5305C89.9809 37.4356 89.8917 37.3724 89.8025 37.3851L89.1526 37.4799L89.057 36.8352C89.0506 36.7404 88.9614 36.6772 88.8722 36.6898Z" fill="#DEDEDE"/>
<path d="M36.2485 6.984C36.2039 6.97768 36.1593 6.99032 36.1211 7.02192C36.0828 7.04721 36.0637 7.09145 36.0574 7.13569L35.9873 7.78037L35.3373 7.71085C35.2927 7.70453 35.2481 7.71717 35.2099 7.74877C35.1717 7.77405 35.1526 7.81829 35.1462 7.86253C35.1398 7.90678 35.1526 7.95102 35.1844 7.98894C35.2099 8.02686 35.2545 8.04583 35.2991 8.05215L35.949 8.12167L35.8789 8.76635C35.8726 8.81059 35.8853 8.85483 35.9172 8.89276C35.9427 8.93068 35.9873 8.94964 36.0319 8.95596C36.0765 8.96228 36.1211 8.94964 36.1593 8.91804C36.1975 8.89276 36.2166 8.84851 36.223 8.80427L36.2931 8.15959L36.943 8.22912C37.0195 8.23544 37.0832 8.19751 37.1151 8.13431C37.1214 8.11535 37.1278 8.09639 37.1278 8.07743C37.1405 7.98262 37.0705 7.90046 36.9749 7.89414L36.325 7.82461L36.3951 7.17993C36.4078 7.07881 36.3441 6.99664 36.2485 6.984Z" fill="#DEDEDE"/>
<path d="M72.3249 0C70.6237 0 69.2474 1.3652 69.2474 3.05274V31.229C69.2474 33.4411 67.4379 35.2298 65.2141 35.2298H45.1688V3.77959C45.1688 1.69386 46.8764 0 48.9791 0H72.3249Z" fill="#F2F2F2"/>
<path d="M65.2142 35.2298H55.0258V18.2533C55.0258 16.5658 56.4021 15.2006 58.1034 15.2006C58.9508 15.2006 59.7218 15.5419 60.2761 16.0917C60.8305 16.6416 61.1745 17.4064 61.1745 18.247V31.2227C61.1745 33.4349 62.9841 35.2298 65.2142 35.2298Z" fill="#DEDEDE"/>
<path d="M58.1034 15.2069C56.4021 15.2069 55.0258 16.5721 55.0258 18.2597V75.0482C55.0258 76.0911 54.5989 77.0392 53.9108 77.7218C53.2226 78.4044 52.2669 78.8278 51.2156 78.8278H21.6255C19.5228 78.8278 17.8152 77.134 17.8152 75.0482V18.9865C17.8152 16.9008 19.5228 15.2069 21.6255 15.2069H58.1034Z" fill="#F2F2F2"/>
<path d="M51.2156 78.8214H12.9982C10.8956 78.8214 9.18796 77.1276 9.18796 75.0419V72.7223H47.4053V75.0419C47.4053 77.1339 49.1129 78.8214 51.2156 78.8214Z" fill="#DEDEDE"/>
<path d="M45.1688 15.3142H58.1034" stroke="#DEDEDE" stroke-width="5" stroke-miterlimit="10"/>
<path d="M72.2421 71.4962C71.675 72.0587 70.7575 72.0587 70.1904 71.4962L61.3911 62.7614L60.2697 61.6491C61.0853 61.1181 61.7798 60.4229 62.3214 59.6139L72.2421 69.4547C72.8092 70.0235 72.8092 70.9337 72.2421 71.4962Z" fill="#9C9C9C"/>
<path d="M62.7674 60.0626L65.0612 62.338C64.526 63.147 63.8251 63.8359 63.0096 64.3731L61.8372 63.2102L60.7158 62.0978C61.5313 61.5606 62.2322 60.8716 62.7674 60.0626Z" fill="#5E5E5E"/>
<path d="M65.0549 55.3223C65.0421 54.9557 64.9975 54.5891 64.9402 54.2352C64.5961 52.219 63.5448 50.4367 62.0538 49.1473C60.5182 47.82 58.5112 47.0173 56.3193 47.0173C51.4896 47.0173 47.5773 50.898 47.5773 55.6952C47.5773 56.0239 47.5965 56.3525 47.6347 56.6749C47.7494 57.6861 48.0361 58.6405 48.4694 59.5127C49.0938 60.7705 50.0113 61.8513 51.1391 62.6792C51.3239 62.812 51.5087 62.9384 51.7062 63.0584C53.0442 63.8864 54.6308 64.3668 56.3257 64.3668C58.2181 64.3668 59.9703 63.7727 61.3975 62.7614C62.1876 62.1989 62.8821 61.5163 63.4492 60.7262C64.0163 59.9362 64.4559 59.0513 64.7299 58.097C64.9529 57.3322 65.0676 56.5295 65.0676 55.6952C65.0612 55.5688 65.0549 55.4487 65.0549 55.3223ZM56.3129 62.8246C54.7391 62.8246 53.2864 62.3253 52.1012 61.472C50.9543 60.6441 50.0559 59.4938 49.5589 58.1475C49.2786 57.3828 49.1193 56.5548 49.1193 55.6889C49.1193 55.3665 49.1384 55.0442 49.183 54.7282C49.5398 52.0863 51.3621 49.8994 53.8089 48.9956C54.5862 48.7112 55.4273 48.5532 56.3066 48.5532C56.6251 48.5532 56.9373 48.5721 57.2432 48.6164C58.7023 48.806 60.0212 49.4254 61.0662 50.3482C62.5508 51.6565 63.4938 53.5652 63.4938 55.6889C63.4938 55.7963 63.4938 55.9038 63.4874 56.0112C63.4619 56.5358 63.3855 57.0414 63.2517 57.5344C63.0478 58.2802 62.7292 58.9818 62.3087 59.6138C61.7735 60.4229 61.0726 61.1118 60.257 61.649C60.0595 61.7817 59.8492 61.9018 59.6389 62.0093C59.1865 62.2431 58.7023 62.4391 58.1926 62.5718C57.6 62.7424 56.9692 62.8246 56.3129 62.8246Z" fill="#B8B8B8"/>
<path d="M50.8715 56.479C50.502 56.479 50.2025 56.1819 50.2025 55.8153C50.2025 54.1657 50.8524 52.6109 52.0312 51.4416C53.2099 50.2724 54.7773 49.6277 56.4404 49.6277C56.8099 49.6277 57.1094 49.9247 57.1094 50.2913C57.1094 50.6579 56.8099 50.955 56.4404 50.955C55.1342 50.955 53.9044 51.4606 52.9805 52.3771C52.0566 53.2935 51.5469 54.5133 51.5469 55.809C51.5405 56.1819 51.2411 56.479 50.8715 56.479Z" fill="white"/>
</svg>
