<svg width="50" height="50" viewBox="0 0 50 50" fill="none" xmlns="http://www.w3.org/2000/svg">
<rect opacity="0.1" width="50" height="50" rx="10" fill="#6F2FAE"/>
<g filter="url(#filter0_bii)">
<rect width="50" height="50" rx="10" fill="white" fill-opacity="0.1"/>
</g>
<path d="M34.5158 15.6034C34.4668 15.6014 34.4177 15.6011 34.3686 15.6024H32.518V14.0121C32.5181 13.3759 31.9108 13 31.2747 13H29.5687C28.9325 13 28.4699 13.3759 28.4699 14.0121V15.6024H21.5301V14.0121C21.5301 13.3759 21.0675 13 20.4313 13H18.7252C18.0892 13 17.4819 13.3759 17.4819 14.0121V15.6024H15.6313C14.45 15.5695 13.4657 16.5004 13.4328 17.6817C13.4314 17.7307 13.4317 17.7799 13.4337 17.8289V34.5421C13.4337 35.8144 14.359 36.9999 15.6313 36.9999H34.3687C35.641 36.9999 36.5663 35.8144 36.5663 34.5421V17.8289C36.6146 16.6482 35.6966 15.6518 34.5158 15.6034ZM29.5687 14.1566H31.3614V17.3373H29.5687V14.1566ZM18.7253 14.1566H20.3735V17.3373H18.7253V14.1566ZM35.4096 34.5421C35.4096 35.1783 35.0048 35.8433 34.3687 35.8433H15.6313C14.9952 35.8433 14.5904 35.1783 14.5904 34.5421V22.253H35.4096V34.5421ZM35.4096 17.8289V21.0964H14.5903V17.8289C14.5413 17.2882 14.94 16.8101 15.4807 16.7611C15.5308 16.7566 15.5811 16.7559 15.6313 16.7591H17.4819V17.3952C17.4819 18.0314 18.0891 18.494 18.7252 18.494H20.4313C21.022 18.5102 21.5139 18.0445 21.5301 17.4538C21.5306 17.4343 21.5306 17.4148 21.5301 17.3952V16.759H28.4699V17.3952C28.4536 17.9858 28.9194 18.4777 29.51 18.494C29.5296 18.4945 29.5491 18.4945 29.5687 18.494H31.2747C31.9109 18.494 32.5181 18.0313 32.5181 17.3952V16.759H34.3687C34.9106 16.7249 35.3775 17.1365 35.4117 17.6784C35.4148 17.7285 35.4142 17.7789 35.4096 17.8289Z" fill="#6F2FAE"/>
<path d="M21.7903 30.147L21.2699 33.0386C21.2493 33.1626 21.2696 33.29 21.3279 33.4014C21.476 33.6844 21.8254 33.7938 22.1084 33.6458L24.7108 32.2867L27.3132 33.6458L27.5734 33.7036C27.6989 33.7058 27.8214 33.665 27.9204 33.5879C28.0932 33.4617 28.1822 33.2504 28.1517 33.0385L27.6313 30.1469L29.7421 28.1229C29.8931 27.9597 29.9479 27.7294 29.8867 27.5157C29.8088 27.3181 29.6333 27.1756 29.424 27.1398L26.5325 26.706L25.2313 24.0747C25.1745 23.9576 25.08 23.863 24.9629 23.8063C24.6754 23.6671 24.3296 23.7873 24.1903 24.0747L22.8891 26.706L19.9976 27.1398C19.7882 27.1755 19.6128 27.3181 19.5349 27.5157C19.4736 27.7294 19.5285 27.9597 19.6795 28.1229L21.7903 30.147ZM23.3807 27.8048C23.5623 27.7777 23.7162 27.6568 23.7855 27.4868L24.7108 25.6362L25.6361 27.4868C25.7055 27.6568 25.8593 27.7777 26.0409 27.8048L28.0939 28.094L26.6192 29.5108C26.4818 29.6468 26.4174 29.8401 26.4457 30.0313L26.7926 32.0843L24.971 31.1012L24.7107 31.0434L24.4505 31.1012L22.6288 32.0843L22.9758 30.0313C23.0041 29.8401 22.9397 29.6468 22.8023 29.5108L21.3276 28.094L23.3807 27.8048Z" fill="#6F2FAE"/>
<defs>
<filter id="filter0_bii" x="-6.66667" y="-6.66667" width="63.3333" height="63.3333" filterUnits="userSpaceOnUse" color-interpolation-filters="sRGB">
<feFlood flood-opacity="0" result="BackgroundImageFix"/>
<feGaussianBlur in="BackgroundImage" stdDeviation="3.33333"/>
<feComposite in2="SourceAlpha" operator="in" result="effect1_backgroundBlur"/>
<feBlend mode="normal" in="SourceGraphic" in2="effect1_backgroundBlur" result="shape"/>
<feColorMatrix in="SourceAlpha" type="matrix" values="0 0 0 0 0 0 0 0 0 0 0 0 0 0 0 0 0 0 127 0" result="hardAlpha"/>
<feOffset dx="-0.666667" dy="0.666667"/>
<feGaussianBlur stdDeviation="0.333333"/>
<feComposite in2="hardAlpha" operator="arithmetic" k2="-1" k3="1"/>
<feColorMatrix type="matrix" values="0 0 0 0 1 0 0 0 0 1 0 0 0 0 1 0 0 0 0.4 0"/>
<feBlend mode="normal" in2="shape" result="effect2_innerShadow"/>
<feColorMatrix in="SourceAlpha" type="matrix" values="0 0 0 0 0 0 0 0 0 0 0 0 0 0 0 0 0 0 127 0" result="hardAlpha"/>
<feOffset dx="0.666667" dy="-0.666667"/>
<feGaussianBlur stdDeviation="0.333333"/>
<feComposite in2="hardAlpha" operator="arithmetic" k2="-1" k3="1"/>
<feColorMatrix type="matrix" values="0 0 0 0 0.84 0 0 0 0 0.84 0 0 0 0 0.84 0 0 0 0.4 0"/>
<feBlend mode="normal" in2="effect2_innerShadow" result="effect3_innerShadow"/>
</filter>
</defs>
</svg>
