<svg width="16" height="16" viewBox="0 0 16 16" fill="none" xmlns="http://www.w3.org/2000/svg">
<path d="M7.99998 13.1714C5.00531 13.1714 2.13799 10.9681 0.245314 8.68082C-0.0817714 8.28551 -0.0817714 7.71167 0.245314 7.31638C0.721178 6.74128 1.71841 5.63175 3.05056 4.66207C6.40584 2.21982 9.58762 2.21511 12.9494 4.66207C14.5144 5.80122 15.7546 7.29501 15.7546 7.31638C16.0817 7.71167 16.0817 8.28551 15.7546 8.68079C13.8622 10.9678 10.9953 13.1714 7.99998 13.1714ZM7.99998 3.81112C4.6825 3.81112 1.80675 6.97486 1.00442 7.94451C0.978493 7.97585 0.978493 8.02136 1.00442 8.0527C1.80678 9.02235 4.6825 12.1861 7.99998 12.1861C11.3174 12.1861 14.1932 9.02235 14.9955 8.0527C15.0423 7.99614 14.9925 7.94451 14.9955 7.94451C14.1932 6.97486 11.3174 3.81112 7.99998 3.81112Z" fill="#828282"/>
<path d="M8.00002 11.4471C6.09851 11.4471 4.55151 9.90009 4.55151 7.99857C4.55151 6.09705 6.09851 4.55005 8.00002 4.55005C9.90153 4.55005 11.4485 6.09705 11.4485 7.99857C11.4485 9.90009 9.90153 11.4471 8.00002 11.4471ZM8.00002 5.53534C6.6418 5.53534 5.5368 6.64035 5.5368 7.99857C5.5368 9.3568 6.6418 10.4618 8.00002 10.4618C9.35824 10.4618 10.4632 9.3568 10.4632 7.99857C10.4632 6.64035 9.35824 5.53534 8.00002 5.53534Z" fill="#828282"/>
</svg>
