<svg width="24" height="25" viewBox="0 0 24 25" fill="none" xmlns="http://www.w3.org/2000/svg">
<path d="M22 5.53749V17.4275C22 18.3975 21.21 19.2875 20.24 19.4075L19.93 19.4475C18.29 19.6675 15.98 20.3475 14.12 21.1275C13.47 21.3975 12.75 20.9075 12.75 20.1975V6.28749C12.75 5.91749 12.96 5.57749 13.29 5.39749C15.12 4.40749 17.89 3.52749 19.77 3.36749H19.83C21.03 3.36749 22 4.33749 22 5.53749Z" fill="#EE493D"/>
<path d="M10.71 5.39749C8.87999 4.40749 6.10999 3.52749 4.22999 3.36749H4.15999C2.95999 3.36749 1.98999 4.33749 1.98999 5.53749V17.4275C1.98999 18.3975 2.77999 19.2875 3.74999 19.4075L4.05999 19.4475C5.69999 19.6675 8.00999 20.3475 9.86999 21.1275C10.52 21.3975 11.24 20.9075 11.24 20.1975V6.28749C11.24 5.90749 11.04 5.57749 10.71 5.39749ZM4.99999 8.42749H7.24999C7.65999 8.42749 7.99999 8.76749 7.99999 9.17749C7.99999 9.59749 7.65999 9.92749 7.24999 9.92749H4.99999C4.58999 9.92749 4.24999 9.59749 4.24999 9.17749C4.24999 8.76749 4.58999 8.42749 4.99999 8.42749ZM7.99999 12.9275H4.99999C4.58999 12.9275 4.24999 12.5975 4.24999 12.1775C4.24999 11.7675 4.58999 11.4275 4.99999 11.4275H7.99999C8.40999 11.4275 8.74999 11.7675 8.74999 12.1775C8.74999 12.5975 8.40999 12.9275 7.99999 12.9275Z" fill="#EE493D"/>
</svg>
