<svg width="24" height="24" viewBox="0 0 24 24" fill="none" xmlns="http://www.w3.org/2000/svg">
<path d="M19.875 0H6.46875C4.76283 0 3.375 1.38783 3.375 3.09375V20.625C3.375 22.486 4.88902 24 6.75 24H19.875C20.2892 24 20.625 23.6642 20.625 23.25C20.625 22.8358 20.2892 22.5 19.875 22.5H6.75C5.71613 22.5 4.875 21.6589 4.875 20.625C4.875 19.5911 5.71613 18.75 6.75 18.75H19.875C20.2892 18.75 20.625 18.4142 20.625 18V0.75C20.625 0.335812 20.2892 0 19.875 0ZM4.875 17.4108V3.09375C4.875 2.21353 5.58853 1.5 6.46875 1.5H6.51562C6.64505 1.5 6.75 1.60495 6.75 1.73438V17.0233C6.75 17.1459 6.65564 17.2491 6.53334 17.2569C6.06061 17.287 5.61408 17.415 5.21372 17.6206C5.05889 17.7001 4.875 17.5848 4.875 17.4108Z" fill="#3D4FA4"/>
<path d="M19.875 19.875H6.75C6.33577 19.875 6 20.2108 6 20.625C6 21.0392 6.33577 21.375 6.75 21.375H19.875C20.2892 21.375 20.625 21.0392 20.625 20.625C20.625 20.2108 20.2892 19.875 19.875 19.875Z" fill="#3D4FA4"/>
</svg>
