<svg width="24" height="24" viewBox="0 0 24 24" fill="none" xmlns="http://www.w3.org/2000/svg">
<path d="M22 4.84999V16.74C22 17.71 21.21 18.6 20.24 18.72L19.93 18.76C18.29 18.98 15.98 19.66 14.12 20.44C13.47 20.71 12.75 20.22 12.75 19.51V5.59999C12.75 5.22999 12.96 4.88999 13.29 4.70999C15.12 3.71999 17.89 2.83999 19.77 2.67999H19.83C21.03 2.67999 22 3.64999 22 4.84999Z" fill="#39A45A"/>
<path d="M10.71 4.70999C8.87999 3.71999 6.10999 2.83999 4.22999 2.67999H4.15999C2.95999 2.67999 1.98999 3.64999 1.98999 4.84999V16.74C1.98999 17.71 2.77999 18.6 3.74999 18.72L4.05999 18.76C5.69999 18.98 8.00999 19.66 9.86999 20.44C10.52 20.71 11.24 20.22 11.24 19.51V5.59999C11.24 5.21999 11.04 4.88999 10.71 4.70999ZM4.99999 7.73999H7.24999C7.65999 7.73999 7.99999 8.07999 7.99999 8.48999C7.99999 8.90999 7.65999 9.23999 7.24999 9.23999H4.99999C4.58999 9.23999 4.24999 8.90999 4.24999 8.48999C4.24999 8.07999 4.58999 7.73999 4.99999 7.73999ZM7.99999 12.24H4.99999C4.58999 12.24 4.24999 11.91 4.24999 11.49C4.24999 11.08 4.58999 10.74 4.99999 10.74H7.99999C8.40999 10.74 8.74999 11.08 8.74999 11.49C8.74999 11.91 8.40999 12.24 7.99999 12.24Z" fill="#39A45A"/>
</svg>
