<svg width="14" height="14" viewBox="0 0 14 14" fill="none" xmlns="http://www.w3.org/2000/svg">
<path d="M9.66666 0.333328H4.33333C1.66666 0.333328 0.333328 1.66666 0.333328 4.33333V13C0.333328 13.3667 0.633328 13.6667 0.999995 13.6667H9.66666C12.3333 13.6667 13.6667 12.3333 13.6667 9.66666V4.33333C13.6667 1.66666 12.3333 0.333328 9.66666 0.333328ZM8.33333 9.16666H3.66666C3.39333 9.16666 3.16666 8.93999 3.16666 8.66666C3.16666 8.39333 3.39333 8.16666 3.66666 8.16666H8.33333C8.60666 8.16666 8.83333 8.39333 8.83333 8.66666C8.83333 8.93999 8.60666 9.16666 8.33333 9.16666ZM10.3333 5.83333H3.66666C3.39333 5.83333 3.16666 5.60666 3.16666 5.33333C3.16666 5.06 3.39333 4.83333 3.66666 4.83333H10.3333C10.6067 4.83333 10.8333 5.06 10.8333 5.33333C10.8333 5.60666 10.6067 5.83333 10.3333 5.83333Z" fill="#AEAEB2"/>
</svg>
