<svg width="24" height="25" viewBox="0 0 24 25" fill="none" xmlns="http://www.w3.org/2000/svg">
<path d="M23.3555 10.4399C23.3547 10.4393 23.3542 10.4386 23.3536 10.4381L13.5626 0.647343C13.1452 0.229821 12.5903 0 12.0001 0C11.4099 0 10.8551 0.229821 10.4375 0.647343L0.65158 10.4331C0.648283 10.4364 0.644804 10.4399 0.641691 10.4432C-0.215329 11.3052 -0.213864 12.7037 0.645903 13.5634C1.0387 13.9564 1.55731 14.1839 2.11199 14.2079C2.1347 14.2101 2.15741 14.2112 2.1803 14.2112H2.57035V21.4163C2.57035 22.8423 3.73063 24.0024 5.15661 24.0024H8.9872C9.3756 24.0024 9.6904 23.6874 9.6904 23.2992V17.6502C9.6904 16.9996 10.2198 16.4704 10.8704 16.4704H13.1298C13.7805 16.4704 14.3097 16.9996 14.3097 17.6502V23.2992C14.3097 23.6874 14.6245 24.0024 15.0129 24.0024H18.8435C20.2696 24.0024 21.4297 22.8423 21.4297 21.4163V14.2112H21.7916C22.3816 14.2112 22.9365 13.9813 23.3542 13.5636C24.2149 12.7026 24.2152 11.3015 23.3555 10.4399ZM22.3596 12.5693C22.2078 12.7211 22.006 12.8048 21.7916 12.8048H20.7265C20.3381 12.8048 20.0233 13.1195 20.0233 13.508V21.4163C20.0233 22.0668 19.4941 22.596 18.8435 22.596H15.7161V17.6502C15.7161 16.2242 14.556 15.064 13.1298 15.064H10.8704C9.44428 15.064 8.284 16.2242 8.284 17.6502V22.596H5.15661C4.50616 22.596 3.97674 22.0668 3.97674 21.4163V13.508C3.97674 13.1195 3.66195 12.8048 3.27355 12.8048H2.22681C2.21582 12.804 2.20502 12.8035 2.19385 12.8033C1.98436 12.7996 1.78786 12.7165 1.64063 12.5691C1.32749 12.2559 1.32749 11.7463 1.64063 11.433C1.64082 11.433 1.64082 11.4328 1.641 11.4326L1.64155 11.4321L11.4323 1.64171C11.5839 1.4899 11.7855 1.40639 12.0001 1.40639C12.2146 1.40639 12.4162 1.4899 12.568 1.64171L22.3565 11.43C22.358 11.4315 22.3596 11.433 22.3611 11.4344C22.6726 11.7481 22.6721 12.2567 22.3596 12.5693Z" fill="#8E8E93"/>
</svg>
