<svg width="50" height="50" viewBox="0 0 50 50" fill="none" xmlns="http://www.w3.org/2000/svg">
<rect opacity="0.1" width="50" height="50" rx="10" fill="#F6AB00"/>
<g filter="url(#filter0_bii)">
<rect width="50" height="50" rx="10" fill="white" fill-opacity="0.1"/>
</g>
<g clip-path="url(#clip0)">
<path d="M34.2852 16.8462C34.2831 16.8112 34.2761 16.7767 34.2648 16.7436C34.2601 16.7296 34.2544 16.716 34.2482 16.7026C34.2332 16.6731 34.2149 16.6457 34.1932 16.6209C34.1847 16.6113 34.1784 16.6007 34.1692 16.5918C34.1665 16.5892 34.1648 16.5857 34.1622 16.5833L30.2912 13.0994C30.205 13.0221 30.0886 12.9877 29.9742 13.0059C29.9642 13.0059 29.9561 13 29.9459 13H16.0968C15.883 13 15.7097 13.1733 15.7097 13.3871V36.6129C15.7097 36.8267 15.883 37 16.0968 37H33.9032C34.117 37 34.2903 36.8267 34.2903 36.6129V16.871C34.2903 16.8621 34.286 16.8547 34.2852 16.8462ZM30.4194 14.2562L32.8967 16.4839H30.4194V14.2562ZM16.4839 36.2258V13.7742H29.6452V16.871C29.6452 17.0847 29.8185 17.2581 30.0323 17.2581H33.5161V36.2258H16.4839Z" fill="#F6AB00"/>
<path d="M18.0323 32.742H21.129C21.3428 32.742 21.5161 32.5686 21.5161 32.3549C21.5161 32.1411 21.3428 31.9678 21.129 31.9678H18.0323C17.8185 31.9678 17.6452 32.1411 17.6452 32.3549C17.6452 32.5686 17.8185 32.742 18.0323 32.742Z" fill="#F6AB00"/>
<path d="M18.0323 25H21.129C21.3428 25 21.5161 24.8267 21.5161 24.6129C21.5161 24.3992 21.3428 24.2258 21.129 24.2258H18.0323C17.8185 24.2258 17.6452 24.3992 17.6452 24.6129C17.6452 24.8267 17.8185 25 18.0323 25Z" fill="#F6AB00"/>
<path d="M31.9677 24.2258H22.6774C22.4636 24.2258 22.2903 24.3992 22.2903 24.6129C22.2903 24.8267 22.4636 25 22.6774 25H31.9677C32.1815 25 32.3548 24.8267 32.3548 24.6129C32.3548 24.3992 32.1815 24.2258 31.9677 24.2258Z" fill="#F6AB00"/>
<path d="M31.9677 26.9355H28.871C28.6572 26.9355 28.4839 27.1088 28.4839 27.3226C28.4839 27.5364 28.6572 27.7097 28.871 27.7097H31.9677C32.1815 27.7097 32.3548 27.5364 32.3548 27.3226C32.3548 27.1088 32.1815 26.9355 31.9677 26.9355Z" fill="#F6AB00"/>
<path d="M27.3226 26.9355H18.0323C17.8185 26.9355 17.6452 27.1088 17.6452 27.3226C17.6452 27.5364 17.8185 27.7097 18.0323 27.7097H27.3226C27.5364 27.7097 27.7097 27.5364 27.7097 27.3226C27.7097 27.1088 27.5364 26.9355 27.3226 26.9355Z" fill="#F6AB00"/>
<path d="M25 33.9032H18.0323C17.8185 33.9032 17.6452 34.0765 17.6452 34.2903C17.6452 34.5041 17.8185 34.6774 18.0323 34.6774H25C25.2138 34.6774 25.3871 34.5041 25.3871 34.2903C25.3871 34.0765 25.2138 33.9032 25 33.9032Z" fill="#F6AB00"/>
<path d="M25 30.0322H18.0323C17.8185 30.0322 17.6452 30.2056 17.6452 30.4193C17.6452 30.6331 17.8185 30.8064 18.0323 30.8064H25C25.2138 30.8064 25.3871 30.6331 25.3871 30.4193C25.3871 30.2056 25.2138 30.0322 25 30.0322Z" fill="#F6AB00"/>
<path d="M31.9677 21.5161H18.0323C17.8185 21.5161 17.6452 21.6894 17.6452 21.9032C17.6452 22.117 17.8185 22.2903 18.0323 22.2903H31.9677C32.1815 22.2903 32.3548 22.117 32.3548 21.9032C32.3548 21.6894 32.1815 21.5161 31.9677 21.5161Z" fill="#F6AB00"/>
<path d="M19.0801 17.9188L19.5806 17.4183V20.3548C19.5806 20.5686 19.754 20.7419 19.9677 20.7419C20.1815 20.7419 20.3548 20.5686 20.3548 20.3548V16.4839C20.3548 16.3274 20.2605 16.1862 20.1159 16.1262C19.9713 16.0663 19.8048 16.0996 19.694 16.2102L18.5328 17.3715C18.3861 17.5234 18.3882 17.7648 18.5375 17.9141C18.6868 18.0634 18.9282 18.0655 19.0801 17.9188Z" fill="#F6AB00"/>
<path d="M31.1935 33.9032H29.8461C30.3972 33.4343 30.8805 32.8909 31.2822 32.2887C31.5619 31.819 31.5687 31.2353 31.3 30.7592C31.041 30.3044 30.5556 30.026 30.0323 30.0323C29.1772 30.0323 28.4839 30.7256 28.4839 31.5806C28.4839 31.7944 28.6572 31.9677 28.871 31.9677C29.0847 31.9677 29.2581 31.7944 29.2581 31.5806C29.2581 31.1531 29.6047 30.8065 30.0323 30.8065C30.2782 30.7985 30.5078 30.9282 30.628 31.1429C30.759 31.3775 30.7547 31.664 30.6167 31.8946C30.2162 32.4749 29.7383 32.9979 29.1968 33.4496C28.9863 33.6431 28.7819 33.8323 28.5977 34.0166C28.4871 34.1274 28.454 34.2937 28.5137 34.4383C28.5735 34.5829 28.7145 34.6772 28.871 34.6774H31.1935C31.4073 34.6774 31.5806 34.5041 31.5806 34.2903C31.5806 34.0765 31.4073 33.9032 31.1935 33.9032Z" fill="#F6AB00"/>
</g>
<defs>
<filter id="filter0_bii" x="-6.66667" y="-6.66667" width="63.3333" height="63.3333" filterUnits="userSpaceOnUse" color-interpolation-filters="sRGB">
<feFlood flood-opacity="0" result="BackgroundImageFix"/>
<feGaussianBlur in="BackgroundImage" stdDeviation="3.33333"/>
<feComposite in2="SourceAlpha" operator="in" result="effect1_backgroundBlur"/>
<feBlend mode="normal" in="SourceGraphic" in2="effect1_backgroundBlur" result="shape"/>
<feColorMatrix in="SourceAlpha" type="matrix" values="0 0 0 0 0 0 0 0 0 0 0 0 0 0 0 0 0 0 127 0" result="hardAlpha"/>
<feOffset dx="-0.666667" dy="0.666667"/>
<feGaussianBlur stdDeviation="0.333333"/>
<feComposite in2="hardAlpha" operator="arithmetic" k2="-1" k3="1"/>
<feColorMatrix type="matrix" values="0 0 0 0 1 0 0 0 0 1 0 0 0 0 1 0 0 0 0.4 0"/>
<feBlend mode="normal" in2="shape" result="effect2_innerShadow"/>
<feColorMatrix in="SourceAlpha" type="matrix" values="0 0 0 0 0 0 0 0 0 0 0 0 0 0 0 0 0 0 127 0" result="hardAlpha"/>
<feOffset dx="0.666667" dy="-0.666667"/>
<feGaussianBlur stdDeviation="0.333333"/>
<feComposite in2="hardAlpha" operator="arithmetic" k2="-1" k3="1"/>
<feColorMatrix type="matrix" values="0 0 0 0 0.84 0 0 0 0 0.84 0 0 0 0 0.84 0 0 0 0.4 0"/>
<feBlend mode="normal" in2="effect2_innerShadow" result="effect3_innerShadow"/>
</filter>
<clipPath id="clip0">
<rect width="24" height="24" fill="white" transform="translate(13 13)"/>
</clipPath>
</defs>
</svg>
