<svg width="20" height="21" viewBox="0 0 20 21" fill="none" xmlns="http://www.w3.org/2000/svg">
<path d="M15.8333 3.47055H4.16667C3.24619 3.47055 2.5 4.21674 2.5 5.13722V16.8039C2.5 17.7244 3.24619 18.4706 4.16667 18.4706H15.8333C16.7538 18.4706 17.5 17.7244 17.5 16.8039V5.13722C17.5 4.21674 16.7538 3.47055 15.8333 3.47055Z" stroke="#828282" stroke-linecap="round" stroke-linejoin="round"/>
<path d="M7.08334 9.30389C7.7737 9.30389 8.33334 8.74424 8.33334 8.05389C8.33334 7.36353 7.7737 6.80389 7.08334 6.80389C6.39299 6.80389 5.83334 7.36353 5.83334 8.05389C5.83334 8.74424 6.39299 9.30389 7.08334 9.30389Z" stroke="#828282" stroke-linecap="round" stroke-linejoin="round"/>
<path d="M17.5 13.4706L13.3333 9.30389L4.16666 18.4706" stroke="#828282" stroke-linecap="round" stroke-linejoin="round"/>
</svg>
