<svg width="50" height="50" viewBox="0 0 50 50" fill="none" xmlns="http://www.w3.org/2000/svg">
<rect opacity="0.1" width="50" height="50" rx="10" fill="#19CEF6"/>
<g filter="url(#filter0_bii)">
<rect width="50" height="50" rx="10" fill="white" fill-opacity="0.1"/>
</g>
<g clip-path="url(#clip0)">
<path d="M21.2266 19.7969H17.4766C17.0882 19.7969 16.7734 20.1117 16.7734 20.5C16.7734 20.8883 17.0882 21.2031 17.4766 21.2031H21.2266C21.6149 21.2031 21.9297 20.8883 21.9297 20.5C21.9297 20.1117 21.6149 19.7969 21.2266 19.7969Z" fill="#19CEF6"/>
<path d="M21.2266 23.5469H17.4766C17.0882 23.5469 16.7734 23.8617 16.7734 24.25C16.7734 24.6383 17.0882 24.9531 17.4766 24.9531H21.2266C21.6149 24.9531 21.9297 24.6383 21.9297 24.25C21.9297 23.8617 21.6149 23.5469 21.2266 23.5469Z" fill="#19CEF6"/>
<path d="M21.2266 27.2969H17.4766C17.0882 27.2969 16.7734 27.6117 16.7734 28C16.7734 28.3883 17.0882 28.7031 17.4766 28.7031H21.2266C21.6149 28.7031 21.9297 28.3883 21.9297 28C21.9297 27.6117 21.6149 27.2969 21.2266 27.2969Z" fill="#19CEF6"/>
<path d="M31.3047 25.8873V19.4678C31.3047 18.5411 30.9474 17.6668 30.2985 17.0056L27.4456 14.0553C27.4443 14.0539 27.4428 14.0525 27.4415 14.0511C26.7846 13.3831 25.8706 13 24.9339 13H15.8828C14.7197 13 13.7734 13.9463 13.7734 15.1094V33.3438C13.7734 34.5069 14.7197 35.4531 15.8828 35.4531H26.75C27.752 36.4109 29.1093 37 30.6016 37C33.7032 37 36.2266 34.4977 36.2266 31.4219C36.2266 28.5822 34.0757 26.2315 31.3047 25.8873ZM15.1797 33.3438V15.1094C15.1797 14.7217 15.4951 14.4062 15.8828 14.4062H24.9339C25.4952 14.4062 26.0429 14.6355 26.437 15.0352L29.2894 17.985C29.2907 17.9864 29.2921 17.9878 29.2934 17.9892C29.6836 18.3861 29.8984 18.9112 29.8984 19.4679V25.888C27.1533 26.2347 25.0234 28.5843 25.0234 31.4219C25.0234 32.3703 25.2617 33.2641 25.681 34.0469H15.8828C15.4951 34.0469 15.1797 33.7315 15.1797 33.3438ZM30.6016 35.5938C28.3012 35.5938 26.4297 33.7223 26.4297 31.4219C26.4297 29.1215 28.3012 27.25 30.6016 27.25C32.9278 27.25 34.8203 29.1215 34.8203 31.4219C34.8203 33.7223 32.9278 35.5938 30.6016 35.5938Z" fill="#19CEF6"/>
<path d="M32.2236 29.7567C31.9253 29.5083 31.4819 29.5485 31.2333 29.8468L30.0466 31.2709L29.7774 30.7325C29.6037 30.3851 29.1814 30.2443 28.834 30.4181C28.4867 30.5917 28.3459 31.0141 28.5196 31.3614L29.2696 32.8614C29.3757 33.0736 29.5817 33.218 29.8174 33.2454C29.8446 33.2485 29.8716 33.2501 29.8986 33.2501C30.1058 33.2501 30.3042 33.1584 30.4386 32.9971L32.3136 30.7471C32.5622 30.4487 32.5219 30.0053 32.2236 29.7567Z" fill="#19CEF6"/>
<path d="M24.9766 21.2031H25.7266C26.1149 21.2031 26.4297 20.8883 26.4297 20.5C26.4297 20.1117 26.1149 19.7969 25.7266 19.7969H24.9766C24.5882 19.7969 24.2734 20.1117 24.2734 20.5C24.2734 20.8883 24.5882 21.2031 24.9766 21.2031Z" fill="#19CEF6"/>
<path d="M26.4297 24.25C26.4297 23.8617 26.1149 23.5469 25.7266 23.5469H24.9766C24.5882 23.5469 24.2734 23.8617 24.2734 24.25C24.2734 24.6383 24.5882 24.9531 24.9766 24.9531H25.7266C26.1149 24.9531 26.4297 24.6383 26.4297 24.25Z" fill="#19CEF6"/>
</g>
<defs>
<filter id="filter0_bii" x="-6.66667" y="-6.66667" width="63.3333" height="63.3333" filterUnits="userSpaceOnUse" color-interpolation-filters="sRGB">
<feFlood flood-opacity="0" result="BackgroundImageFix"/>
<feGaussianBlur in="BackgroundImage" stdDeviation="3.33333"/>
<feComposite in2="SourceAlpha" operator="in" result="effect1_backgroundBlur"/>
<feBlend mode="normal" in="SourceGraphic" in2="effect1_backgroundBlur" result="shape"/>
<feColorMatrix in="SourceAlpha" type="matrix" values="0 0 0 0 0 0 0 0 0 0 0 0 0 0 0 0 0 0 127 0" result="hardAlpha"/>
<feOffset dx="-0.666667" dy="0.666667"/>
<feGaussianBlur stdDeviation="0.333333"/>
<feComposite in2="hardAlpha" operator="arithmetic" k2="-1" k3="1"/>
<feColorMatrix type="matrix" values="0 0 0 0 1 0 0 0 0 1 0 0 0 0 1 0 0 0 0.4 0"/>
<feBlend mode="normal" in2="shape" result="effect2_innerShadow"/>
<feColorMatrix in="SourceAlpha" type="matrix" values="0 0 0 0 0 0 0 0 0 0 0 0 0 0 0 0 0 0 127 0" result="hardAlpha"/>
<feOffset dx="0.666667" dy="-0.666667"/>
<feGaussianBlur stdDeviation="0.333333"/>
<feComposite in2="hardAlpha" operator="arithmetic" k2="-1" k3="1"/>
<feColorMatrix type="matrix" values="0 0 0 0 0.84 0 0 0 0 0.84 0 0 0 0 0.84 0 0 0 0.4 0"/>
<feBlend mode="normal" in2="effect2_innerShadow" result="effect3_innerShadow"/>
</filter>
<clipPath id="clip0">
<rect width="24" height="24" fill="white" transform="translate(13 13)"/>
</clipPath>
</defs>
</svg>
