<svg width="16" height="16" viewBox="0 0 16 16" fill="none" xmlns="http://www.w3.org/2000/svg">
<path d="M12.7188 1.4375H3.28125C1.47192 1.4375 0 2.90942 0 4.71875V9.78662C0 11.2303 0.947876 12.4878 2.32141 12.8903L3.90613 14.4751C3.99414 14.563 4.11328 14.6124 4.23767 14.6124C4.36194 14.6124 4.4812 14.563 4.56909 14.4751L6.02283 13.0212H12.7188C14.5281 13.0212 16 11.5493 16 9.73999V4.71875C16 2.90942 14.5281 1.4375 12.7188 1.4375ZM15.0625 9.73999C15.0625 11.0323 14.0111 12.0837 12.7188 12.0837H5.82874C5.70447 12.0837 5.58521 12.1332 5.49731 12.2211L4.23767 13.4807L2.89612 12.1392C2.83594 12.079 2.7605 12.0363 2.67786 12.0157C1.6532 11.7607 0.9375 10.8441 0.9375 9.78662V4.71875C0.9375 3.42639 1.98889 2.375 3.28125 2.375H12.7188C14.0111 2.375 15.0625 3.42639 15.0625 4.71875V9.73999Z" fill="#828282"/>
<path d="M10.9763 5.93213H5.02368C4.76477 5.93213 4.55493 6.14209 4.55493 6.40088C4.55493 6.65979 4.76477 6.86963 5.02368 6.86963H10.9763C11.2352 6.86963 11.4451 6.65979 11.4451 6.40088C11.4451 6.14209 11.2352 5.93213 10.9763 5.93213Z" fill="#828282"/>
<path d="M10.9763 7.58911H5.02368C4.76477 7.58911 4.55493 7.79895 4.55493 8.05786C4.55493 8.31677 4.76477 8.52661 5.02368 8.52661H10.9763C11.2352 8.52661 11.4451 8.31677 11.4451 8.05786C11.4451 7.79895 11.2352 7.58911 10.9763 7.58911Z" fill="#828282"/>
</svg>
