<svg width="50" height="50" viewBox="0 0 50 50" fill="none" xmlns="http://www.w3.org/2000/svg">
<rect opacity="0.1" width="50" height="50" rx="10" fill="#4151A9"/>
<g filter="url(#filter0_bii)">
<rect width="50" height="50" rx="10" fill="white" fill-opacity="0.1"/>
</g>
<path d="M32.028 16.1445H29.8568V15.1731C29.8568 14.8589 29.514 14.716 29.1997 14.716H27.5142C27.1142 13.5733 26.1143 13.0019 24.9715 13.0019C23.8413 12.9594 22.8133 13.6524 22.4288 14.716H20.7718C20.4576 14.716 20.1433 14.8589 20.1433 15.1731V16.1445H17.972C16.6853 16.1582 15.6326 17.1732 15.5722 18.4585V34.8287C15.5722 36.0858 16.7149 37 17.972 37H32.028C33.2851 37 34.4279 36.0858 34.4279 34.8287V18.4586C34.3674 17.1732 33.3147 16.1582 32.028 16.1445ZM21.286 15.8588H22.8573C23.1316 15.8253 23.3519 15.6167 23.4002 15.3446C23.5694 14.6078 24.2158 14.0789 24.9715 14.0589C25.7202 14.0816 26.3569 14.6122 26.5142 15.3446C26.5655 15.6261 26.8003 15.8374 27.0856 15.8588H28.7141V18.1443H21.286V15.8588ZM33.2851 34.8288C33.2851 35.4573 32.6566 35.8573 32.028 35.8573H17.972C17.3435 35.8573 16.7149 35.4573 16.7149 34.8288V18.4586C16.7732 17.8044 17.3152 17.2993 17.972 17.2873H20.1432V18.7443C20.1734 19.0644 20.4507 19.3039 20.7718 19.2872H29.1997C29.5267 19.305 29.8126 19.0689 29.8567 18.7443V17.2872H32.028C32.6847 17.2993 33.2268 17.8043 33.2851 18.4585V34.8288H33.2851Z" fill="#4151A9"/>
<path d="M22.8002 25.7723C22.5859 25.5464 22.2301 25.5337 22.0002 25.7438L20.1718 27.4865L19.4004 26.6865C19.1861 26.4606 18.8304 26.4479 18.6005 26.658C18.3792 26.8898 18.3792 27.2546 18.6005 27.4865L19.7718 28.6864C19.8732 28.7999 20.0196 28.8627 20.1717 28.8578C20.3224 28.8557 20.4662 28.7941 20.5717 28.6864L22.8001 26.5723C23.021 26.3696 23.0358 26.0262 22.8331 25.8054C22.8227 25.7938 22.8117 25.7828 22.8002 25.7723Z" fill="#4151A9"/>
<path d="M30.9996 27.0008H24.4287C24.1131 27.0008 23.8573 27.2566 23.8573 27.5722C23.8573 27.8877 24.1131 28.1436 24.4287 28.1436H30.9996C31.3152 28.1436 31.571 27.8877 31.571 27.5722C31.571 27.2566 31.3152 27.0008 30.9996 27.0008Z" fill="#4151A9"/>
<path d="M22.8002 21.2013C22.5859 20.9754 22.2301 20.9626 22.0002 21.1727L20.1718 22.9154L19.4004 22.1154C19.1861 21.8896 18.8304 21.8768 18.6005 22.0869C18.3792 22.3188 18.3792 22.6836 18.6005 22.9154L19.7718 24.1153C19.8732 24.2288 20.0196 24.2916 20.1717 24.2868C20.3224 24.2846 20.4662 24.223 20.5717 24.1153L22.8001 22.0012C23.021 21.7986 23.0358 21.4551 22.8331 21.2343C22.8227 21.2227 22.8117 21.2118 22.8002 21.2013Z" fill="#4151A9"/>
<path d="M30.9996 22.4297H24.4287C24.1131 22.4297 23.8573 22.6855 23.8573 23.0011C23.8573 23.3167 24.1131 23.5725 24.4287 23.5725H30.9996C31.3152 23.5725 31.571 23.3167 31.571 23.0011C31.571 22.6855 31.3152 22.4297 30.9996 22.4297Z" fill="#4151A9"/>
<path d="M22.8002 30.3434C22.5859 30.1175 22.2301 30.1048 22.0002 30.3148L20.1718 32.0575L19.4004 31.2575C19.1861 31.0317 18.8304 31.019 18.6005 31.229C18.3792 31.4609 18.3792 31.8257 18.6005 32.0575L19.7718 33.2574C19.8732 33.371 20.0196 33.4337 20.1717 33.4289C20.3224 33.4267 20.4662 33.3651 20.5717 33.2574L22.8001 31.1433C23.021 30.9407 23.0358 30.5972 22.8331 30.3764C22.8227 30.3649 22.8117 30.3539 22.8002 30.3434Z" fill="#4151A9"/>
<path d="M30.9996 31.5719H24.4287C24.1131 31.5719 23.8573 31.8277 23.8573 32.1432C23.8573 32.4588 24.1131 32.7146 24.4287 32.7146H30.9996C31.3152 32.7146 31.571 32.4588 31.571 32.1432C31.571 31.8277 31.3152 31.5719 30.9996 31.5719Z" fill="#4151A9"/>
<defs>
<filter id="filter0_bii" x="-6.66667" y="-6.66667" width="63.3333" height="63.3333" filterUnits="userSpaceOnUse" color-interpolation-filters="sRGB">
<feFlood flood-opacity="0" result="BackgroundImageFix"/>
<feGaussianBlur in="BackgroundImage" stdDeviation="3.33333"/>
<feComposite in2="SourceAlpha" operator="in" result="effect1_backgroundBlur"/>
<feBlend mode="normal" in="SourceGraphic" in2="effect1_backgroundBlur" result="shape"/>
<feColorMatrix in="SourceAlpha" type="matrix" values="0 0 0 0 0 0 0 0 0 0 0 0 0 0 0 0 0 0 127 0" result="hardAlpha"/>
<feOffset dx="-0.666667" dy="0.666667"/>
<feGaussianBlur stdDeviation="0.333333"/>
<feComposite in2="hardAlpha" operator="arithmetic" k2="-1" k3="1"/>
<feColorMatrix type="matrix" values="0 0 0 0 1 0 0 0 0 1 0 0 0 0 1 0 0 0 0.4 0"/>
<feBlend mode="normal" in2="shape" result="effect2_innerShadow"/>
<feColorMatrix in="SourceAlpha" type="matrix" values="0 0 0 0 0 0 0 0 0 0 0 0 0 0 0 0 0 0 127 0" result="hardAlpha"/>
<feOffset dx="0.666667" dy="-0.666667"/>
<feGaussianBlur stdDeviation="0.333333"/>
<feComposite in2="hardAlpha" operator="arithmetic" k2="-1" k3="1"/>
<feColorMatrix type="matrix" values="0 0 0 0 0.84 0 0 0 0 0.84 0 0 0 0 0.84 0 0 0 0.4 0"/>
<feBlend mode="normal" in2="effect2_innerShadow" result="effect3_innerShadow"/>
</filter>
</defs>
</svg>
