<svg width="24" height="24" viewBox="0 0 24 24" fill="none" xmlns="http://www.w3.org/2000/svg">
<g clip-path="url(#clip0)">
<path d="M13.6324 15.9427C13.5427 15.8445 13.4293 15.7711 13.3122 15.7099C13.057 15.5769 12.778 15.4962 12.5009 15.4233V17.5702C12.9506 17.5194 13.4669 17.3562 13.703 16.9364C13.8157 16.7358 13.8381 16.4894 13.7922 16.2662C13.7673 16.1452 13.7159 16.0342 13.6324 15.9427Z" fill="#25AF0E"/>
<path d="M13.7006 16.9402C13.7015 16.9386 13.702 16.9377 13.703 16.936C13.7022 16.9374 13.7014 16.9387 13.7006 16.9402Z" fill="#25AF0E"/>
<path d="M10.3916 12.5103C10.3143 12.6232 10.2658 12.7515 10.2524 12.8878C10.239 13.0244 10.2465 13.1764 10.2984 13.305C10.3478 13.4275 10.4513 13.518 10.5582 13.5908C10.6781 13.6724 10.8099 13.7361 10.9442 13.7901C11.0569 13.8354 11.1836 13.8788 11.3202 13.9207V11.978C10.9751 12.0517 10.5981 12.2089 10.3916 12.5103Z" fill="#25AF0E"/>
<path d="M13.7119 16.9204C13.7091 16.9254 13.706 16.9307 13.7031 16.9362C13.7066 16.9298 13.7093 16.925 13.7119 16.9204Z" fill="#25AF0E"/>
<path d="M13.7232 16.9005C13.724 16.8991 13.7241 16.899 13.7232 16.9005V16.9005Z" fill="#25AF0E"/>
<path d="M13.2573 5.22201C15.083 3.68831 16.3029 0.233111 15.5522 0.0819888C14.5546 -0.118886 12.3884 0.761927 11.3414 0.917115C9.85639 1.09642 8.239 -0.693219 7.33113 0.304324C6.59297 1.11539 7.86034 4.06499 9.84317 5.34998C3.92749 8.25745 -4.38739 22.8532 10.1184 23.9122C30.1896 25.3777 20.1392 8.05528 13.2573 5.22201ZM14.981 16.7329C14.9193 17.3019 14.6177 17.8165 14.1669 18.1659C13.691 18.5347 13.094 18.7063 12.5009 18.7544V19.3831C12.5009 19.5513 12.4274 19.714 12.3015 19.8254C12.1284 19.9785 11.874 20.0163 11.6639 19.9195C11.4565 19.8241 11.3202 19.6113 11.3202 19.3831V18.6959C11.2185 18.6766 11.1175 18.6536 11.0178 18.6262C10.4634 18.4739 9.94923 18.177 9.57363 17.7378C9.38653 17.5188 9.234 17.2704 9.12851 17.0022C9.10095 16.9321 9.07638 16.8608 9.05486 16.7886C9.03538 16.7232 9.01528 16.6568 9.00833 16.5887C8.99664 16.4745 9.01929 16.3579 9.07254 16.2562C9.18198 16.0468 9.41262 15.9204 9.64811 15.9414C9.87988 15.9619 10.083 16.1228 10.156 16.3437C10.1785 16.4117 10.1937 16.4815 10.2189 16.5488C10.244 16.6157 10.2742 16.6807 10.3097 16.7426C10.3798 16.8644 10.4677 16.9768 10.5689 17.0743C10.7775 17.2753 11.0432 17.4059 11.3202 17.4837V15.1478C10.7786 15.0076 10.2195 14.8265 9.77224 14.4787C9.55488 14.3096 9.37044 14.0996 9.24964 13.8509C9.12218 13.5885 9.06938 13.2961 9.06723 13.0057C9.06503 12.7109 9.12105 12.4186 9.24405 12.15C9.35925 11.8984 9.52512 11.6726 9.72848 11.4854C10.1633 11.0852 10.7409 10.8619 11.3203 10.7799V10.7286V10.1273C11.3203 9.9591 11.3938 9.79635 11.5197 9.68498C11.6928 9.53188 11.9471 9.49405 12.1572 9.59084C12.3646 9.68634 12.5009 9.89901 12.5009 10.1273V10.7286V10.7764C12.5781 10.7861 12.6551 10.7977 12.7317 10.8116C13.3006 10.9146 13.857 11.1495 14.273 11.5597C14.4701 11.7539 14.6315 11.9854 14.7449 12.2379C14.7766 12.3083 14.8043 12.3803 14.8283 12.4538C14.8507 12.5223 14.8732 12.5928 14.8839 12.6643C14.9009 12.7785 14.8835 12.8964 14.8347 13.0008C14.7346 13.2147 14.5102 13.3509 14.2741 13.3408C14.0421 13.3307 13.8319 13.1797 13.7488 12.9628C13.7241 12.8983 13.7117 12.83 13.6865 12.7657C13.661 12.7006 13.628 12.6385 13.59 12.5798C13.5161 12.4657 13.4204 12.3679 13.3111 12.2873C13.0745 12.1126 12.7875 12.0216 12.5007 11.9707V14.206C12.8416 14.2876 13.1827 14.3766 13.5092 14.5054C14.0027 14.7 14.4704 14.9984 14.7397 15.4689C14.6979 15.3956 14.6573 15.3242 14.7411 15.4713C14.8235 15.6159 14.7842 15.547 14.7428 15.4746C14.9572 15.8523 15.0276 16.3039 14.981 16.7329Z" fill="#25AF0E"/>
<path d="M13.6944 16.9512C13.6909 16.9573 13.6879 16.9627 13.6855 16.9669C13.6876 16.9633 13.6906 16.9579 13.6944 16.9512Z" fill="#25AF0E"/>
</g>
<defs>
<clipPath id="clip0">
<rect width="24" height="24" fill="white"/>
</clipPath>
</defs>
</svg>
