<svg width="50" height="50" viewBox="0 0 50 50" fill="none" xmlns="http://www.w3.org/2000/svg">
<rect opacity="0.1" width="50" height="50" rx="10" fill="#0A5DFF"/>
<g filter="url(#filter0_bii)">
<rect width="50" height="50" rx="10" fill="white" fill-opacity="0.1"/>
</g>
<path d="M35.8802 16.8535C35.7676 16.7873 35.6397 16.7516 35.5091 16.7501C35.3784 16.7485 35.2497 16.781 35.1355 16.8445L29.5 19.975V19.855C29.499 19.0317 29.1715 18.2424 28.5892 17.6603C28.007 17.0782 27.2176 16.7508 26.3942 16.75H16.8557C16.0323 16.7508 15.2428 17.0783 14.6605 17.6606C14.0783 18.2428 13.7508 19.0323 13.75 19.8558V30.1443C13.7508 30.9677 14.0783 31.7572 14.6605 32.3395C15.2428 32.9218 16.0323 33.2492 16.8557 33.25H26.3942C27.2177 33.2492 28.0072 32.9218 28.5895 32.3395C29.1717 31.7572 29.4992 30.9677 29.5 30.1443V30.025L35.1355 33.1563C35.2497 33.2198 35.3786 33.2524 35.5092 33.2508C35.6399 33.2491 35.7679 33.2134 35.8806 33.1471C35.9932 33.0808 36.0865 32.9862 36.1513 32.8727C36.2161 32.7592 36.2501 32.6307 36.25 32.5V17.5C36.25 17.3694 36.2159 17.241 36.151 17.1276C36.0862 17.0143 35.9928 16.9198 35.8802 16.8535ZM28 30.1443C27.9996 30.57 27.8303 30.9782 27.5292 31.2793C27.2282 31.5803 26.82 31.7496 26.3942 31.75H16.8557C16.43 31.7496 16.0218 31.5803 15.7208 31.2793C15.4197 30.9782 15.2504 30.57 15.25 30.1443V19.8558C15.2504 19.43 15.4197 19.0218 15.7208 18.7208C16.0218 18.4197 16.43 18.2504 16.8557 18.25H26.3942C26.82 18.2504 27.2282 18.4197 27.5292 18.7208C27.8303 19.0218 27.9996 19.43 28 19.8558V30.1443ZM34.75 31.225L29.5 28.3075V21.6918L34.75 18.775V31.225Z" fill="#0A5DFF"/>
<defs>
<filter id="filter0_bii" x="-6.66667" y="-6.66667" width="63.3333" height="63.3333" filterUnits="userSpaceOnUse" color-interpolation-filters="sRGB">
<feFlood flood-opacity="0" result="BackgroundImageFix"/>
<feGaussianBlur in="BackgroundImage" stdDeviation="3.33333"/>
<feComposite in2="SourceAlpha" operator="in" result="effect1_backgroundBlur"/>
<feBlend mode="normal" in="SourceGraphic" in2="effect1_backgroundBlur" result="shape"/>
<feColorMatrix in="SourceAlpha" type="matrix" values="0 0 0 0 0 0 0 0 0 0 0 0 0 0 0 0 0 0 127 0" result="hardAlpha"/>
<feOffset dx="-0.666667" dy="0.666667"/>
<feGaussianBlur stdDeviation="0.333333"/>
<feComposite in2="hardAlpha" operator="arithmetic" k2="-1" k3="1"/>
<feColorMatrix type="matrix" values="0 0 0 0 1 0 0 0 0 1 0 0 0 0 1 0 0 0 0.4 0"/>
<feBlend mode="normal" in2="shape" result="effect2_innerShadow"/>
<feColorMatrix in="SourceAlpha" type="matrix" values="0 0 0 0 0 0 0 0 0 0 0 0 0 0 0 0 0 0 127 0" result="hardAlpha"/>
<feOffset dx="0.666667" dy="-0.666667"/>
<feGaussianBlur stdDeviation="0.333333"/>
<feComposite in2="hardAlpha" operator="arithmetic" k2="-1" k3="1"/>
<feColorMatrix type="matrix" values="0 0 0 0 0.84 0 0 0 0 0.84 0 0 0 0 0.84 0 0 0 0.4 0"/>
<feBlend mode="normal" in2="effect2_innerShadow" result="effect3_innerShadow"/>
</filter>
</defs>
</svg>
