<svg width="20" height="20" viewBox="0 0 20 20" fill="none" xmlns="http://www.w3.org/2000/svg">
<path d="M13.2255 11.3496C13.2255 13.1282 11.7786 14.5751 10 14.5751C8.22137 14.5751 6.77503 13.1282 6.77503 11.3496C6.77503 9.57094 8.22137 8.12405 10 8.12405C11.7786 8.12405 13.2255 9.57149 13.2255 11.3496ZM20 6.76948V15.9308C20 17.1521 19.0098 18.1423 17.7885 18.1423H2.21153C0.990214 18.1423 0 17.1521 0 15.9308V6.76948C0 5.54816 0.990214 4.55795 2.21153 4.55795H4.93172V3.79276C4.93172 2.72403 5.79753 1.85767 6.86681 1.85767H13.1332C14.2025 1.85767 15.0683 2.72403 15.0683 3.79276V4.5574H17.7885C19.0098 4.55795 20 5.54816 20 6.76948ZM14.8842 11.3496C14.8842 8.65647 12.6931 6.4654 10 6.4654C7.30746 6.4654 5.11638 8.65647 5.11638 11.3496C5.11638 14.0427 7.30746 16.2337 10 16.2337C12.6931 16.2337 14.8842 14.0427 14.8842 11.3496Z" fill="#8E8E93"/>
</svg>
