<svg width="50" height="50" viewBox="0 0 50 50" fill="none" xmlns="http://www.w3.org/2000/svg">
<rect opacity="0.1" width="50" height="50" rx="10" fill="#4FAAA6"/>
<g filter="url(#filter0_bii)">
<rect width="50" height="50" rx="10" fill="white" fill-opacity="0.1"/>
</g>
<path d="M21.4844 33.4844C21.4844 35.4229 23.0615 37 25 37C26.9385 37 28.5156 35.4229 28.5156 33.4844V30.5781C28.5156 28.9824 29.1862 27.4236 30.3555 26.3014C31.2471 25.4457 31.9278 24.3797 32.3238 23.2188C32.7457 21.982 32.8441 20.6867 32.6161 19.3688C32.3166 17.6373 31.4095 16.0415 30.0619 14.8755C28.6642 13.6661 26.8665 13 25 13C23.1403 13 21.3463 13.6635 19.9484 14.8682C18.5949 16.0347 17.6841 17.6331 17.3839 19.3688C17.1559 20.6867 17.2542 21.982 17.6762 23.2188C18.0722 24.3797 18.7528 25.4456 19.6445 26.3014C20.8137 27.4236 21.4844 28.982 21.4844 30.5771V33.4844ZM20.6183 25.2868C19.0753 23.806 18.4015 21.7363 18.7695 19.6085C19.291 16.5941 21.9112 14.4063 25 14.4062C28.0888 14.4062 30.7091 16.5941 31.2305 19.6085C31.5986 21.7363 30.9247 23.806 29.3817 25.2868C28.1096 26.5078 27.3154 28.1498 27.1443 29.8749L22.8558 29.8741C22.6846 28.1496 21.8904 26.5078 20.6183 25.2868ZM27.1094 31.2811V33.4844C27.1094 34.6475 26.1631 35.5938 25 35.5938C23.8369 35.5938 22.8906 34.6475 22.8906 33.4844V31.2804L27.1094 31.2811Z" fill="#4FAAA6"/>
<path d="M24.2969 19.3281C24.2969 18.9404 24.6123 18.625 25 18.625C25.3877 18.625 25.7031 18.9404 25.7031 19.3281C25.7031 19.5541 25.5985 19.7607 25.416 19.8951C24.7152 20.411 24.2969 21.2381 24.2969 22.1074V22.8438H25.7031V22.1074C25.7031 21.6833 25.9075 21.2795 26.2498 21.0275C26.788 20.6312 27.1094 19.9959 27.1094 19.3281C27.1094 18.165 26.1631 17.2188 25 17.2188C23.8369 17.2188 22.8906 18.165 22.8906 19.3281V20.0312H24.2969V19.3281Z" fill="#4FAAA6"/>
<path d="M13.7401 16.0942L14.7344 15.1L16.8043 17.1699L15.8101 18.1641L13.7401 16.0942Z" fill="#4FAAA6"/>
<path d="M13 20.0312H15.8621V21.4375H13V20.0312Z" fill="#4FAAA6"/>
<path d="M13.7553 25.3574L15.8237 23.2889L16.8179 24.2831L14.7495 26.3516L13.7553 25.3574Z" fill="#4FAAA6"/>
<path d="M33.1923 17.1718L35.2622 15.1019L36.2564 16.0961L34.1865 18.166L33.1923 17.1718Z" fill="#4FAAA6"/>
<path d="M34.1378 20.0312H37V21.4375H34.1378V20.0312Z" fill="#4FAAA6"/>
<path d="M33.1772 24.2858L34.1714 23.2916L36.2398 25.36L35.2456 26.3542L33.1772 24.2858Z" fill="#4FAAA6"/>
<path d="M24.2969 24.25H25.7031V25.6562H24.2969V24.25Z" fill="#4FAAA6"/>
<defs>
<filter id="filter0_bii" x="-6.66667" y="-6.66667" width="63.3333" height="63.3333" filterUnits="userSpaceOnUse" color-interpolation-filters="sRGB">
<feFlood flood-opacity="0" result="BackgroundImageFix"/>
<feGaussianBlur in="BackgroundImage" stdDeviation="3.33333"/>
<feComposite in2="SourceAlpha" operator="in" result="effect1_backgroundBlur"/>
<feBlend mode="normal" in="SourceGraphic" in2="effect1_backgroundBlur" result="shape"/>
<feColorMatrix in="SourceAlpha" type="matrix" values="0 0 0 0 0 0 0 0 0 0 0 0 0 0 0 0 0 0 127 0" result="hardAlpha"/>
<feOffset dx="-0.666667" dy="0.666667"/>
<feGaussianBlur stdDeviation="0.333333"/>
<feComposite in2="hardAlpha" operator="arithmetic" k2="-1" k3="1"/>
<feColorMatrix type="matrix" values="0 0 0 0 1 0 0 0 0 1 0 0 0 0 1 0 0 0 0.4 0"/>
<feBlend mode="normal" in2="shape" result="effect2_innerShadow"/>
<feColorMatrix in="SourceAlpha" type="matrix" values="0 0 0 0 0 0 0 0 0 0 0 0 0 0 0 0 0 0 127 0" result="hardAlpha"/>
<feOffset dx="0.666667" dy="-0.666667"/>
<feGaussianBlur stdDeviation="0.333333"/>
<feComposite in2="hardAlpha" operator="arithmetic" k2="-1" k3="1"/>
<feColorMatrix type="matrix" values="0 0 0 0 0.84 0 0 0 0 0.84 0 0 0 0 0.84 0 0 0 0.4 0"/>
<feBlend mode="normal" in2="effect2_innerShadow" result="effect3_innerShadow"/>
</filter>
</defs>
</svg>
