<svg width="50" height="50" viewBox="0 0 50 50" fill="none" xmlns="http://www.w3.org/2000/svg">
<rect opacity="0.1" width="50" height="50" rx="10" fill="#4CA8FC"/>
<g filter="url(#filter0_bii)">
<rect width="50" height="50" rx="10" fill="white" fill-opacity="0.1"/>
</g>
<path d="M16.76 24.831C16.5303 24.6058 16.1879 24.5402 15.891 24.6644C15.5944 24.7885 15.4009 25.0786 15.4 25.4003V31.0041C15.4007 31.4434 15.7566 31.7995 16.1959 31.8001H21.7999C22.1224 31.7993 22.413 31.605 22.5367 31.3073C22.6607 31.0096 22.5935 30.6665 22.3666 30.4372L16.76 24.831ZM21.7999 31.0001L16.1999 31.0041L16.1972 25.4003L21.804 31.0001H21.7999Z" fill="#0F8BFF"/>
<path d="M36.7429 16.4707C34.4081 14.3834 31.0718 13.8458 28.1997 15.0944V14.2004C28.1997 13.5376 27.6625 13.0004 26.9998 13.0004H22.9998C22.3371 13.0004 21.7999 13.5376 21.7999 14.2004V26.2618L14.3751 18.8371C14.1453 18.6066 13.7991 18.5374 13.4982 18.6616C13.1972 18.7855 13.0005 19.0788 13 19.4044V33.396C13.0002 33.84 13.36 34.1998 13.804 34.2H21.7999V35.8001C21.7999 36.4628 22.3371 37 22.9998 37H26.9998C27.6625 37 28.1997 36.4628 28.1997 35.8001V34.0844C28.4163 33.9607 28.5622 33.7428 28.5943 33.4954C28.6263 33.2482 28.5406 33.0001 28.363 32.8253L28.1997 32.6617V26.1902L36.7703 17.6235C36.924 17.4644 37.0065 17.25 36.9996 17.0292C36.9939 16.8161 36.9011 16.6147 36.7429 16.472V16.4707ZM13.8 33.396V32.6H14.2001C14.4209 32.6 14.5999 32.421 14.5999 32.2001C14.5999 31.9791 14.4209 31.8001 14.2001 31.8001H13.8V30.2001H14.2001C14.4209 30.2001 14.5999 30.021 14.5999 29.8002C14.5999 29.5792 14.4209 29.4001 14.2001 29.4001H13.8027V27.8002H14.2001C14.4209 27.8002 14.5999 27.6211 14.5999 27.4001C14.5999 27.1793 14.4209 27.0002 14.2001 27.0002H13.8044V25.4003H14.2001C14.4209 25.4003 14.5999 25.2212 14.5999 25.0002C14.5999 24.7794 14.4209 24.6003 14.2001 24.6003H13.806V23.0002H14.2001C14.4209 23.0002 14.5999 22.8211 14.5999 22.6003C14.5999 22.3793 14.4209 22.2002 14.2001 22.2002H13.8077V19.4031L21.9167 27.5105L27.5165 33.1105L27.7965 33.3905L28.0453 33.1413H28.0486L27.7998 33.4L13.8 33.396ZM27.3997 35.8001C27.3997 36.0209 27.2206 36.2 26.9998 36.2H22.9998C22.7789 36.2 22.5999 36.0209 22.5999 35.8001V34.2H27.3997V35.8001ZM27.3997 31.8618L22.5999 27.0617V25.8002H22.9998C23.2208 25.8002 23.3998 25.6211 23.3998 25.4003C23.3998 25.1793 23.2208 25.0002 22.9998 25.0002H22.5999V18.2003H22.9998C23.2208 18.2003 23.3998 18.0212 23.3998 17.8004C23.3998 17.5794 23.2208 17.4003 22.9998 17.4003H22.5999V15.8004H22.9998C23.2208 15.8004 23.3998 15.6213 23.3998 15.4003C23.3998 15.1795 23.2208 15.0004 22.9998 15.0004H22.5999V14.2004C22.5999 13.9794 22.7789 13.8004 22.9998 13.8004H26.9998C27.2206 13.8004 27.3997 13.9794 27.3997 14.2004V15.4968C27.3433 15.5292 27.2893 15.566 27.2333 15.5999C27.169 15.64 27.1042 15.6799 27.0405 15.72C26.9449 15.7819 26.8517 15.8476 26.7605 15.9136C26.7026 15.9537 26.6437 15.9936 26.5869 16.0384C26.4866 16.1135 26.3897 16.1935 26.293 16.2735C26.2465 16.3136 26.1986 16.3488 26.153 16.3887C26.0125 16.5088 25.8754 16.6375 25.743 16.7699C22.7363 19.7748 22.6055 24.6067 25.4455 27.7698C25.5901 27.9302 25.795 28.0234 26.0111 28.0274H26.0301C26.0389 28.0274 26.0473 28.0254 26.0557 28.025C26.2608 28.0212 26.456 27.9372 26.5997 27.791L27.3997 26.9911V31.8618ZM35.7133 17.5483L35.3996 17.2348C35.2991 17.1308 35.1504 17.0891 35.0106 17.1257C34.8708 17.1623 34.7615 17.2714 34.7249 17.4113C34.6883 17.5512 34.73 17.6999 34.834 17.8004L35.1477 18.1139L34.3133 18.9483L33.9996 18.6346C33.8993 18.5308 33.7504 18.4891 33.6107 18.5257C33.4708 18.5623 33.3615 18.6714 33.3249 18.8113C33.2883 18.9512 33.33 19.0999 33.434 19.2002L33.7473 19.5135L32.9129 20.3479L32.5996 20.0346C32.4427 19.883 32.1932 19.8852 32.039 20.0396C31.8846 20.1939 31.8824 20.4433 32.034 20.6002L32.347 20.9132L31.5126 21.7476L31.1996 21.4346C31.0427 21.283 30.7933 21.2852 30.639 21.4396C30.4846 21.5938 30.4824 21.8433 30.634 22.0002L30.947 22.313L30.1122 23.147L29.7996 22.8346C29.6427 22.683 29.3933 22.6852 29.239 22.8396C29.0846 22.9938 29.0826 23.2433 29.234 23.4002L29.5466 23.7126L28.7116 24.5466L28.3998 24.2346C28.2427 24.083 27.9933 24.0852 27.839 24.2396C27.6848 24.3938 27.6826 24.6433 27.8342 24.8002L28.1462 25.1122L27.5169 25.7414L27.3126 25.9474L26.9998 25.6346C26.8429 25.483 26.5933 25.4852 26.439 25.6394C26.2848 25.7938 26.2826 26.0433 26.4342 26.2002L26.7493 26.5154L26.0374 27.2329C24.7092 25.7676 24.0462 23.8183 24.2059 21.847C24.3653 19.8757 25.3332 18.0582 26.8797 16.8256C27.2254 16.5443 27.5967 16.2962 27.9889 16.0848C30.6597 14.6527 33.9405 15.0424 36.2016 17.06L35.7133 17.5483Z" fill="#0F8BFF"/>
<path d="M27.5226 18.3884C27.5206 18.3884 27.4929 18.4155 27.4913 18.4175L27.4409 18.4654C25.9624 19.942 25.4292 22.1189 26.0581 24.1114C26.0999 24.2449 26.2081 24.3469 26.3438 24.3806C26.3753 24.3884 26.4075 24.3923 26.4397 24.3923C26.5457 24.3923 26.6475 24.3504 26.7226 24.2755L28.0825 22.9154L33.2465 17.7515C33.345 17.6527 33.3851 17.5095 33.352 17.3738C33.3187 17.2383 33.2172 17.1297 33.0841 17.0876C31.1319 16.4684 28.9975 16.9677 27.5226 18.3884ZM26.6629 23.2034C26.6358 23.0311 26.6181 22.8575 26.6098 22.6834C26.6069 22.6299 26.6074 22.5763 26.6065 22.5234C26.6041 22.4034 26.6065 22.2798 26.6126 22.1586C26.6159 22.1002 26.6197 22.0418 26.625 21.9834C26.6369 21.8587 26.6541 21.7347 26.6757 21.6115C26.6842 21.5643 26.6898 21.5163 26.6997 21.4691C26.7334 21.3019 26.7763 21.1367 26.8277 20.9743C26.8381 20.9423 26.8517 20.9111 26.8625 20.8791C26.9077 20.7484 26.9577 20.6187 27.0141 20.4915C27.0374 20.4384 27.0634 20.3864 27.089 20.3344C27.1423 20.2263 27.199 20.1196 27.2589 20.0143C27.2882 19.9643 27.317 19.914 27.3481 19.8647C27.3642 19.8394 27.3834 19.8158 27.3997 19.7907V22.4646L26.6629 23.2034ZM32.1761 17.6904L28.1997 21.6666V18.8575C29.278 17.8826 30.7421 17.4531 32.1761 17.6904Z" fill="#0F8BFF"/>
<defs>
<filter id="filter0_bii" x="-6.66667" y="-6.66667" width="63.3333" height="63.3333" filterUnits="userSpaceOnUse" color-interpolation-filters="sRGB">
<feFlood flood-opacity="0" result="BackgroundImageFix"/>
<feGaussianBlur in="BackgroundImage" stdDeviation="3.33333"/>
<feComposite in2="SourceAlpha" operator="in" result="effect1_backgroundBlur"/>
<feBlend mode="normal" in="SourceGraphic" in2="effect1_backgroundBlur" result="shape"/>
<feColorMatrix in="SourceAlpha" type="matrix" values="0 0 0 0 0 0 0 0 0 0 0 0 0 0 0 0 0 0 127 0" result="hardAlpha"/>
<feOffset dx="-0.666667" dy="0.666667"/>
<feGaussianBlur stdDeviation="0.333333"/>
<feComposite in2="hardAlpha" operator="arithmetic" k2="-1" k3="1"/>
<feColorMatrix type="matrix" values="0 0 0 0 1 0 0 0 0 1 0 0 0 0 1 0 0 0 0.4 0"/>
<feBlend mode="normal" in2="shape" result="effect2_innerShadow"/>
<feColorMatrix in="SourceAlpha" type="matrix" values="0 0 0 0 0 0 0 0 0 0 0 0 0 0 0 0 0 0 127 0" result="hardAlpha"/>
<feOffset dx="0.666667" dy="-0.666667"/>
<feGaussianBlur stdDeviation="0.333333"/>
<feComposite in2="hardAlpha" operator="arithmetic" k2="-1" k3="1"/>
<feColorMatrix type="matrix" values="0 0 0 0 0.84 0 0 0 0 0.84 0 0 0 0 0.84 0 0 0 0.4 0"/>
<feBlend mode="normal" in2="effect2_innerShadow" result="effect3_innerShadow"/>
</filter>
</defs>
</svg>
