<svg width="30" height="30" viewBox="0 0 30 30" fill="none" xmlns="http://www.w3.org/2000/svg">
<g clip-path="url(#clip0)">
<path d="M28.2134 12.3244L4.00872 2.28081C2.98901 1.85765 1.837 2.0438 1.00233 2.76638C0.167666 3.48908 -0.181435 4.60259 0.0913773 5.67234L2.24581 14.1211H12.7942C13.2796 14.1211 13.6732 14.5146 13.6732 15.0001C13.6732 15.4854 13.2797 15.879 12.7942 15.879H2.24581L0.0913773 24.3277C-0.181435 25.3975 0.167608 26.511 1.00233 27.2337C1.8387 27.9577 2.99083 28.1416 4.00878 27.7192L28.2135 17.6757C29.3155 17.2185 30.0001 16.1932 30.0001 15.0001C30.0001 13.8069 29.3155 12.7816 28.2134 12.3244Z" fill="#39A45A"/>
</g>
<defs>
<clipPath id="clip0">
<rect width="30" height="30" fill="white"/>
</clipPath>
</defs>
</svg>
