<svg width="50" height="50" viewBox="0 0 50 50" fill="none" xmlns="http://www.w3.org/2000/svg">
<rect opacity="0.1" width="50" height="50" rx="10" fill="#FF4A4A"/>
<g filter="url(#filter0_bii)">
<rect width="50" height="50" rx="10" fill="white" fill-opacity="0.1"/>
</g>
<path d="M18.975 21.2843H18.2219C17.7842 21.2843 17.4188 20.9305 17.4188 20.4812C17.4188 20.0436 17.7726 19.6781 18.2219 19.6781H20.1047C20.493 19.6781 20.8078 19.3633 20.8078 18.975C20.8078 18.5867 20.493 18.2719 20.1047 18.2719H18.2219C16.9889 18.2719 16.0125 19.2727 16.0125 20.4812C16.0125 21.7142 17.0133 22.6906 18.2219 22.6906H18.975C19.4127 22.6906 19.7781 23.0444 19.7781 23.4937C19.7781 23.9365 19.4178 24.2968 18.975 24.2968H17.0922C16.7039 24.2968 16.3891 24.6116 16.3891 24.9999C16.3891 25.3883 16.7039 25.7031 17.0922 25.7031H18.975C20.1932 25.7031 21.1844 24.7119 21.1844 23.4937C21.1844 22.2608 20.1835 21.2843 18.975 21.2843Z" fill="#FF4A4A"/>
<path d="M31.7781 21.2843H31.0249C30.5873 21.2843 30.2218 20.9305 30.2218 20.4812C30.2218 20.0436 30.5756 19.6781 31.0249 19.6781H32.9078C33.2961 19.6781 33.6109 19.3633 33.6109 18.975C33.6109 18.5867 33.2961 18.2719 32.9078 18.2719H31.0249C29.7919 18.2719 28.8156 19.2727 28.8156 20.4812C28.8156 21.7142 29.8164 22.6906 31.0249 22.6906H31.7781C32.2158 22.6906 32.5812 23.0444 32.5812 23.4937C32.5812 23.9365 32.2209 24.2968 31.7781 24.2968H29.8953C29.5069 24.2968 29.1921 24.6116 29.1921 24.9999C29.1921 25.3883 29.5069 25.7031 29.8953 25.7031H31.7781C32.9963 25.7031 33.9874 24.7119 33.9874 23.4937C33.9874 22.2608 32.9866 21.2843 31.7781 21.2843Z" fill="#FF4A4A"/>
<path d="M25 18.2719C23.5741 18.2719 22.414 19.4319 22.414 20.8578V23.1172C22.414 24.5431 23.5741 25.7031 25 25.7031C26.4259 25.7031 27.586 24.5431 27.586 23.1172V20.8578C27.586 19.4319 26.4259 18.2719 25 18.2719ZM26.1797 23.1172C26.1797 23.7676 25.6505 24.2969 25 24.2969C24.3495 24.2969 23.8203 23.7676 23.8203 23.1172V20.8578C23.8203 20.2073 24.3495 19.6781 25 19.6781C25.6505 19.6781 26.1797 20.2073 26.1797 20.8578V23.1172Z" fill="#FF4A4A"/>
<path d="M34.0375 13H15.9625C14.3262 13 13 14.3239 13 15.9625V28.0127C13 29.649 14.3238 30.9752 15.9625 30.9752H18.2719V36.2971C18.2719 36.5815 18.4432 36.8379 18.706 36.9467C18.951 37.0481 19.2579 37.0086 19.4722 36.7942L25.2913 30.9752H34.0375C35.6738 30.9752 37 29.6513 37 28.0127V15.9625C37 14.3262 35.6761 13 34.0375 13V13ZM35.5938 28.0127C35.5938 28.8729 34.8981 29.569 34.0375 29.569H25C24.8135 29.569 24.6347 29.643 24.5028 29.7749L19.6781 34.5996V30.2721C19.6781 29.8838 19.3633 29.569 18.975 29.569H15.9625C15.1023 29.569 14.4062 28.8733 14.4062 28.0128V15.9625C14.4062 15.1023 15.1019 14.4062 15.9625 14.4062H34.0375C34.8977 14.4062 35.5938 15.1019 35.5938 15.9625V28.0127Z" fill="#FF4A4A"/>
<defs>
<filter id="filter0_bii" x="-6.66667" y="-6.66667" width="63.3333" height="63.3333" filterUnits="userSpaceOnUse" color-interpolation-filters="sRGB">
<feFlood flood-opacity="0" result="BackgroundImageFix"/>
<feGaussianBlur in="BackgroundImage" stdDeviation="3.33333"/>
<feComposite in2="SourceAlpha" operator="in" result="effect1_backgroundBlur"/>
<feBlend mode="normal" in="SourceGraphic" in2="effect1_backgroundBlur" result="shape"/>
<feColorMatrix in="SourceAlpha" type="matrix" values="0 0 0 0 0 0 0 0 0 0 0 0 0 0 0 0 0 0 127 0" result="hardAlpha"/>
<feOffset dx="-0.666667" dy="0.666667"/>
<feGaussianBlur stdDeviation="0.333333"/>
<feComposite in2="hardAlpha" operator="arithmetic" k2="-1" k3="1"/>
<feColorMatrix type="matrix" values="0 0 0 0 1 0 0 0 0 1 0 0 0 0 1 0 0 0 0.4 0"/>
<feBlend mode="normal" in2="shape" result="effect2_innerShadow"/>
<feColorMatrix in="SourceAlpha" type="matrix" values="0 0 0 0 0 0 0 0 0 0 0 0 0 0 0 0 0 0 127 0" result="hardAlpha"/>
<feOffset dx="0.666667" dy="-0.666667"/>
<feGaussianBlur stdDeviation="0.333333"/>
<feComposite in2="hardAlpha" operator="arithmetic" k2="-1" k3="1"/>
<feColorMatrix type="matrix" values="0 0 0 0 0.84 0 0 0 0 0.84 0 0 0 0 0.84 0 0 0 0.4 0"/>
<feBlend mode="normal" in2="effect2_innerShadow" result="effect3_innerShadow"/>
</filter>
</defs>
</svg>
