<svg width="50" height="50" viewBox="0 0 50 50" fill="none" xmlns="http://www.w3.org/2000/svg">
<rect opacity="0.1" width="50" height="50" rx="10" fill="#41B34F"/>
<g opacity="0.2" filter="url(#filter0_bii)">
<rect width="50" height="50" rx="10" fill="white" fill-opacity="0.5"/>
</g>
<path d="M36.9952 25.9157C36.9665 25.251 36.3162 24.7203 35.0586 24.3377C34.0831 24.046 32.8446 23.8691 31.5057 23.8404V18.7382C31.5009 18.6521 31.477 18.5708 31.434 18.4991C31.3001 17.9205 30.6545 17.4519 29.5117 17.1076C28.4357 16.7824 27.0299 16.6055 25.5523 16.6055C24.0795 16.6055 22.688 16.7824 21.6312 17.1076C20.7657 17.3754 19.728 17.8727 19.728 18.7286C19.728 18.7812 19.7328 18.8338 19.7424 18.8864L19.795 21.0669C16.6868 20.474 13.6886 22.5158 13.1004 25.6192C13.0335 25.9731 13 26.327 13 26.6856C13 29.8416 15.5678 32.4094 18.7238 32.4094C20.0389 32.4094 21.3108 31.96 22.3293 31.1279C23.2236 31.3383 24.2756 31.4531 25.3897 31.4626C25.6336 32.7872 28.5027 33.3945 31.1757 33.3945C32.6485 33.3945 34.04 33.2128 35.0968 32.8828C35.9623 32.6151 37 32.113 37 31.257V26.0066C37 25.9779 37 25.9444 36.9952 25.9157ZM30.5063 21.3825C30.5063 21.4447 30.2767 21.7747 29.2391 22.0903C28.2684 22.3819 26.9247 22.5541 25.5571 22.5541C24.376 22.5541 23.2188 22.4298 22.3007 22.1955C22.2863 22.1907 22.2767 22.1907 22.2624 22.1859C21.8081 21.8273 21.306 21.5403 20.7657 21.3395L20.7322 19.991C21.0622 20.1584 21.4065 20.2923 21.7651 20.3879C22.8027 20.6892 24.1464 20.8518 25.5571 20.8518C27.0299 20.8518 28.4405 20.6748 29.5164 20.3497C29.8751 20.2445 30.2241 20.1058 30.5541 19.9337V21.1865C30.5015 21.2534 30.5063 21.3156 30.5063 21.3825ZM21.9181 18.0305C22.884 17.734 24.1751 17.5666 25.5523 17.5666C26.9199 17.5666 28.2636 17.734 29.2343 18.0305C30.272 18.3461 30.5015 18.6712 30.5015 18.7334C30.5015 18.8004 30.2672 19.1303 29.2295 19.4411C28.2588 19.7328 26.9199 19.9002 25.5523 19.9002C24.2325 19.9002 22.9797 19.7472 22.0281 19.4698C21 19.1733 20.7131 18.8482 20.6892 18.743C20.6892 18.7334 20.6844 18.7334 20.6844 18.7334C20.6892 18.6426 20.9091 18.3365 21.9181 18.0305ZM21.9325 30.2146C19.9863 31.9839 16.9689 31.8452 15.1996 29.899C13.4304 27.9528 13.569 24.9354 15.5152 23.1662C16.3903 22.3676 17.538 21.9277 18.7238 21.9277C19.202 21.9277 19.6754 21.9994 20.1345 22.1381C21.7938 22.6545 23.0418 24.0317 23.3957 25.7292C23.4579 26.0448 23.4913 26.37 23.4913 26.6904C23.4961 28.0341 22.9271 29.3108 21.9325 30.2146ZM23.147 30.3198C23.5344 29.8464 23.8452 29.3156 24.0652 28.7466C24.4716 28.78 24.8924 28.8039 25.3323 28.8087V28.8948L25.361 30.5158C24.6198 30.5063 23.8787 30.4393 23.147 30.3198ZM24.4238 26.1213C24.7011 26.1405 24.9928 26.15 25.2893 26.1548L25.318 27.8476C24.9833 27.8428 24.6533 27.8285 24.3377 27.8045C24.4094 27.4363 24.4477 27.0586 24.4477 26.6856C24.4477 26.4991 24.4381 26.3126 24.4238 26.1213ZM25.6001 25.2032C25.5858 25.2032 25.5666 25.2032 25.5523 25.2032C25.0932 25.2032 24.6485 25.1841 24.2373 25.1554C24.0556 24.5146 23.7687 23.9121 23.3814 23.3766C24.0986 23.4674 24.8207 23.5152 25.5475 23.5152C27.0251 23.5152 28.4357 23.3383 29.5117 23.0131C29.8703 22.9079 30.2146 22.7693 30.5445 22.6019V23.8548C28.4931 23.9121 26.3843 24.3425 25.6001 25.2032ZM26.2313 25.9635C26.2313 25.9588 26.2313 25.954 26.2361 25.9444C26.2791 25.8153 26.6186 25.4997 27.6085 25.2224C28.5362 24.9594 29.746 24.8159 31.0179 24.8159H31.0992C32.4668 24.8159 33.8057 24.9737 34.7812 25.2702C35.7998 25.5762 36.0389 25.8918 36.0436 25.9635V25.9683C36.0389 26.04 35.7998 26.37 34.7382 26.6856C33.7579 26.9773 32.4668 27.1351 31.104 27.1351C29.7842 27.1351 28.5314 26.9821 27.5798 26.7095C26.5517 26.413 26.2696 26.0831 26.2409 25.9827C26.2313 25.9635 26.2313 25.9635 26.2313 25.9635ZM34.8195 31.9743C33.8536 32.2756 32.5577 32.4429 31.1805 32.4429C29.7986 32.4429 28.5075 32.2803 27.5511 31.9886C26.5421 31.6778 26.3317 31.3574 26.3317 31.2857C26.3317 31.2809 26.3317 31.2809 26.3317 31.2762L26.3078 29.8894C26.6904 30.0759 27.0873 30.2194 27.4985 30.3246C28.5027 30.5876 29.7794 30.7358 31.0897 30.7358C32.5672 30.7358 33.9683 30.5589 35.0394 30.2337C35.3885 30.1285 35.7233 29.9898 36.0436 29.8273V31.2618H36.0484C36.0484 31.3288 35.8285 31.6587 34.8195 31.9743ZM36.0532 28.4549H36.0484C36.0484 28.5027 36.0197 28.5601 36.0197 28.6127C36.0197 28.6796 35.795 29.0048 34.7621 29.3204C33.7818 29.6169 32.4764 29.7794 31.0944 29.7794C28.4453 29.7794 26.6617 29.1817 26.2887 28.7179L26.2839 28.3162L26.2648 27.2164C26.5995 27.3837 26.9486 27.5176 27.3072 27.6181C28.3449 27.9193 29.6886 28.0819 31.0992 28.0819C32.5529 28.0819 33.9396 27.9097 35.006 27.5941C35.3694 27.4937 35.7185 27.3551 36.0532 27.1829V28.4549Z" fill="#41B34F"/>
<path d="M20.4644 27.3646C20.2445 26.5852 19.532 26.0496 18.7238 26.0496C18.2552 26.0496 17.8727 25.6719 17.8727 25.2032C17.8775 24.7298 18.2552 24.3521 18.7238 24.3521C19.1925 24.3521 19.575 24.7346 19.575 25.2032C19.575 25.4662 19.7902 25.6814 20.0532 25.6814C20.3162 25.6814 20.5314 25.4662 20.5314 25.2032C20.5314 24.3951 19.9958 23.6826 19.2164 23.4627V23.2475C19.2164 22.9845 19.0012 22.7693 18.7382 22.7693C18.4752 22.7693 18.26 22.9845 18.26 23.2475V23.4531C17.2989 23.7113 16.725 24.7011 16.9833 25.6623C17.1937 26.4513 17.9062 27.0012 18.7238 27.0012C19.1925 27.0012 19.575 27.379 19.575 27.8476C19.575 28.3162 19.1973 28.6988 18.7286 28.6988C18.26 28.6988 17.8775 28.321 17.8775 27.8524C17.8775 27.5894 17.6623 27.3742 17.3993 27.3742C17.1363 27.3742 16.9211 27.5894 16.9211 27.8524C16.9259 28.6701 17.471 29.3826 18.26 29.5978V30.0138C18.26 30.2768 18.4752 30.492 18.7382 30.492C19.0012 30.492 19.2164 30.2768 19.2164 30.0138V29.593C20.1775 29.3204 20.737 28.3258 20.4644 27.3646Z" fill="#41B34F"/>
<defs>
<filter id="filter0_bii" x="-6.66667" y="-6.66667" width="63.3333" height="63.3333" filterUnits="userSpaceOnUse" color-interpolation-filters="sRGB">
<feFlood flood-opacity="0" result="BackgroundImageFix"/>
<feGaussianBlur in="BackgroundImage" stdDeviation="3.33333"/>
<feComposite in2="SourceAlpha" operator="in" result="effect1_backgroundBlur"/>
<feBlend mode="normal" in="SourceGraphic" in2="effect1_backgroundBlur" result="shape"/>
<feColorMatrix in="SourceAlpha" type="matrix" values="0 0 0 0 0 0 0 0 0 0 0 0 0 0 0 0 0 0 127 0" result="hardAlpha"/>
<feOffset dx="-0.666667" dy="0.666667"/>
<feGaussianBlur stdDeviation="0.333333"/>
<feComposite in2="hardAlpha" operator="arithmetic" k2="-1" k3="1"/>
<feColorMatrix type="matrix" values="0 0 0 0 1 0 0 0 0 1 0 0 0 0 1 0 0 0 0.4 0"/>
<feBlend mode="normal" in2="shape" result="effect2_innerShadow"/>
<feColorMatrix in="SourceAlpha" type="matrix" values="0 0 0 0 0 0 0 0 0 0 0 0 0 0 0 0 0 0 127 0" result="hardAlpha"/>
<feOffset dx="0.67" dy="-0.666667"/>
<feGaussianBlur stdDeviation="0.333333"/>
<feComposite in2="hardAlpha" operator="arithmetic" k2="-1" k3="1"/>
<feColorMatrix type="matrix" values="0 0 0 0 0.84 0 0 0 0 0.84 0 0 0 0 0.84 0 0 0 0.4 0"/>
<feBlend mode="normal" in2="effect2_innerShadow" result="effect3_innerShadow"/>
</filter>
</defs>
</svg>
