<svg width="50" height="50" viewBox="0 0 50 50" fill="none" xmlns="http://www.w3.org/2000/svg">
<rect opacity="0.1" width="50" height="50" rx="10" fill="#EA6370"/>
<g opacity="0.2" filter="url(#filter0_bii)">
<rect width="50" height="50" rx="10" fill="white" fill-opacity="0.5"/>
</g>
<path d="M34.4286 15.5714H31.8571V13.8572C31.8571 13.3838 31.4734 13 31 13C30.5266 13 30.1428 13.3838 30.1428 13.8572V15.5714H19.8571V13.8572C19.8571 13.3838 19.4734 13 19 13C18.5267 13 18.1429 13.3838 18.1429 13.8572V15.5714H15.5714C14.1513 15.5714 13 16.7227 13 18.1429V34.4286C13 35.8487 14.1513 37 15.5714 37H34.4286C35.8487 37 37 35.8487 37 34.4286V18.1429C37 16.7227 35.8487 15.5714 34.4286 15.5714ZM35.2857 34.4286C35.2857 34.902 34.9019 35.2857 34.4285 35.2857H15.5714C15.098 35.2857 14.7143 34.902 14.7143 34.4286V23.2857H35.2857V34.4286ZM35.2857 21.5714H14.7143V18.1429C14.7143 17.6694 15.098 17.2857 15.5714 17.2857H18.1429V19C18.1429 19.4734 18.5266 19.8571 19 19.8571C19.4734 19.8571 19.8572 19.4734 19.8572 19V17.2857H30.1429V19C30.1429 19.4734 30.5266 19.8571 31 19.8571C31.4734 19.8571 31.8572 19.4734 31.8572 19V17.2857H34.4286C34.902 17.2857 35.2858 17.6694 35.2858 18.1429V21.5714H35.2857Z" fill="#EA6370"/>
<path d="M19.8571 25H18.1429C17.6694 25 17.2857 25.3837 17.2857 25.8571C17.2857 26.3305 17.6694 26.7143 18.1429 26.7143H19.8571C20.3305 26.7143 20.7143 26.3305 20.7143 25.8571C20.7143 25.3837 20.3305 25 19.8571 25Z" fill="#EA6370"/>
<path d="M25.8572 25H24.1429C23.6695 25 23.2857 25.3837 23.2857 25.8571C23.2857 26.3305 23.6695 26.7143 24.1429 26.7143H25.8572C26.3306 26.7143 26.7143 26.3305 26.7143 25.8571C26.7143 25.3837 26.3306 25 25.8572 25Z" fill="#EA6370"/>
<path d="M31.8571 25H30.1429C29.6695 25 29.2857 25.3837 29.2857 25.8571C29.2857 26.3305 29.6695 26.7143 30.1429 26.7143H31.8571C32.3306 26.7143 32.7143 26.3305 32.7143 25.8571C32.7143 25.3837 32.3305 25 31.8571 25Z" fill="#EA6370"/>
<path d="M19.8571 28.4286H18.1429C17.6694 28.4286 17.2857 28.8123 17.2857 29.2857C17.2857 29.7591 17.6694 30.1429 18.1429 30.1429H19.8571C20.3305 30.1429 20.7143 29.7591 20.7143 29.2857C20.7143 28.8123 20.3305 28.4286 19.8571 28.4286Z" fill="#EA6370"/>
<path d="M25.8572 28.4286H24.1429C23.6695 28.4286 23.2857 28.8123 23.2857 29.2857C23.2857 29.7591 23.6695 30.1429 24.1429 30.1429H25.8572C26.3306 30.1429 26.7143 29.7591 26.7143 29.2857C26.7143 28.8123 26.3306 28.4286 25.8572 28.4286Z" fill="#EA6370"/>
<path d="M31.8571 28.4286H30.1429C29.6695 28.4286 29.2857 28.8123 29.2857 29.2857C29.2857 29.7591 29.6695 30.1429 30.1429 30.1429H31.8571C32.3306 30.1429 32.7143 29.7591 32.7143 29.2857C32.7143 28.8123 32.3305 28.4286 31.8571 28.4286Z" fill="#EA6370"/>
<path d="M19.8571 31.8571H18.1429C17.6694 31.8571 17.2857 32.2409 17.2857 32.7143C17.2857 33.1877 17.6694 33.5714 18.1429 33.5714H19.8571C20.3305 33.5714 20.7143 33.1877 20.7143 32.7143C20.7143 32.2409 20.3305 31.8571 19.8571 31.8571Z" fill="#EA6370"/>
<path d="M25.8572 31.8571H24.1429C23.6695 31.8571 23.2857 32.2409 23.2857 32.7143C23.2857 33.1877 23.6695 33.5715 24.1429 33.5715H25.8572C26.3306 33.5715 26.7143 33.1877 26.7143 32.7143C26.7143 32.2409 26.3306 31.8571 25.8572 31.8571Z" fill="#EA6370"/>
<path d="M31.8571 31.8571H30.1429C29.6695 31.8571 29.2857 32.2409 29.2857 32.7143C29.2857 33.1877 29.6695 33.5715 30.1429 33.5715H31.8571C32.3306 33.5715 32.7143 33.1877 32.7143 32.7143C32.7143 32.2409 32.3305 31.8571 31.8571 31.8571Z" fill="#EA6370"/>
<defs>
<filter id="filter0_bii" x="-6.66667" y="-6.66667" width="63.3333" height="63.3333" filterUnits="userSpaceOnUse" color-interpolation-filters="sRGB">
<feFlood flood-opacity="0" result="BackgroundImageFix"/>
<feGaussianBlur in="BackgroundImage" stdDeviation="3.33333"/>
<feComposite in2="SourceAlpha" operator="in" result="effect1_backgroundBlur"/>
<feBlend mode="normal" in="SourceGraphic" in2="effect1_backgroundBlur" result="shape"/>
<feColorMatrix in="SourceAlpha" type="matrix" values="0 0 0 0 0 0 0 0 0 0 0 0 0 0 0 0 0 0 127 0" result="hardAlpha"/>
<feOffset dx="-0.666667" dy="0.666667"/>
<feGaussianBlur stdDeviation="0.333333"/>
<feComposite in2="hardAlpha" operator="arithmetic" k2="-1" k3="1"/>
<feColorMatrix type="matrix" values="0 0 0 0 1 0 0 0 0 1 0 0 0 0 1 0 0 0 0.4 0"/>
<feBlend mode="normal" in2="shape" result="effect2_innerShadow"/>
<feColorMatrix in="SourceAlpha" type="matrix" values="0 0 0 0 0 0 0 0 0 0 0 0 0 0 0 0 0 0 127 0" result="hardAlpha"/>
<feOffset dx="0.67" dy="-0.666667"/>
<feGaussianBlur stdDeviation="0.333333"/>
<feComposite in2="hardAlpha" operator="arithmetic" k2="-1" k3="1"/>
<feColorMatrix type="matrix" values="0 0 0 0 0.84 0 0 0 0 0.84 0 0 0 0 0.84 0 0 0 0.4 0"/>
<feBlend mode="normal" in2="effect2_innerShadow" result="effect3_innerShadow"/>
</filter>
</defs>
</svg>
