<svg width="16" height="16" viewBox="0 0 16 16" fill="none" xmlns="http://www.w3.org/2000/svg">
<mask id="mask0" mask-type="alpha" maskUnits="userSpaceOnUse" x="0" y="0" width="16" height="16">
<rect width="16" height="16" fill="#C4C4C4"/>
</mask>
<g mask="url(#mask0)">
<path d="M7.99997 2C6.65738 2 5.56519 3.09216 5.56519 4.43479C5.56519 5.77742 6.65735 6.86959 7.99997 6.86959C9.3426 6.86959 10.4348 5.77739 10.4348 4.43479C10.4348 3.0922 9.3426 2 7.99997 2ZM7.99997 6.17391C7.04138 6.17391 6.26086 5.39339 6.26086 4.43479C6.26086 3.47619 7.04138 2.69567 7.99997 2.69567C8.95857 2.69567 9.73909 3.47619 9.73909 4.43479C9.73909 5.39339 8.9586 6.17391 7.99997 6.17391Z" fill="#636366"/>
<path d="M12.8696 4.78265C11.911 4.78265 11.1305 5.56318 11.1305 6.52178C11.1305 7.48038 11.911 8.2609 12.8696 8.2609C13.8282 8.2609 14.6087 7.48038 14.6087 6.52178C14.6087 5.56318 13.8282 4.78265 12.8696 4.78265ZM12.8696 7.56526C12.2943 7.56526 11.8261 7.09709 11.8261 6.52178C11.8261 5.94646 12.2943 5.4783 12.8696 5.4783C13.4449 5.4783 13.9131 5.94646 13.9131 6.52178C13.9131 7.09709 13.4449 7.56526 12.8696 7.56526Z" fill="#636366"/>
<path d="M3.17985 4.78265C2.22054 4.78265 1.44073 5.56318 1.44073 6.52178C1.44073 7.48038 2.22126 8.2609 3.17985 8.2609C4.13845 8.2609 4.91897 7.48038 4.91897 6.52178C4.91897 5.56318 4.13913 4.78265 3.17985 4.78265ZM3.17985 7.56526C2.60454 7.56526 2.13637 7.09709 2.13637 6.52178C2.13637 5.94646 2.60454 5.4783 3.17985 5.4783C3.75516 5.4783 4.22333 5.94646 4.22333 6.52178C4.22333 7.09709 3.75513 7.56526 3.17985 7.56526Z" fill="#636366"/>
<path d="M7.99996 7.56525C5.50673 7.56525 3.47821 9.59376 3.47821 12.087C3.47821 12.279 3.63405 12.4348 3.82605 12.4348C4.01805 12.4348 4.17388 12.279 4.17388 12.087C4.17388 9.97708 5.89005 8.26092 7.99996 8.26092C10.1099 8.26092 11.826 9.97708 11.826 12.087C11.826 12.279 11.9819 12.4348 12.1739 12.4348C12.3659 12.4348 12.5217 12.279 12.5217 12.087C12.5217 9.59376 10.4932 7.56525 7.99996 7.56525Z" fill="#636366"/>
<path d="M12.8696 8.95654C12.2971 8.95654 11.7364 9.11306 11.248 9.40873C11.0846 9.5089 11.0317 9.72246 11.1312 9.88664C11.232 10.0508 11.4449 10.103 11.6091 10.0035C11.9882 9.77323 12.4237 9.65218 12.8696 9.65218C14.2122 9.65218 15.3044 10.7443 15.3044 12.087C15.3044 12.279 15.4602 12.4348 15.6522 12.4348C15.8442 12.4348 16.0001 12.279 16.0001 12.087C16 10.3611 14.5955 8.95654 12.8696 8.95654Z" fill="#636366"/>
<path d="M4.75131 9.40801C4.26365 9.11306 3.70298 8.95654 3.13043 8.95654C1.40452 8.95654 0 10.3611 0 12.087C0 12.279 0.155837 12.4348 0.347837 12.4348C0.539837 12.4348 0.695674 12.279 0.695674 12.087C0.695641 10.7443 1.78784 9.65218 3.13043 9.65218C3.57636 9.65218 4.01181 9.77323 4.39027 10.0028C4.55374 10.1023 4.76801 10.0501 4.86818 9.88592C4.96836 9.72174 4.91546 9.50818 4.75131 9.40801Z" fill="#636366"/>
</g>
</svg>
