<svg width="14" height="14" viewBox="0 0 14 14" fill="none" xmlns="http://www.w3.org/2000/svg">
<path d="M6.99999 0C3.14027 0 0 3.14027 0 6.99999C0 10.8597 3.14027 14 6.99999 14C10.8597 14 14 10.8597 14 6.99999C14 3.14027 10.8597 0 6.99999 0ZM6.99999 13.3913C3.47564 13.3913 0.608686 10.5243 0.608686 6.99999C0.608686 3.47564 3.47564 0.608686 6.99999 0.608686C10.5243 0.608686 13.3913 3.47564 13.3913 6.99999C13.3913 10.5243 10.5243 13.3913 6.99999 13.3913Z" fill="#636366"/>
<path d="M9.9546 9.52426L7.30435 6.87399V2.13044C7.30435 1.96245 7.16799 1.82609 6.99999 1.82609C6.83199 1.82609 6.69563 1.96245 6.69563 2.13044V7.00001C6.69563 7.08096 6.7279 7.15828 6.78451 7.21549L9.52365 9.95462C9.58331 10.0137 9.6612 10.0435 9.73913 10.0435C9.81705 10.0435 9.89494 10.0137 9.9546 9.95462C10.0733 9.83589 10.0733 9.64296 9.9546 9.52426Z" fill="#636366"/>
</svg>
